font.ufo
<glyph name="numbersign" format="2">
	<unicode hex="0023"/>
	<advance width="531"/>
	<outline>
		<contour>
			<point x="84" y="0" type="line"/>
			<point x="176" y="0" type="line"/>
			<point x="199" y="183" type="line"/>
			<point x="295" y="183" type="line"/>
			<point x="273" y="0" type="line"/>
			<point x="365" y="0" type="line"/>
			<point x="387" y="183" type="line"/>
			<point x="482" y="183" type="line"/>
			<point x="482" y="284" type="line"/>
			<point x="398" y="284" type="line"/>
			<point x="412" y="388" type="line"/>
			<point x="502" y="388" type="line"/>
			<point x="502" y="489" type="line"/>
			<point x="424" y="489" type="line"/>
			<point x="444" y="650" type="line"/>
			<point x="353" y="650" type="line"/>
			<point x="332" y="489" type="line"/>
			<point x="236" y="489" type="line"/>
			<point x="255" y="650" type="line"/>
			<point x="164" y="650" type="line"/>
			<point x="143" y="489" type="line"/>
			<point x="53" y="489" type="line"/>
			<point x="53" y="388" type="line"/>
			<point x="131" y="388" type="line"/>
			<point x="117" y="284" type="line"/>
			<point x="33" y="284" type="line"/>
			<point x="33" y="183" type="line"/>
			<point x="107" y="183" type="line"/>
		</contour>
		<contour>
			<point x="210" y="284" type="line"/>
			<point x="223" y="388" type="line"/>
			<point x="319" y="388" type="line"/>
			<point x="306" y="284" type="line"/>
		</contour>
	</outline>
</glyph>
<glyph name="dollar" format="2">
	<unicode hex="0024"/>
	<advance width="532"/>
	<outline>
		<contour>
			<point x="246" y="-12" type="curve" smooth="yes"/>
			<point x="396" y="-12"/>
			<point x="472" y="73"/>
			<point x="472" y="190" type="curve" smooth="yes"/>
			<point x="472" y="373"/>
			<point x="210" y="375"/>
			<point x="210" y="462" type="curve" smooth="yes"/>
			<point x="210" y="503"/>
			<point x="234" y="522"/>
			<point x="277" y="522" type="curve" smooth="yes"/>
			<point x="318" y="522"/>
			<point x="355" y="505"/>
			<point x="388" y="474" type="curve"/>
			<point x="466" y="559" type="line"/>
			<point x="418" y="611"/>
			<point x="358" y="647"/>
			<point x="272" y="647" type="curve" smooth="yes"/>
			<point x="143" y="647"/>
			<point x="62" y="572"/>
			<point x="62" y="454" type="curve" smooth="yes"/>
			<point x="62" y="279"/>
			<point x="324" y="270"/>
			<point x="324" y="177" type="curve" smooth="yes"/>
			<point x="324" y="136"/>
			<point x="300" y="113"/>
			<point x="246" y="113" type="curve" smooth="yes"/>
			<point x="200" y="113"/>
			<point x="156" y="125"/>
			<point x="106" y="167" type="curve"/>
			<point x="37" y="72" type="line"/>
			<point x="94" y="13"/>
			<point x="171" y="-12"/>
		</contour>
		<contour>
			<point x="214" y="-110" type="line"/>
			<point x="316" y="-110" type="line"/>
			<point x="316" y="52" type="line"/>
			<point x="214" y="52" type="line"/>
		</contour>
		<contour>
			<point x="214" y="599" type="line"/>
			<point x="316" y="599" type="line"/>
			<point x="316" y="745" type="line"/>
			<point x="214" y="745" type="line"/>
		</contour>
	</outline>
</glyph>
<glyph name="ampersand" format="2">
	<unicode hex="0026"/>
	<advance width="675"/>
	<outline>
		<contour>
			<point x="243" y="-12" type="curve" smooth="yes"/>
			<point x="355" y="-12"/>
			<point x="441" y="33"/>
			<point x="503" y="102" type="curve" smooth="yes"/>
			<point x="575" y="183"/>
			<point x="623" y="272"/>
			<point x="652" y="370" type="curve"/>
			<point x="512" y="370" type="line"/>
			<point x="489" y="287"/>
			<point x="448" y="221"/>
			<point x="397" y="171" type="curve" smooth="yes"/>
			<point x="355" y="131"/>
			<point x="307" y="106"/>
			<point x="263" y="106" type="curve" smooth="yes"/>
			<point x="207" y="106"/>
			<point x="170" y="138"/>
			<point x="170" y="184" type="curve" smooth="yes"/>
			<point x="170" y="300"/>
			<point x="447" y="339"/>
			<point x="447" y="514" type="curve" smooth="yes"/>
			<point x="447" y="604"/>
			<point x="383" y="663"/>
			<point x="283" y="663" type="curve" smooth="yes"/>
			<point x="172" y="663"/>
			<point x="102" y="584"/>
			<point x="102" y="491" type="curve" smooth="yes"/>
			<point x="102" y="362"/>
			<point x="246" y="184"/>
			<point x="412" y="76" type="curve" smooth="yes"/>
			<point x="480" y="31"/>
			<point x="552" y="0"/>
			<point x="619" y="-12" type="curve"/>
			<point x="656" y="113" type="line"/>
			<point x="613" y="119"/>
			<point x="559" y="142"/>
			<point x="505" y="174" type="curve" smooth="yes"/>
			<point x="371" y="252"/>
			<point x="230" y="390"/>
			<point x="230" y="491" type="curve" smooth="yes"/>
			<point x="230" y="536"/>
			<point x="255" y="561"/>
			<point x="286" y="561" type="curve" smooth="yes"/>
			<point x="315" y="561"/>
			<point x="329" y="543"/>
			<point x="329" y="514" type="curve" smooth="yes"/>
			<point x="329" y="388"/>
			<point x="24" y="390"/>
			<point x="24" y="175" type="curve" smooth="yes"/>
			<point x="24" y="75"/>
			<point x="98" y="-12"/>
		</contour>
	</outline>
</glyph>
<glyph name="quotesingle" format="2">
	<unicode hex="0027"/>
	<advance width="307"/>
	<outline>
		<contour>
			<point x="111" y="344" type="line"/>
			<point x="195" y="344" type="line"/>
			<point x="226" y="548" type="line"/>
			<point x="231" y="685" type="line"/>
			<point x="75" y="685" type="line"/>
			<point x="80" y="548" type="line"/>
		</contour>
	</outline>
</glyph>
<glyph name="parenleft" format="2">
	<unicode hex="0028"/>
	<advance width="349"/>
	<outline>
		<contour>
			<point x="203" y="-179" type="curve"/>
			<point x="300" y="-139" type="line"/>
			<point x="227" y="-10"/>
			<point x="195" y="137"/>
			<point x="195" y="278" type="curve" smooth="yes"/>
			<point x="195" y="419"/>
			<point x="227" y="566"/>
			<point x="300" y="695" type="curve"/>
			<point x="203" y="735" type="line"/>
			<point x="119" y="598"/>
			<point x="71" y="454"/>
			<point x="71" y="278" type="curve" smooth="yes"/>
			<point x="71" y="102"/>
			<point x="119" y="-42"/>
		</contour>
	</outline>
</glyph>
<glyph name="parenright" format="2">
	<unicode hex="0029"/>
	<advance width="349"/>
	<outline>
		<contour>
			<point x="147" y="-179" type="line"/>
			<point x="230" y="-42"/>
			<point x="279" y="102"/>
			<point x="279" y="278" type="curve" smooth="yes"/>
			<point x="279" y="454"/>
			<point x="230" y="598"/>
			<point x="147" y="735" type="curve"/>
			<point x="49" y="695" type="line"/>
			<point x="122" y="566"/>
			<point x="154" y="419"/>
			<point x="154" y="278" type="curve" smooth="yes"/>
			<point x="154" y="137"/>
			<point x="122" y="-10"/>
			<point x="49" y="-139" type="curve"/>
		</contour>
	</outline>
</glyph>
<glyph name="asterisk" format="2">
	<unicode hex="002A"/>
	<advance width="462"/>
	<outline>
		<contour>
			<point x="149" y="340" type="line"/>
			<point x="231" y="430" type="line"/>
			<point x="312" y="340" type="line"/>
			<point x="377" y="387" type="line"/>
			<point x="316" y="491" type="line"/>
			<point x="426" y="541" type="line"/>
			<point x="402" y="617" type="line"/>
			<point x="284" y="592" type="line"/>
			<point x="271" y="712" type="line"/>
			<point x="191" y="712" type="line"/>
			<point x="178" y="593" type="line"/>
			<point x="60" y="617" type="line"/>
			<point x="35" y="541" type="line"/>
			<point x="144" y="491" type="line"/>
			<point x="85" y="387" type="line"/>
		</contour>
	</outline>
</glyph>
<glyph name="comma" format="2">
	<unicode hex="002C"/>
	<advance width="307"/>
	<outline>
		<contour>
			<point x="78" y="-198" type="line"/>
			<point x="198" y="-162"/>
			<point x="263" y="-76"/>
			<point x="263" y="36" type="curve" smooth="yes"/>
			<point x="263" y="126"/>
			<point x="225" y="180"/>
			<point x="157" y="180" type="curve" smooth="yes"/>
			<point x="104" y="180"/>
			<point x="61" y="145"/>
			<point x="61" y="93" type="curve" smooth="yes"/>
			<point x="61" y="38"/>
			<point x="106" y="6"/>
			<point x="154" y="6" type="curve" smooth="yes"/>
			<point x="175" y="6"/>
			<point x="194" y="13"/>
			<point x="209" y="25" type="curve"/>
			<point x="160" y="110" type="line"/>
			<point x="161" y="9" type="line"/>
			<point x="162" y="-42"/>
			<point x="123" y="-90"/>
			<point x="46" y="-115" type="curve"/>
		</contour>
	</outline>
</glyph>
<glyph name="period" format="2">
	<unicode hex="002E"/>
	<advance width="307"/>
	<outline>
		<contour>
			<point x="153" y="-12" type="curve" smooth="yes"/>
			<point x="206" y="-12"/>
			<point x="246" y="30"/>
			<point x="246" y="84" type="curve" smooth="yes"/>
			<point x="246" y="138"/>
			<point x="206" y="180"/>
			<point x="153" y="180" type="curve" smooth="yes"/>
			<point x="100" y="180"/>
			<point x="61" y="138"/>
			<point x="61" y="84" type="curve" smooth="yes"/>
			<point x="61" y="30"/>
			<point x="100" y="-12"/>
		</contour>
	</outline>
</glyph>
<glyph name="slash" format="2">
	<unicode hex="002F"/>
	<advance width="337"/>
	<outline>
		<contour>
			<point x="13" y="-160" type="line"/>
			<point x="114" y="-160" type="line"/>
			<point x="307" y="710" type="line"/>
			<point x="207" y="710" type="line"/>
		</contour>
	</outline>
</glyph>
<glyph name="zero" format="2">
	<unicode hex="0030"/>
	<advance width="532"/>
	<outline>
		<contour>
			<point x="266" y="-12" type="curve" smooth="yes"/>
			<point x="404" y="-12"/>
			<point x="496" y="104"/>
			<point x="496" y="320" type="curve" smooth="yes"/>
			<point x="496" y="536"/>
			<point x="404" y="647"/>
			<point x="266" y="647" type="curve" smooth="yes"/>
			<point x="128" y="647"/>
			<point x="36" y="537"/>
			<point x="36" y="320" type="curve" smooth="yes"/>
			<point x="36" y="104"/>
			<point x="128" y="-12"/>
		</contour>
		<contour>
			<point x="266" y="107" type="curve" smooth="yes"/>
			<point x="219" y="107"/>
			<point x="182" y="149"/>
			<point x="182" y="320" type="curve" smooth="yes"/>
			<point x="182" y="492"/>
			<point x="219" y="527"/>
			<point x="266" y="527" type="curve" smooth="yes"/>
			<point x="312" y="527"/>
			<point x="350" y="492"/>
			<point x="350" y="320" type="curve" smooth="yes"/>
			<point x="350" y="149"/>
			<point x="312" y="107"/>
		</contour>
	</outline>
</glyph>
<glyph name="one" format="2">
	<unicode hex="0031"/>
	<advance width="532"/>
	<outline>
		<contour>
			<point x="68" y="0" type="line"/>
			<point x="479" y="0" type="line"/>
			<point x="479" y="125" type="line"/>
			<point x="361" y="125" type="line"/>
			<point x="361" y="635" type="line"/>
			<point x="247" y="635" type="line"/>
			<point x="202" y="606"/>
			<point x="156" y="589"/>
			<point x="87" y="576" type="curve"/>
			<point x="87" y="480" type="line"/>
			<point x="206" y="480" type="line"/>
			<point x="206" y="125" type="line"/>
			<point x="68" y="125" type="line"/>
		</contour>
	</outline>
</glyph>
<glyph name="two" format="2">
	<unicode hex="0032"/>
	<advance width="532"/>
	<outline>
		<contour>
			<point x="37" y="0" type="line"/>
			<point x="488" y="0" type="line"/>
			<point x="488" y="130" type="line"/>
			<point x="367" y="130" type="line" smooth="yes"/>
			<point x="338" y="130"/>
			<point x="293" y="126"/>
			<point x="260" y="123" type="curve"/>
			<point x="359" y="224"/>
			<point x="457" y="337"/>
			<point x="457" y="443" type="curve" smooth="yes"/>
			<point x="457" y="566"/>
			<point x="370" y="647"/>
			<point x="244" y="647" type="curve" smooth="yes"/>
			<point x="153" y="647"/>
			<point x="93" y="614"/>
			<point x="29" y="546" type="curve"/>
			<point x="113" y="462" type="line"/>
			<point x="144" y="495"/>
			<point x="179" y="525"/>
			<point x="223" y="525" type="curve" smooth="yes"/>
			<point x="276" y="525"/>
			<point x="309" y="494"/>
			<point x="309" y="434" type="curve" smooth="yes"/>
			<point x="309" y="344"/>
			<point x="195" y="237"/>
			<point x="37" y="89" type="curve"/>
		</contour>
	</outline>
</glyph>
<glyph name="three" format="2">
	<unicode hex="0033"/>
	<advance width="532"/>
	<outline>
		<contour>
			<point x="244" y="-12" type="curve" smooth="yes"/>
			<point x="373" y="-12"/>
			<point x="483" y="54"/>
			<point x="483" y="173" type="curve" smooth="yes"/>
			<point x="483" y="255"/>
			<point x="431" y="306"/>
			<point x="358" y="327" type="curve"/>
			<point x="358" y="331" type="line"/>
			<point x="426" y="360"/>
			<point x="463" y="407"/>
			<point x="463" y="471" type="curve" smooth="yes"/>
			<point x="463" y="584"/>
			<point x="375" y="647"/>
			<point x="240" y="647" type="curve" smooth="yes"/>
			<point x="163" y="647"/>
			<point x="98" y="616"/>
			<point x="39" y="565" type="curve"/>
			<point x="117" y="471" type="line"/>
			<point x="156" y="506"/>
			<point x="189" y="525"/>
			<point x="233" y="525" type="curve" smooth="yes"/>
			<point x="281" y="525"/>
			<point x="308" y="502"/>
			<point x="308" y="459" type="curve" smooth="yes"/>
			<point x="308" y="411"/>
			<point x="273" y="378"/>
			<point x="162" y="378" type="curve"/>
			<point x="162" y="269" type="line"/>
			<point x="298" y="269"/>
			<point x="328" y="237"/>
			<point x="328" y="184" type="curve" smooth="yes"/>
			<point x="328" y="138"/>
			<point x="289" y="113"/>
			<point x="228" y="113" type="curve" smooth="yes"/>
			<point x="178" y="113"/>
			<point x="131" y="139"/>
			<point x="92" y="176" type="curve"/>
			<point x="21" y="78" type="line"/>
			<point x="68" y="24"/>
			<point x="141" y="-12"/>
		</contour>
	</outline>
</glyph>
<glyph name="four" format="2">
	<unicode hex="0034"/>
	<advance width="532"/>
	<outline>
		<contour>
			<point x="293" y="0" type="line"/>
			<point x="437" y="0" type="line"/>
			<point x="437" y="635" type="line"/>
			<point x="246" y="635" type="line"/>
			<point x="20" y="256" type="line"/>
			<point x="20" y="148" type="line"/>
			<point x="509" y="148" type="line"/>
			<point x="509" y="266" type="line"/>
			<point x="167" y="266" type="line"/>
			<point x="242" y="395" type="line"/>
			<point x="260" y="432"/>
			<point x="278" y="468"/>
			<point x="294" y="505" type="curve"/>
			<point x="298" y="505" type="line"/>
			<point x="296" y="463"/>
			<point x="293" y="401"/>
			<point x="293" y="360" type="curve" smooth="yes"/>
		</contour>
	</outline>
</glyph>
<glyph name="six" format="2">
	<unicode hex="0036"/>
	<advance width="532"/>
	<outline>
		<contour>
			<point x="283" y="-12" type="curve" smooth="yes"/>
			<point x="399" y="-12"/>
			<point x="497" y="68"/>
			<point x="497" y="202" type="curve" smooth="yes"/>
			<point x="497" y="337"/>
			<point x="415" y="398"/>
			<point x="307" y="398" type="curve" smooth="yes"/>
			<point x="266" y="398"/>
			<point x="207" y="371"/>
			<point x="175" y="323" type="curve"/>
			<point x="182" y="223" type="line"/>
			<point x="209" y="271"/>
			<point x="244" y="289"/>
			<point x="276" y="289" type="curve" smooth="yes"/>
			<point x="321" y="289"/>
			<point x="356" y="267"/>
			<point x="356" y="202" type="curve" smooth="yes"/>
			<point x="356" y="132"/>
			<point x="320" y="104"/>
			<point x="279" y="104" type="curve" smooth="yes"/>
			<point x="230" y="104"/>
			<point x="181" y="146"/>
			<point x="181" y="304" type="curve" smooth="yes"/>
			<point x="181" y="468"/>
			<point x="237" y="522"/>
			<point x="309" y="522" type="curve" smooth="yes"/>
			<point x="345" y="522"/>
			<point x="385" y="500"/>
			<point x="406" y="477" type="curve"/>
			<point x="488" y="569" type="line"/>
			<point x="447" y="610"/>
			<point x="384" y="647"/>
			<point x="298" y="647" type="curve" smooth="yes"/>
			<point x="164" y="647"/>
			<point x="40" y="539"/>
			<point x="40" y="304" type="curve" smooth="yes"/>
			<point x="40" y="79"/>
			<point x="160" y="-12"/>
		</contour>
	</outline>
</glyph>
<glyph name="seven" format="2">
	<unicode hex="0037"/>
	<advance width="532"/>
	<outline>
		<contour>
			<point x="148" y="0" type="curve"/>
			<point x="303" y="0" type="line"/>
			<point x="315" y="247"/>
			<point x="339" y="361"/>
			<point x="490" y="539" type="curve"/>
			<point x="490" y="635" type="line"/>
			<point x="44" y="635" type="line"/>
			<point x="44" y="505" type="line"/>
			<point x="325" y="505" type="line"/>
			<point x="201" y="337"/>
			<point x="159" y="208"/>
		</contour>
	</outline>
</glyph>
<glyph name="eight" format="2">
	<unicode hex="0038"/>
	<advance width="532"/>
	<outline>
		<contour>
			<point x="265" y="-12" type="curve" smooth="yes"/>
			<point x="401" y="-12"/>
			<point x="492" y="64"/>
			<point x="492" y="165" type="curve" smooth="yes"/>
			<point x="492" y="249"/>
			<point x="443" y="298"/>
			<point x="382" y="331" type="curve"/>
			<point x="382" y="335" type="line"/>
			<point x="426" y="364"/>
			<point x="465" y="412"/>
			<point x="465" y="472" type="curve" smooth="yes"/>
			<point x="465" y="578"/>
			<point x="387" y="647"/>
			<point x="270" y="647" type="curve" smooth="yes"/>
			<point x="150" y="647"/>
			<point x="64" y="579"/>
			<point x="64" y="470" type="curve" smooth="yes"/>
			<point x="64" y="404"/>
			<point x="99" y="357"/>
			<point x="149" y="320" type="curve"/>
			<point x="149" y="316" type="line"/>
			<point x="89" y="284"/>
			<point x="42" y="238"/>
			<point x="42" y="162" type="curve" smooth="yes"/>
			<point x="42" y="59"/>
			<point x="137" y="-12"/>
		</contour>
		<contour>
			<point x="304" y="372" type="curve"/>
			<point x="241" y="397"/>
			<point x="200" y="421"/>
			<point x="200" y="470" type="curve" smooth="yes"/>
			<point x="200" y="517"/>
			<point x="230" y="540"/>
			<point x="266" y="540" type="curve" smooth="yes"/>
			<point x="312" y="540"/>
			<point x="339" y="509"/>
			<point x="339" y="461" type="curve" smooth="yes"/>
			<point x="339" y="430"/>
			<point x="327" y="401"/>
		</contour>
		<contour>
			<point x="268" y="95" type="curve" smooth="yes"/>
			<point x="218" y="95"/>
			<point x="175" y="126"/>
			<point x="175" y="180" type="curve" smooth="yes"/>
			<point x="175" y="217"/>
			<point x="194" y="252"/>
			<point x="219" y="276" type="curve"/>
			<point x="297" y="243"/>
			<point x="348" y="223"/>
			<point x="348" y="170" type="curve" smooth="yes"/>
			<point x="348" y="118"/>
			<point x="313" y="95"/>
		</contour>
	</outline>
</glyph>
<glyph name="nine" format="2">
	<unicode hex="0039"/>
	<advance width="532"/>
	<outline>
		<contour>
			<point x="232" y="-12" type="curve" smooth="yes"/>
			<point x="366" y="-12"/>
			<point x="490" y="96"/>
			<point x="490" y="331" type="curve" smooth="yes"/>
			<point x="490" y="556"/>
			<point x="370" y="647"/>
			<point x="247" y="647" type="curve" smooth="yes"/>
			<point x="131" y="647"/>
			<point x="33" y="566"/>
			<point x="33" y="433" type="curve" smooth="yes"/>
			<point x="33" y="298"/>
			<point x="115" y="237"/>
			<point x="224" y="237" type="curve" smooth="yes"/>
			<point x="264" y="237"/>
			<point x="323" y="264"/>
			<point x="355" y="312" type="curve"/>
			<point x="348" y="411" type="line"/>
			<point x="321" y="363"/>
			<point x="286" y="346"/>
			<point x="254" y="346" type="curve" smooth="yes"/>
			<point x="209" y="346"/>
			<point x="175" y="368"/>
			<point x="175" y="433" type="curve" smooth="yes"/>
			<point x="175" y="503"/>
			<point x="210" y="531"/>
			<point x="251" y="531" type="curve" smooth="yes"/>
			<point x="300" y="531"/>
			<point x="349" y="489"/>
			<point x="349" y="331" type="curve" smooth="yes"/>
			<point x="349" y="167"/>
			<point x="294" y="113"/>
			<point x="221" y="113" type="curve" smooth="yes"/>
			<point x="185" y="113"/>
			<point x="145" y="134"/>
			<point x="124" y="158" type="curve"/>
			<point x="42" y="66" type="line"/>
			<point x="83" y="24"/>
			<point x="146" y="-12"/>
		</contour>
	</outline>
</glyph>
<glyph name="less" format="2">
	<unicode hex="003C"/>
	<advance width="532"/>
	<outline>
		<contour>
			<point x="498" y="101" type="line"/>
			<point x="498" y="228" type="line"/>
			<point x="326" y="283" type="line"/>
			<point x="191" y="330" type="line"/>
			<point x="191" y="334" type="line"/>
			<point x="326" y="381" type="line"/>
			<point x="498" y="436" type="line"/>
			<point x="498" y="563" type="line"/>
			<point x="34" y="385" type="line"/>
			<point x="34" y="279" type="line"/>
		</contour>
	</outline>
</glyph>
<glyph name="greater" format="2">
	<unicode hex="003E"/>
	<advance width="532"/>
	<outline>
		<contour>
			<point x="34" y="101" type="line"/>
			<point x="498" y="279" type="line"/>
			<point x="498" y="385" type="line"/>
			<point x="34" y="563" type="line"/>
			<point x="34" y="436" type="line"/>
			<point x="205" y="381" type="line"/>
			<point x="341" y="334" type="line"/>
			<point x="341" y="330" type="line"/>
			<point x="205" y="283" type="line"/>
			<point x="34" y="228" type="line"/>
		</contour>
	</outline>
</glyph>
<glyph name="question" format="2">
	<unicode hex="003F"/>
	<advance width="468"/>
	<outline>
		<contour>
			<point x="153" y="235" type="curve"/>
			<point x="289" y="235" type="line"/>
			<point x="278" y="351"/>
			<point x="426" y="387"/>
			<point x="426" y="509" type="curve" smooth="yes"/>
			<point x="426" y="630"/>
			<point x="343" y="682"/>
			<point x="234" y="682" type="curve" smooth="yes"/>
			<point x="156" y="682"/>
			<point x="89" y="644"/>
			<point x="41" y="590" type="curve"/>
			<point x="126" y="512" type="line"/>
			<point x="153" y="539"/>
			<point x="179" y="557"/>
			<point x="215" y="557" type="curve" smooth="yes"/>
			<point x="251" y="557"/>
			<point x="278" y="538"/>
			<point x="278" y="498" type="curve" smooth="yes"/>
			<point x="278" y="426"/>
			<point x="133" y="370"/>
		</contour>
		<contour>
			<point x="221" y="-12" type="curve" smooth="yes"/>
			<point x="274" y="-12"/>
			<point x="313" y="30"/>
			<point x="313" y="84" type="curve" smooth="yes"/>
			<point x="313" y="138"/>
			<point x="274" y="180"/>
			<point x="221" y="180" type="curve" smooth="yes"/>
			<point x="168" y="180"/>
			<point x="128" y="138"/>
			<point x="128" y="84" type="curve" smooth="yes"/>
			<point x="128" y="30"/>
			<point x="168" y="-12"/>
		</contour>
	</outline>
</glyph>
<glyph name="at" format="2">
	<unicode hex="0040"/>
	<advance width="908"/>
	<outline>
		<contour>
			<point x="431" y="-174" type="curve" smooth="yes"/>
			<point x="502" y="-174"/>
			<point x="566" y="-159"/>
			<point x="627" y="-126" type="curve"/>
			<point x="593" y="-40" type="line"/>
			<point x="552" y="-61"/>
			<point x="494" y="-77"/>
			<point x="443" y="-77" type="curve" smooth="yes"/>
			<point x="292" y="-77"/>
			<point x="156" y="15"/>
			<point x="156" y="209" type="curve" smooth="yes"/>
			<point x="156" y="431"/>
			<point x="323" y="575"/>
			<point x="491" y="575" type="curve" smooth="yes"/>
			<point x="685" y="575"/>
			<point x="759" y="447"/>
			<point x="759" y="309" type="curve" smooth="yes"/>
			<point x="759" y="203"/>
			<point x="704" y="134"/>
			<point x="646" y="134" type="curve" smooth="yes"/>
			<point x="605" y="134"/>
			<point x="591" y="159"/>
			<point x="603" y="214" type="curve" smooth="yes"/>
			<point x="649" y="438" type="line"/>
			<point x="554" y="438" type="line"/>
			<point x="538" y="397" type="line"/>
			<point x="536" y="397" type="line"/>
			<point x="520" y="432"/>
			<point x="495" y="447"/>
			<point x="459" y="447" type="curve" smooth="yes"/>
			<point x="345" y="447"/>
			<point x="256" y="323"/>
			<point x="256" y="198" type="curve" smooth="yes"/>
			<point x="256" y="104"/>
			<point x="310" y="45"/>
			<point x="390" y="45" type="curve" smooth="yes"/>
			<point x="432" y="45"/>
			<point x="484" y="71"/>
			<point x="510" y="111" type="curve"/>
			<point x="513" y="111" type="line"/>
			<point x="524" y="63"/>
			<point x="571" y="35"/>
			<point x="630" y="35" type="curve" smooth="yes"/>
			<point x="737" y="35"/>
			<point x="861" y="128"/>
			<point x="861" y="313" type="curve" smooth="yes"/>
			<point x="861" y="523"/>
			<point x="722" y="672"/>
			<point x="503" y="672" type="curve" smooth="yes"/>
			<point x="254" y="672"/>
			<point x="47" y="486"/>
			<point x="47" y="205" type="curve" smooth="yes"/>
			<point x="47" y="-52"/>
			<point x="230" y="-174"/>
		</contour>
		<contour>
			<point x="424" y="144" type="curve" smooth="yes"/>
			<point x="394" y="144"/>
			<point x="375" y="166"/>
			<point x="375" y="207" type="curve" smooth="yes"/>
			<point x="375" y="265"/>
			<point x="410" y="345"/>
			<point x="466" y="345" type="curve" smooth="yes"/>
			<point x="486" y="345"/>
			<point x="501" y="335"/>
			<point x="511" y="318" type="curve"/>
			<point x="487" y="187" type="line"/>
			<point x="463" y="156"/>
			<point x="444" y="144"/>
		</contour>
	</outline>
</glyph>
<glyph name="A" format="2">
	<unicode hex="0041"/>
	<advance width="573"/>
	<outline>
		<contour>
			<point x="-6" y="0" type="line"/>
			<point x="144" y="0" type="line"/>
			<point x="230" y="330" type="line" smooth="yes"/>
			<point x="248" y="395"/>
			<point x="265" y="471"/>
			<point x="281" y="540" type="curve"/>
			<point x="285" y="540" type="line"/>
			<point x="302" y="472"/>
			<point x="320" y="395"/>
			<point x="338" y="330" type="curve" smooth="yes"/>
			<point x="423" y="0" type="line"/>
			<point x="579" y="0" type="line"/>
			<point x="375" y="652" type="line"/>
			<point x="198" y="652" type="line"/>
		</contour>
		<contour>
			<point x="128" y="155" type="line"/>
			<point x="442" y="155" type="line"/>
			<point x="442" y="270" type="line"/>
			<point x="128" y="270" type="line"/>
		</contour>
	</outline>
	<anchor name="aboveUC" x="285" y="674"/>
	<anchor name="belowLC" x="285" y="-22"/>
	<anchor name="ogonekUC" x="491" y="0"/>
</glyph>
<glyph name="B" format="2">
	<unicode hex="0042"/>
	<advance width="607"/>
	<outline>
		<contour>
			<point x="75" y="0" type="line"/>
			<point x="321" y="0" type="line" smooth="yes"/>
			<point x="462" y="0"/>
			<point x="576" y="59"/>
			<point x="576" y="192" type="curve" smooth="yes"/>
			<point x="576" y="279"/>
			<point x="525" y="327"/>
			<point x="459" y="345" type="curve"/>
			<point x="459" y="349" type="line"/>
			<point x="512" y="369"/>
			<point x="544" y="432"/>
			<point x="544" y="489" type="curve" smooth="yes"/>
			<point x="544" y="615"/>
			<point x="437" y="651"/>
			<point x="302" y="651" type="curve" smooth="yes"/>
			<point x="75" y="651" type="line"/>
		</contour>
		<contour>
			<point x="231" y="392" type="line"/>
			<point x="231" y="532" type="line"/>
			<point x="297" y="532" type="line" smooth="yes"/>
			<point x="361" y="532"/>
			<point x="392" y="513"/>
			<point x="392" y="466" type="curve" smooth="yes"/>
			<point x="392" y="421"/>
			<point x="363" y="392"/>
			<point x="296" y="392" type="curve" smooth="yes"/>
		</contour>
		<contour>
			<point x="231" y="119" type="line"/>
			<point x="231" y="278" type="line"/>
			<point x="309" y="278" type="line" smooth="yes"/>
			<point x="386" y="278"/>
			<point x="424" y="257"/>
			<point x="424" y="202" type="curve" smooth="yes"/>
			<point x="424" y="147"/>
			<point x="385" y="119"/>
			<point x="309" y="119" type="curve" smooth="yes"/>
		</contour>
	</outline>
	<anchor name="aboveUC" x="302" y="673"/>
	<anchor name="belowLC" x="317" y="-22"/>
</glyph>
<glyph name="C" format="2">
	<unicode hex="0043"/>
	<advance width="582"/>
	<outline>
		<contour>
			<point x="349" y="-12" type="curve" smooth="yes"/>
			<point x="432" y="-12"/>
			<point x="503" y="19"/>
			<point x="560" y="84" type="curve"/>
			<point x="482" y="171" type="line"/>
			<point x="450" y="137"/>
			<point x="408" y="115"/>
			<point x="355" y="115" type="curve" smooth="yes"/>
			<point x="259" y="115"/>
			<point x="197" y="193"/>
			<point x="197" y="327" type="curve" smooth="yes"/>
			<point x="197" y="458"/>
			<point x="268" y="537"/>
			<point x="357" y="537" type="curve" smooth="yes"/>
			<point x="404" y="537"/>
			<point x="439" y="520"/>
			<point x="472" y="490" type="curve"/>
			<point x="550" y="579" type="line"/>
			<point x="506" y="626"/>
			<point x="438" y="664"/>
			<point x="354" y="664" type="curve" smooth="yes"/>
			<point x="189" y="664"/>
			<point x="46" y="538"/>
			<point x="46" y="322" type="curve" smooth="yes"/>
			<point x="46" y="103"/>
			<point x="184" y="-12"/>
		</contour>
	</outline>
	<anchor name="aboveUC" x="343" y="674"/>
	<anchor name="baseLC" x="350" y="0"/>
	<anchor name="belowLC" x="350" y="-22"/>
</glyph>
<glyph name="D" format="2">
	<unicode hex="0044"/>
	<advance width="637"/>
	<outline>
		<contour>
			<point x="75" y="0" type="line"/>
			<point x="271" y="0" type="line" smooth="yes"/>
			<point x="461" y="0"/>
			<point x="592" y="103"/>
			<point x="592" y="328" type="curve" smooth="yes"/>
			<point x="592" y="554"/>
			<point x="461" y="651"/>
			<point x="262" y="651" type="curve" smooth="yes"/>
			<point x="75" y="651" type="line"/>
		</contour>
		<contour>
			<point x="231" y="125" type="line"/>
			<point x="231" y="526" type="line"/>
			<point x="253" y="526" type="line" smooth="yes"/>
			<point x="358" y="526"/>
			<point x="433" y="483"/>
			<point x="433" y="328" type="curve" smooth="yes"/>
			<point x="433" y="174"/>
			<point x="358" y="125"/>
			<point x="253" y="125" type="curve" smooth="yes"/>
		</contour>
	</outline>
	<anchor name="aboveUC" x="319" y="673"/>
	<anchor name="belowLC" x="314" y="-22"/>
</glyph>
<glyph name="E" format="2">
	<unicode hex="0045"/>
	<advance width="550"/>
	<outline>
		<contour>
			<point x="75" y="0" type="line"/>
			<point x="497" y="0" type="line"/>
			<point x="497" y="130" type="line"/>
			<point x="231" y="130" type="line"/>
			<point x="231" y="269" type="line"/>
			<point x="450" y="269" type="line"/>
			<point x="450" y="399" type="line"/>
			<point x="231" y="399" type="line"/>
			<point x="231" y="521" type="line"/>
			<point x="487" y="521" type="line"/>
			<point x="487" y="651" type="line"/>
			<point x="75" y="651" type="line"/>
		</contour>
	</outline>
	<anchor name="aboveUC" x="290" y="673"/>
	<anchor name="belowLC" x="295" y="-22"/>
	<anchor name="ogonekUC" x="406" y="0"/>
</glyph>
<glyph name="F" format="1">
	<unicode hex="0046"/>
	<advance width="524"/>
	<outline>
		<contour>
			<point x="77" y="0" type="line"/>
			<point x="224" y="0" type="line"/>
			<point x="224" y="253" type="line"/>
			<point x="450" y="253" type="line"/>
			<point x="450" y="377" type="line"/>
			<point x="224" y="377" type="line"/>
			<point x="224" y="528" type="line"/>
			<point x="488" y="528" type="line"/>
			<point x="488" y="652" type="line"/>
			<point x="77" y="652" type="line"/>
		</contour>
		<contour>
			<point name="aboveUC" x="289" y="674" type="move"/>
		</contour>
		<contour>
			<point name="belowLC" x="159" y="-22" type="move"/>
		</contour>
	</outline>
</glyph>
<glyph name="G" format="1">
	<unicode hex="0047"/>
	<advance width="638"/>
	<outline>
		<contour>
			<point x="365" y="-12" type="curve" smooth="yes"/>
			<point x="456" y="-12"/>
			<point x="535" y="23"/>
			<point x="580" y="67" type="curve"/>
			<point x="580" y="367" type="line"/>
			<point x="342" y="367" type="line"/>
			<point x="342" y="247" type="line"/>
			<point x="450" y="247" type="line"/>
			<point x="450" y="135" type="line"/>
			<point x="434" y="122"/>
			<point x="407" y="115"/>
			<point x="380" y="115" type="curve" smooth="yes"/>
			<point x="258" y="115"/>
			<point x="197" y="193"/>
			<point x="197" y="327" type="curve" smooth="yes"/>
			<point x="197" y="458"/>
			<point x="268" y="537"/>
			<point x="369" y="537" type="curve" smooth="yes"/>
			<point x="425" y="537"/>
			<point x="459" y="514"/>
			<point x="492" y="485" type="curve"/>
			<point x="569" y="579" type="line"/>
			<point x="526" y="623"/>
			<point x="458" y="664"/>
			<point x="364" y="664" type="curve" smooth="yes"/>
			<point x="190" y="664"/>
			<point x="46" y="538"/>
			<point x="46" y="322" type="curve" smooth="yes"/>
			<point x="46" y="103"/>
			<point x="186" y="-12"/>
		</contour>
		<contour>
			<point name="aboveUC" x="365" y="674" type="move"/>
		</contour>
		<contour>
			<point name="belowLC" x="365" y="-22" type="move"/>
		</contour>
	</outline>
</glyph>
<glyph name="H" format="1">
	<unicode hex="0048"/>
	<advance width="674"/>
	<outline>
		<contour>
			<point x="77" y="0" type="line"/>
			<point x="224" y="0" type="line"/>
			<point x="224" y="272" type="line"/>
			<point x="449" y="272" type="line"/>
			<point x="449" y="0" type="line"/>
			<point x="597" y="0" type="line"/>
			<point x="597" y="652" type="line"/>
			<point x="449" y="652" type="line"/>
			<point x="449" y="401" type="line"/>
			<point x="224" y="401" type="line"/>
			<point x="224" y="652" type="line"/>
			<point x="77" y="652" type="line"/>
		</contour>
		<contour>
			<point name="aboveUC" x="336" y="674" type="move"/>
		</contour>
		<contour>
			<point name="belowLC" x="336" y="-22" type="move"/>
		</contour>
	</outline>
</glyph>
<glyph name="I" format="2">
	<unicode hex="0049"/>
	<advance width="306"/>
	<outline>
		<contour>
			<point x="75" y="0" type="line"/>
			<point x="231" y="0" type="line"/>
			<point x="231" y="651" type="line"/>
			<point x="75" y="651" type="line"/>
		</contour>
	</outline>
	<anchor name="aboveUC" x="155" y="673"/>
	<anchor name="belowLC" x="155" y="-22"/>
	<anchor name="ogonekUC" x="154" y="0"/>
</glyph>
<glyph name="J" format="2">
	<unicode hex="004A"/>
	<advance width="512"/>
	<outline>
		<contour>
			<point x="218" y="-12" type="curve" smooth="yes"/>
			<point x="371" y="-12"/>
			<point x="441" y="95"/>
			<point x="441" y="225" type="curve" smooth="yes"/>
			<point x="441" y="651" type="line"/>
			<point x="286" y="651" type="line"/>
			<point x="286" y="238" type="line" smooth="yes"/>
			<point x="286" y="149"/>
			<point x="258" y="122"/>
			<point x="202" y="122" type="curve" smooth="yes"/>
			<point x="167" y="122"/>
			<point x="134" y="142"/>
			<point x="116" y="177" type="curve"/>
			<point x="18" y="110" type="line"/>
			<point x="60" y="26"/>
			<point x="125" y="-12"/>
		</contour>
	</outline>
	<anchor name="aboveUC" x="357" y="673"/>
	<anchor name="belowLC" x="266" y="-22"/>
</glyph>
<glyph name="K" format="2">
	<unicode hex="004B"/>
	<advance width="619"/>
	<outline>
		<contour>
			<point x="75" y="0" type="line"/>
			<point x="231" y="0" type="line"/>
			<point x="231" y="171" type="line"/>
			<point x="302" y="267" type="line"/>
			<point x="456" y="0" type="line"/>
			<point x="626" y="0" type="line"/>
			<point x="393" y="390" type="line"/>
			<point x="589" y="651" type="line"/>
			<point x="419" y="651" type="line"/>
			<point x="234" y="393" type="line"/>
			<point x="231" y="393" type="line"/>
			<point x="231" y="651" type="line"/>
			<point x="75" y="651" type="line"/>
		</contour>
	</outline>
	<anchor name="aboveUC" x="320" y="673"/>
	<anchor name="belowLC" x="333" y="-22"/>
</glyph>
<glyph name="L" format="2">
	<unicode hex="004C"/>
	<advance width="522"/>
	<outline>
		<contour>
			<point x="75" y="0" type="line"/>
			<point x="484" y="0" type="line"/>
			<point x="484" y="130" type="line"/>
			<point x="231" y="130" type="line"/>
			<point x="231" y="651" type="line"/>
			<point x="75" y="651" type="line"/>
		</contour>
	</outline>
	<anchor name="aboveUC" x="155" y="673"/>
	<anchor name="belowLC" x="290" y="-22"/>
</glyph>
<glyph name="M" format="2">
	<unicode hex="004D"/>
	<advance width="762"/>
	<outline>
		<contour>
			<point x="77" y="0" type="line"/>
			<point x="209" y="0" type="line"/>
			<point x="209" y="239" type="line" smooth="yes"/>
			<point x="209" y="303"/>
			<point x="197" y="413"/>
			<point x="190" y="477" type="curve"/>
			<point x="194" y="477" type="line"/>
			<point x="246" y="306" type="line"/>
			<point x="339" y="57" type="line"/>
			<point x="420" y="57" type="line"/>
			<point x="513" y="306" type="line"/>
			<point x="566" y="477" type="line"/>
			<point x="570" y="477" type="line"/>
			<point x="563" y="413"/>
			<point x="551" y="303"/>
			<point x="551" y="239" type="curve" smooth="yes"/>
			<point x="551" y="0" type="line"/>
			<point x="685" y="0" type="line"/>
			<point x="685" y="652" type="line"/>
			<point x="525" y="652" type="line"/>
			<point x="422" y="362" type="line"/>
			<point x="409" y="324"/>
			<point x="398" y="282"/>
			<point x="385" y="242" type="curve"/>
			<point x="381" y="242" type="line"/>
			<point x="368" y="282"/>
			<point x="356" y="324"/>
			<point x="343" y="362" type="curve"/>
			<point x="238" y="652" type="line"/>
			<point x="77" y="652" type="line"/>
		</contour>
	</outline>
	<anchor name="aboveUC" x="381" y="674"/>
	<anchor name="belowLC" x="383" y="-22"/>
</glyph>
<glyph name="N" format="2">
	<unicode hex="004E"/>
	<advance width="665"/>
	<outline>
		<contour>
			<point x="77" y="0" type="line"/>
			<point x="217" y="0" type="line"/>
			<point x="217" y="231" type="line" smooth="yes"/>
			<point x="217" y="308"/>
			<point x="205" y="395"/>
			<point x="199" y="467" type="curve"/>
			<point x="203" y="467" type="line"/>
			<point x="223" y="419"/>
			<point x="244" y="368"/>
			<point x="267" y="324" type="curve" smooth="yes"/>
			<point x="437" y="0" type="line"/>
			<point x="588" y="0" type="line"/>
			<point x="588" y="652" type="line"/>
			<point x="448" y="652" type="line"/>
			<point x="448" y="422" type="line" smooth="yes"/>
			<point x="448" y="345"/>
			<point x="460" y="253"/>
			<point x="466" y="184" type="curve"/>
			<point x="462" y="184" type="line"/>
			<point x="442" y="233"/>
			<point x="421" y="284"/>
			<point x="398" y="328" type="curve" smooth="yes"/>
			<point x="228" y="652" type="line"/>
			<point x="77" y="652" type="line"/>
		</contour>
	</outline>
	<anchor name="aboveUC" x="338" y="674"/>
	<anchor name="belowLC" x="345" y="-22"/>
</glyph>
<glyph name="O" format="1">
	<unicode hex="004F"/>
	<advance width="684"/>
	<outline>
		<contour>
			<point x="342" y="-12" type="curve" smooth="yes"/>
			<point x="518" y="-12"/>
			<point x="638" y="116"/>
			<point x="638" y="329" type="curve" smooth="yes"/>
			<point x="638" y="541"/>
			<point x="518" y="664"/>
			<point x="342" y="664" type="curve" smooth="yes"/>
			<point x="166" y="664"/>
			<point x="46" y="542"/>
			<point x="46" y="329" type="curve" smooth="yes"/>
			<point x="46" y="116"/>
			<point x="166" y="-12"/>
		</contour>
		<contour>
			<point x="342" y="115" type="curve" smooth="yes"/>
			<point x="253" y="115"/>
			<point x="197" y="198"/>
			<point x="197" y="329" type="curve" smooth="yes"/>
			<point x="197" y="459"/>
			<point x="253" y="537"/>
			<point x="342" y="537" type="curve" smooth="yes"/>
			<point x="431" y="537"/>
			<point x="487" y="459"/>
			<point x="487" y="329" type="curve" smooth="yes"/>
			<point x="487" y="198"/>
			<point x="431" y="115"/>
		</contour>
		<contour>
			<point name="aboveUC" x="342" y="674" type="move"/>
		</contour>
		<contour>
			<point name="belowLC" x="342" y="-22" type="move"/>
		</contour>
		<contour>
			<point name="ogonekUC" x="342" y="0" type="move"/>
		</contour>
		<contour>
			<point name="hornLC" x="484" y="642" type="move"/>
		</contour>
	</outline>
</glyph>
<glyph name="P" format="2">
	<unicode hex="0050"/>
	<advance width="600"/>
	<outline>
		<contour>
			<point x="75" y="0" type="line"/>
			<point x="231" y="0" type="line"/>
			<point x="231" y="216" type="line"/>
			<point x="308" y="216" type="line" smooth="yes"/>
			<point x="445" y="216"/>
			<point x="564" y="284"/>
			<point x="564" y="440" type="curve" smooth="yes"/>
			<point x="564" y="600"/>
			<point x="447" y="651"/>
			<point x="304" y="651" type="curve" smooth="yes"/>
			<point x="75" y="651" type="line"/>
		</contour>
		<contour>
			<point x="231" y="339" type="line"/>
			<point x="231" y="528" type="line"/>
			<point x="295" y="528" type="line" smooth="yes"/>
			<point x="371" y="528"/>
			<point x="412" y="505"/>
			<point x="412" y="440" type="curve" smooth="yes"/>
			<point x="412" y="375"/>
			<point x="376" y="339"/>
			<point x="299" y="339" type="curve" smooth="yes"/>
		</contour>
	</outline>
	<anchor name="aboveUC" x="318" y="673"/>
	<anchor name="belowLC" x="164" y="-22"/>
</glyph>
<glyph name="Q" format="2">
	<unicode hex="0051"/>
	<advance width="687"/>
	<outline>
		<contour>
			<point x="343" y="-12" type="curve" smooth="yes"/>
			<point x="520" y="-12"/>
			<point x="641" y="115"/>
			<point x="641" y="328" type="curve" smooth="yes"/>
			<point x="641" y="541"/>
			<point x="520" y="663"/>
			<point x="343" y="663" type="curve" smooth="yes"/>
			<point x="166" y="663"/>
			<point x="45" y="542"/>
			<point x="45" y="328" type="curve" smooth="yes"/>
			<point x="45" y="115"/>
			<point x="166" y="-12"/>
		</contour>
		<contour>
			<point x="343" y="115" type="curve" smooth="yes"/>
			<point x="258" y="115"/>
			<point x="204" y="193"/>
			<point x="204" y="328" type="curve" smooth="yes"/>
			<point x="204" y="455"/>
			<point x="258" y="529"/>
			<point x="343" y="529" type="curve" smooth="yes"/>
			<point x="429" y="529"/>
			<point x="482" y="455"/>
			<point x="482" y="328" type="curve" smooth="yes"/>
			<point x="482" y="193"/>
			<point x="429" y="115"/>
		</contour>
		<contour>
			<point x="560" y="-184" type="curve" smooth="yes"/>
			<point x="612" y="-184"/>
			<point x="653" y="-174"/>
			<point x="678" y="-161" type="curve"/>
			<point x="651" y="-50" type="line"/>
			<point x="631" y="-56"/>
			<point x="606" y="-60"/>
			<point x="578" y="-60" type="curve" smooth="yes"/>
			<point x="517" y="-60"/>
			<point x="450" y="-39"/>
			<point x="426" y="21" type="curve"/>
			<point x="268" y="5" type="line"/>
			<point x="314" y="-104"/>
			<point x="414" y="-184"/>
		</contour>
	</outline>
	<anchor name="aboveUC" x="343" y="673"/>
</glyph>
<glyph name="R" format="2">
	<unicode hex="0052"/>
	<advance width="618"/>
	<outline>
		<contour>
			<point x="75" y="0" type="line"/>
			<point x="231" y="0" type="line"/>
			<point x="231" y="229" type="line"/>
			<point x="314" y="229" type="line" smooth="yes"/>
			<point x="452" y="229"/>
			<point x="568" y="294"/>
			<point x="568" y="446" type="curve" smooth="yes"/>
			<point x="568" y="603"/>
			<point x="452" y="651"/>
			<point x="314" y="651" type="curve" smooth="yes"/>
			<point x="75" y="651" type="line"/>
		</contour>
		<contour>
			<point x="231" y="352" type="line"/>
			<point x="231" y="528" type="line"/>
			<point x="302" y="528" type="line" smooth="yes"/>
			<point x="376" y="528"/>
			<point x="416" y="508"/>
			<point x="416" y="446" type="curve" smooth="yes"/>
			<point x="416" y="384"/>
			<point x="376" y="352"/>
			<point x="302" y="352" type="curve" smooth="yes"/>
		</contour>
		<contour>
			<point x="427" y="0" type="line"/>
			<point x="601" y="0" type="line"/>
			<point x="392" y="371" type="line"/>
			<point x="285" y="270" type="line"/>
		</contour>
	</outline>
	<anchor name="aboveUC" x="312" y="673"/>
	<anchor name="belowLC" x="329" y="-22"/>
</glyph>
<glyph name="S" format="2">
	<unicode hex="0053"/>
	<advance width="556"/>
	<outline>
		<contour>
			<point x="276" y="-12" type="curve" smooth="yes"/>
			<point x="432" y="-12"/>
			<point x="522" y="82"/>
			<point x="522" y="190" type="curve" smooth="yes"/>
			<point x="522" y="282"/>
			<point x="472" y="335"/>
			<point x="393" y="367" type="curve" smooth="yes"/>
			<point x="309" y="401" type="line" smooth="yes"/>
			<point x="253" y="424"/>
			<point x="210" y="438"/>
			<point x="210" y="478" type="curve" smooth="yes"/>
			<point x="210" y="515"/>
			<point x="242" y="537"/>
			<point x="293" y="537" type="curve" smooth="yes"/>
			<point x="336" y="537"/>
			<point x="382" y="518"/>
			<point x="425" y="486" type="curve"/>
			<point x="503" y="582" type="line"/>
			<point x="447" y="634"/>
			<point x="371" y="664"/>
			<point x="293" y="664" type="curve" smooth="yes"/>
			<point x="157" y="664"/>
			<point x="61" y="578"/>
			<point x="61" y="470" type="curve" smooth="yes"/>
			<point x="61" y="375"/>
			<point x="125" y="319"/>
			<point x="192" y="292" type="curve" smooth="yes"/>
			<point x="277" y="256" type="line" smooth="yes"/>
			<point x="334" y="232"/>
			<point x="371" y="219"/>
			<point x="371" y="178" type="curve" smooth="yes"/>
			<point x="371" y="139"/>
			<point x="341" y="115"/>
			<point x="280" y="115" type="curve" smooth="yes"/>
			<point x="223" y="115"/>
			<point x="159" y="138"/>
			<point x="113" y="179" type="curve"/>
			<point x="35" y="83" type="line"/>
			<point x="101" y="18"/>
			<point x="188" y="-12"/>
		</contour>
	</outline>
	<anchor name="aboveUC" x="294" y="674"/>
	<anchor name="baseLC" x="280" y="0"/>
	<anchor name="belowLC" x="280" y="-22"/>
</glyph>
<glyph name="T" format="2">
	<unicode hex="0054"/>
	<advance width="559"/>
	<outline>
		<contour>
			<point x="202" y="0" type="line"/>
			<point x="357" y="0" type="line"/>
			<point x="357" y="521" type="line"/>
			<point x="534" y="521" type="line"/>
			<point x="534" y="651" type="line"/>
			<point x="25" y="651" type="line"/>
			<point x="25" y="521" type="line"/>
			<point x="202" y="521" type="line"/>
		</contour>
	</outline>
	<anchor name="aboveUC" x="278" y="673"/>
	<anchor name="baseLC" x="278" y="0"/>
	<anchor name="belowLC" x="278" y="-22"/>
</glyph>
<glyph name="U" format="1">
	<unicode hex="0055"/>
	<advance width="665"/>
	<outline>
		<contour>
			<point x="334" y="-12" type="curve" smooth="yes"/>
			<point x="502" y="-12"/>
			<point x="591" y="83"/>
			<point x="591" y="302" type="curve" smooth="yes"/>
			<point x="591" y="652" type="line"/>
			<point x="449" y="652" type="line"/>
			<point x="449" y="287" type="line" smooth="yes"/>
			<point x="449" y="159"/>
			<point x="407" y="115"/>
			<point x="334" y="115" type="curve" smooth="yes"/>
			<point x="261" y="115"/>
			<point x="221" y="159"/>
			<point x="221" y="287" type="curve" smooth="yes"/>
			<point x="221" y="652" type="line"/>
			<point x="73" y="652" type="line"/>
			<point x="73" y="302" type="line" smooth="yes"/>
			<point x="73" y="83"/>
			<point x="165" y="-12"/>
		</contour>
		<contour>
			<point name="aboveUC" x="332" y="674" type="move"/>
		</contour>
		<contour>
			<point name="belowLC" x="332" y="-22" type="move"/>
		</contour>
		<contour>
			<point name="ogonekUC" x="332" y="0" type="move"/>
		</contour>
		<contour>
			<point name="hornLC" x="545" y="662" type="move"/>
		</contour>
	</outline>
</glyph>
<glyph name="V" format="2">
	<unicode hex="0056"/>
	<advance width="561"/>
	<outline>
		<contour>
			<point x="187" y="0" type="line"/>
			<point x="374" y="0" type="line"/>
			<point x="569" y="651" type="line"/>
			<point x="411" y="651" type="line"/>
			<point x="337" y="354" type="line" smooth="yes"/>
			<point x="319" y="283"/>
			<point x="305" y="217"/>
			<point x="286" y="146" type="curve"/>
			<point x="282" y="146" type="line"/>
			<point x="263" y="217"/>
			<point x="250" y="283"/>
			<point x="231" y="354" type="curve" smooth="yes"/>
			<point x="156" y="651" type="line"/>
			<point x="-8" y="651" type="line"/>
		</contour>
	</outline>
	<anchor name="aboveUC" x="280" y="673"/>
	<anchor name="belowLC" x="277" y="-22"/>
</glyph>
<glyph name="W" format="2">
	<unicode hex="0057"/>
	<advance width="816"/>
	<outline>
		<contour>
			<point x="132" y="0" type="line"/>
			<point x="325" y="0" type="line"/>
			<point x="382" y="285" type="line"/>
			<point x="392" y="336"/>
			<point x="399" y="387"/>
			<point x="406" y="439" type="curve"/>
			<point x="410" y="439" type="line"/>
			<point x="417" y="387"/>
			<point x="424" y="336"/>
			<point x="434" y="285" type="curve"/>
			<point x="493" y="0" type="line"/>
			<point x="690" y="0" type="line"/>
			<point x="804" y="651" type="line"/>
			<point x="656" y="651" type="line"/>
			<point x="613" y="353" type="line"/>
			<point x="605" y="286"/>
			<point x="597" y="217"/>
			<point x="589" y="145" type="curve"/>
			<point x="585" y="145" type="line"/>
			<point x="573" y="217"/>
			<point x="561" y="287"/>
			<point x="548" y="353" type="curve"/>
			<point x="480" y="651" type="line"/>
			<point x="346" y="651" type="line"/>
			<point x="279" y="353" type="line"/>
			<point x="266" y="285"/>
			<point x="254" y="216"/>
			<point x="242" y="145" type="curve"/>
			<point x="238" y="145" type="line"/>
			<point x="230" y="216"/>
			<point x="222" y="284"/>
			<point x="214" y="353" type="curve"/>
			<point x="171" y="651" type="line"/>
			<point x="13" y="651" type="line"/>
		</contour>
	</outline>
	<anchor name="aboveUC" x="408" y="673"/>
	<anchor name="belowLC" x="411" y="-22"/>
</glyph>
<glyph name="X" format="2">
	<unicode hex="0058"/>
	<advance width="574"/>
	<outline>
		<contour>
			<point x="11" y="0" type="line"/>
			<point x="177" y="0" type="line"/>
			<point x="234" y="128" type="line" smooth="yes"/>
			<point x="248" y="161"/>
			<point x="263" y="195"/>
			<point x="278" y="235" type="curve"/>
			<point x="282" y="235" type="line"/>
			<point x="298" y="195"/>
			<point x="313" y="161"/>
			<point x="329" y="128" type="curve" smooth="yes"/>
			<point x="390" y="0" type="line"/>
			<point x="563" y="0" type="line"/>
			<point x="384" y="328" type="line"/>
			<point x="552" y="651" type="line"/>
			<point x="387" y="651" type="line"/>
			<point x="339" y="533" type="line" smooth="yes"/>
			<point x="327" y="503"/>
			<point x="313" y="469"/>
			<point x="298" y="428" type="curve"/>
			<point x="294" y="428" type="line"/>
			<point x="276" y="469"/>
			<point x="262" y="503"/>
			<point x="247" y="533" type="curve" smooth="yes"/>
			<point x="194" y="651" type="line"/>
			<point x="21" y="651" type="line"/>
			<point x="190" y="335" type="line"/>
		</contour>
	</outline>
	<anchor name="aboveUC" x="287" y="673"/>
	<anchor name="belowLC" x="276" y="-22"/>
</glyph>
<glyph name="Y" format="2">
	<unicode hex="0059"/>
	<advance width="531"/>
	<outline>
		<contour>
			<point x="188" y="0" type="line"/>
			<point x="343" y="0" type="line"/>
			<point x="343" y="230" type="line"/>
			<point x="539" y="651" type="line"/>
			<point x="377" y="651" type="line"/>
			<point x="322" y="506" type="line"/>
			<point x="305" y="457"/>
			<point x="286" y="412"/>
			<point x="268" y="361" type="curve"/>
			<point x="264" y="361" type="line"/>
			<point x="246" y="412"/>
			<point x="230" y="457"/>
			<point x="213" y="506" type="curve"/>
			<point x="158" y="651" type="line"/>
			<point x="-8" y="651" type="line"/>
			<point x="188" y="230" type="line"/>
		</contour>
	</outline>
	<anchor name="aboveUC" x="266" y="673"/>
	<anchor name="belowLC" x="268" y="-22"/>
</glyph>
<glyph name="Z" format="2">
	<unicode hex="005A"/>
	<advance width="542"/>
	<outline>
		<contour>
			<point x="34" y="0" type="line"/>
			<point x="509" y="0" type="line"/>
			<point x="509" y="130" type="line"/>
			<point x="226" y="130" type="line"/>
			<point x="507" y="558" type="line"/>
			<point x="507" y="651" type="line"/>
			<point x="61" y="651" type="line"/>
			<point x="61" y="521" type="line"/>
			<point x="316" y="521" type="line"/>
			<point x="34" y="94" type="line"/>
		</contour>
	</outline>
	<anchor name="aboveUC" x="283" y="673"/>
	<anchor name="belowLC" x="282" y="-22"/>
</glyph>
<glyph name="bracketleft" format="2">
	<unicode hex="005B"/>
	<advance width="349"/>
	<outline>
		<contour>
			<point x="86" y="-152" type="line"/>
			<point x="301" y="-152" type="line"/>
			<point x="301" y="-70" type="line"/>
			<point x="201" y="-70" type="line"/>
			<point x="201" y="626" type="line"/>
			<point x="301" y="626" type="line"/>
			<point x="301" y="708" type="line"/>
			<point x="86" y="708" type="line"/>
		</contour>
	</outline>
</glyph>
<glyph name="backslash" format="1">
	<unicode hex="005C"/>
	<advance width="339"/>
	<outline>
		<contour>
			<point x="230" y="-160" type="line"/>
			<point x="326" y="-160" type="line"/>
			<point x="124" y="710" type="line"/>
			<point x="28" y="710" type="line"/>
		</contour>
	</outline>
</glyph>
<glyph name="bracketright" format="2">
	<unicode hex="005D"/>
	<advance width="349"/>
	<outline>
		<contour>
			<point x="48" y="-152" type="line"/>
			<point x="263" y="-152" type="line"/>
			<point x="263" y="708" type="line"/>
			<point x="48" y="708" type="line"/>
			<point x="48" y="626" type="line"/>
			<point x="148" y="626" type="line"/>
			<point x="148" y="-70" type="line"/>
			<point x="48" y="-70" type="line"/>
		</contour>
	</outline>
</glyph>
<glyph name="asciicircum" format="2">
	<unicode hex="005E"/>
	<advance width="532"/>
	<outline>
		<contour>
			<point x="49" y="273" type="line"/>
			<point x="176" y="273" type="line"/>
			<point x="219" y="395" type="line"/>
			<point x="264" y="531" type="line"/>
			<point x="268" y="531" type="line"/>
			<point x="313" y="395" type="line"/>
			<point x="356" y="273" type="line"/>
			<point x="483" y="273" type="line"/>
			<point x="328" y="670" type="line"/>
			<point x="204" y="670" type="line"/>
		</contour>
	</outline>
</glyph>
<glyph name="a" format="2">
	<unicode hex="0061"/>
	<advance width="530"/>
	<outline>
		<contour>
			<point x="189" y="-12" type="curve" smooth="yes"/>
			<point x="245" y="-12"/>
			<point x="290" y="13"/>
			<point x="331" y="50" type="curve"/>
			<point x="335" y="50" type="line"/>
			<point x="346" y="0" type="line"/>
			<point x="472" y="0" type="line"/>
			<point x="472" y="282" type="line" smooth="yes"/>
			<point x="472" y="438"/>
			<point x="400" y="509"/>
			<point x="272" y="509" type="curve" smooth="yes"/>
			<point x="194" y="509"/>
			<point x="123" y="484"/>
			<point x="58" y="444" type="curve"/>
			<point x="112" y="344" type="line"/>
			<point x="162" y="372"/>
			<point x="202" y="386"/>
			<point x="242" y="386" type="curve" smooth="yes"/>
			<point x="293" y="386"/>
			<point x="314" y="362"/>
			<point x="318" y="321" type="curve"/>
			<point x="122" y="301"/>
			<point x="41" y="244"/>
			<point x="41" y="139" type="curve" smooth="yes"/>
			<point x="41" y="56"/>
			<point x="98" y="-12"/>
		</contour>
		<contour>
			<point x="242" y="108" type="curve" smooth="yes"/>
			<point x="208" y="108"/>
			<point x="189" y="122"/>
			<point x="189" y="151" type="curve" smooth="yes"/>
			<point x="189" y="186"/>
			<point x="219" y="213"/>
			<point x="318" y="226" type="curve"/>
			<point x="318" y="147" type="line"/>
			<point x="294" y="123"/>
			<point x="273" y="108"/>
		</contour>
	</outline>
	<anchor name="aboveLC" x="277" y="519"/>
	<anchor name="belowLC" x="257" y="-22"/>
	<anchor name="ogonekLC" x="377" y="0"/>
</glyph>
<glyph name="b" format="2">
	<unicode hex="0062"/>
	<advance width="575"/>
	<outline>
		<contour>
			<point x="329" y="-12" type="curve" smooth="yes"/>
			<point x="436" y="-12"/>
			<point x="537" y="86"/>
			<point x="537" y="257" type="curve" smooth="yes"/>
			<point x="537" y="410"/>
			<point x="462" y="509"/>
			<point x="342" y="509" type="curve" smooth="yes"/>
			<point x="296" y="509"/>
			<point x="251" y="489"/>
			<point x="214" y="456" type="curve"/>
			<point x="217" y="531" type="line"/>
			<point x="217" y="699" type="line"/>
			<point x="63" y="699" type="line"/>
			<point x="63" y="0" type="line"/>
			<point x="184" y="0" type="line"/>
			<point x="196" y="53" type="line"/>
			<point x="200" y="53" type="line"/>
			<point x="239" y="10"/>
			<point x="284" y="-12"/>
		</contour>
		<contour>
			<point x="292" y="115" type="curve" smooth="yes"/>
			<point x="268" y="115"/>
			<point x="242" y="122"/>
			<point x="217" y="144" type="curve"/>
			<point x="217" y="341" type="line"/>
			<point x="244" y="370"/>
			<point x="268" y="383"/>
			<point x="297" y="383" type="curve" smooth="yes"/>
			<point x="352" y="383"/>
			<point x="378" y="342"/>
			<point x="378" y="255" type="curve" smooth="yes"/>
			<point x="378" y="154"/>
			<point x="340" y="115"/>
		</contour>
	</outline>
	<anchor name="aboveUC" x="315" y="721"/>
	<anchor name="belowLC" x="291" y="-22"/>
</glyph>
<glyph name="c" format="2">
	<unicode hex="0063"/>
	<advance width="469"/>
	<outline>
		<contour>
			<point x="282" y="-12" type="curve" smooth="yes"/>
			<point x="335" y="-12"/>
			<point x="398" y="3"/>
			<point x="446" y="47" type="curve"/>
			<point x="386" y="144" type="line"/>
			<point x="361" y="125"/>
			<point x="333" y="113"/>
			<point x="300" y="113" type="curve" smooth="yes"/>
			<point x="239" y="113"/>
			<point x="193" y="166"/>
			<point x="193" y="249" type="curve" smooth="yes"/>
			<point x="193" y="331"/>
			<point x="236" y="385"/>
			<point x="305" y="385" type="curve" smooth="yes"/>
			<point x="327" y="385"/>
			<point x="346" y="378"/>
			<point x="369" y="361" type="curve"/>
			<point x="441" y="456" type="line"/>
			<point x="404" y="488"/>
			<point x="357" y="509"/>
			<point x="296" y="509" type="curve" smooth="yes"/>
			<point x="158" y="509"/>
			<point x="35" y="414"/>
			<point x="35" y="249" type="curve" smooth="yes"/>
			<point x="35" y="84"/>
			<point x="142" y="-12"/>
		</contour>
	</outline>
	<anchor name="aboveLC" x="279" y="520"/>
	<anchor name="baseLC" x="261" y="0"/>
	<anchor name="belowLC" x="261" y="-22"/>
</glyph>
<glyph name="d" format="2">
	<unicode hex="0064"/>
	<advance width="573"/>
	<outline>
		<contour>
			<point x="242" y="-12" type="curve" smooth="yes"/>
			<point x="290" y="-12"/>
			<point x="339" y="14"/>
			<point x="374" y="49" type="curve"/>
			<point x="378" y="49" type="line"/>
			<point x="388" y="0" type="line"/>
			<point x="508" y="0" type="line"/>
			<point x="508" y="701" type="line"/>
			<point x="361" y="701" type="line"/>
			<point x="361" y="532" type="line"/>
			<point x="367" y="456" type="line"/>
			<point x="333" y="488"/>
			<point x="300" y="508"/>
			<point x="245" y="508" type="curve" smooth="yes"/>
			<point x="140" y="508"/>
			<point x="39" y="410"/>
			<point x="39" y="248" type="curve" smooth="yes"/>
			<point x="39" y="86"/>
			<point x="119" y="-12"/>
		</contour>
		<contour>
			<point x="280" y="108" type="curve" smooth="yes"/>
			<point x="223" y="108"/>
			<point x="190" y="152"/>
			<point x="190" y="250" type="curve" smooth="yes"/>
			<point x="190" y="344"/>
			<point x="232" y="388"/>
			<point x="279" y="388" type="curve" smooth="yes"/>
			<point x="306" y="388"/>
			<point x="335" y="380"/>
			<point x="361" y="356" type="curve"/>
			<point x="361" y="153" type="line"/>
			<point x="337" y="120"/>
			<point x="312" y="108"/>
		</contour>
	</outline>
	<anchor name="aboveUC" x="276" y="724"/>
	<anchor name="belowLC" x="278" y="-22"/>
</glyph>
<glyph name="e" format="2">
	<unicode hex="0065"/>
	<advance width="518"/>
	<outline>
		<contour>
			<point x="287" y="-12" type="curve" smooth="yes"/>
			<point x="346" y="-12"/>
			<point x="412" y="8"/>
			<point x="463" y="44" type="curve"/>
			<point x="416" y="132" type="line"/>
			<point x="380" y="111"/>
			<point x="344" y="100"/>
			<point x="307" y="100" type="curve" smooth="yes"/>
			<point x="240" y="100"/>
			<point x="175" y="134"/>
			<point x="172" y="248" type="curve" smooth="yes"/>
			<point x="168" y="358"/>
			<point x="224" y="396"/>
			<point x="273" y="396" type="curve" smooth="yes"/>
			<point x="332" y="396"/>
			<point x="356" y="357"/>
			<point x="356" y="302" type="curve"/>
			<point x="149" y="302" type="line"/>
			<point x="151" y="205" type="line"/>
			<point x="475" y="205" type="line"/>
			<point x="478" y="217"/>
			<point x="481" y="244"/>
			<point x="481" y="270" type="curve" smooth="yes"/>
			<point x="481" y="405"/>
			<point x="411" y="508"/>
			<point x="270" y="508" type="curve" smooth="yes"/>
			<point x="151" y="508"/>
			<point x="36" y="409"/>
			<point x="36" y="248" type="curve" smooth="yes"/>
			<point x="36" y="84"/>
			<point x="145" y="-12"/>
		</contour>
	</outline>
	<anchor name="aboveLC" x="268" y="518"/>
	<anchor name="baseLC" x="268" y="0"/>
	<anchor name="belowLC" x="268" y="-22"/>
	<anchor name="ogonekLC" x="356" y="0"/>
</glyph>
<glyph name="f" format="2">
	<unicode hex="0066"/>
	<advance width="341"/>
	<outline>
		<contour>
			<point x="90" y="0" type="line"/>
			<point x="237" y="0" type="line"/>
			<point x="237" y="526" type="line" smooth="yes"/>
			<point x="237" y="577"/>
			<point x="258" y="597"/>
			<point x="294" y="597" type="curve" smooth="yes"/>
			<point x="310" y="597"/>
			<point x="327" y="595"/>
			<point x="343" y="590" type="curve"/>
			<point x="372" y="695" type="line"/>
			<point x="350" y="703"/>
			<point x="314" y="713"/>
			<point x="273" y="713" type="curve" smooth="yes"/>
			<point x="139" y="713"/>
			<point x="90" y="627"/>
			<point x="90" y="522" type="curve" smooth="yes"/>
		</contour>
		<contour>
			<point x="17" y="381" type="line"/>
			<point x="326" y="381" type="line"/>
			<point x="326" y="496" type="line"/>
			<point x="100" y="496" type="line"/>
			<point x="17" y="490" type="line"/>
		</contour>
	</outline>
	<anchor name="aboveUC" x="241" y="724"/>
	<anchor name="belowLC" x="164" y="-22"/>
	<anchor name="center" x="171" y="224"/>
</glyph>
<glyph name="g" format="2">
	<unicode hex="0067"/>
	<advance width="538"/>
	<outline>
		<contour>
			<point x="241" y="-209" type="curve" smooth="yes"/>
			<point x="414" y="-209"/>
			<point x="523" y="-135"/>
			<point x="523" y="-30" type="curve" smooth="yes"/>
			<point x="523" y="60"/>
			<point x="454" y="97"/>
			<point x="331" y="97" type="curve" smooth="yes"/>
			<point x="252" y="97" type="line" smooth="yes"/>
			<point x="199" y="97"/>
			<point x="179" y="108"/>
			<point x="179" y="132" type="curve" smooth="yes"/>
			<point x="179" y="148"/>
			<point x="184" y="156"/>
			<point x="195" y="166" type="curve"/>
			<point x="217" y="160"/>
			<point x="237" y="157"/>
			<point x="254" y="157" type="curve" smooth="yes"/>
			<point x="364" y="157"/>
			<point x="452" y="208"/>
			<point x="452" y="324" type="curve" smooth="yes"/>
			<point x="452" y="348"/>
			<point x="445" y="371"/>
			<point x="437" y="385" type="curve"/>
			<point x="515" y="385" type="line"/>
			<point x="515" y="497" type="line"/>
			<point x="332" y="497" type="line"/>
			<point x="309" y="505"/>
			<point x="282" y="509"/>
			<point x="254" y="509" type="curve" smooth="yes"/>
			<point x="146" y="509"/>
			<point x="46" y="450"/>
			<point x="46" y="329" type="curve" smooth="yes"/>
			<point x="46" y="271"/>
			<point x="78" y="225"/>
			<point x="113" y="201" type="curve"/>
			<point x="113" y="197" type="line"/>
			<point x="81" y="174"/>
			<point x="58" y="138"/>
			<point x="58" y="103" type="curve" smooth="yes"/>
			<point x="58" y="62"/>
			<point x="77" y="36"/>
			<point x="103" y="18" type="curve"/>
			<point x="103" y="14" type="line"/>
			<point x="57" y="-10"/>
			<point x="33" y="-43"/>
			<point x="33" y="-84" type="curve" smooth="yes"/>
			<point x="33" y="-173"/>
			<point x="126" y="-209"/>
		</contour>
		<contour>
			<point x="254" y="250" type="curve" smooth="yes"/>
			<point x="218" y="250"/>
			<point x="191" y="277"/>
			<point x="191" y="329" type="curve" smooth="yes"/>
			<point x="191" y="380"/>
			<point x="217" y="406"/>
			<point x="254" y="406" type="curve" smooth="yes"/>
			<point x="291" y="406"/>
			<point x="317" y="380"/>
			<point x="317" y="329" type="curve" smooth="yes"/>
			<point x="317" y="277"/>
			<point x="291" y="250"/>
		</contour>
		<contour>
			<point x="266" y="-113" type="curve" smooth="yes"/>
			<point x="202" y="-113"/>
			<point x="160" y="-95"/>
			<point x="160" y="-59" type="curve" smooth="yes"/>
			<point x="160" y="-43"/>
			<point x="168" y="-29"/>
			<point x="184" y="-15" type="curve"/>
			<point x="199" y="-19"/>
			<point x="218" y="-21"/>
			<point x="254" y="-21" type="curve" smooth="yes"/>
			<point x="302" y="-21" type="line" smooth="yes"/>
			<point x="349" y="-21"/>
			<point x="375" y="-27"/>
			<point x="375" y="-57" type="curve" smooth="yes"/>
			<point x="375" y="-89"/>
			<point x="329" y="-113"/>
		</contour>
	</outline>
	<anchor name="aboveLC" x="273" y="520"/>
	<anchor name="belowLC" x="250" y="-202"/>
</glyph>
<glyph name="h" format="2">
	<unicode hex="0068"/>
	<advance width="575"/>
	<outline>
		<contour>
			<point x="63" y="0" type="line"/>
			<point x="217" y="0" type="line"/>
			<point x="217" y="333" type="line"/>
			<point x="248" y="361"/>
			<point x="269" y="378"/>
			<point x="304" y="378" type="curve" smooth="yes"/>
			<point x="344" y="378"/>
			<point x="362" y="357"/>
			<point x="362" y="288" type="curve" smooth="yes"/>
			<point x="362" y="0" type="line"/>
			<point x="517" y="0" type="line"/>
			<point x="517" y="308" type="line" smooth="yes"/>
			<point x="517" y="432"/>
			<point x="471" y="509"/>
			<point x="363" y="509" type="curve" smooth="yes"/>
			<point x="295" y="509"/>
			<point x="247" y="475"/>
			<point x="210" y="442" type="curve"/>
			<point x="217" y="531" type="line"/>
			<point x="217" y="699" type="line"/>
			<point x="63" y="699" type="line"/>
		</contour>
	</outline>
	<anchor name="aboveUC" x="315" y="721"/>
	<anchor name="belowLC" x="298" y="-22"/>
</glyph>
<glyph name="k" format="2">
	<unicode hex="006B"/>
	<advance width="554"/>
	<outline>
		<contour>
			<point x="63" y="0" type="line"/>
			<point x="216" y="0" type="line"/>
			<point x="216" y="123" type="line"/>
			<point x="273" y="189" type="line"/>
			<point x="381" y="0" type="line"/>
			<point x="549" y="0" type="line"/>
			<point x="364" y="290" type="line"/>
			<point x="537" y="497" type="line"/>
			<point x="367" y="497" type="line"/>
			<point x="219" y="309" type="line"/>
			<point x="216" y="309" type="line"/>
			<point x="216" y="699" type="line"/>
			<point x="63" y="699" type="line"/>
		</contour>
	</outline>
	<anchor name="aboveUC" x="314" y="721"/>
	<anchor name="belowLC" x="295" y="-22"/>
</glyph>
<glyph name="l" format="2">
	<unicode hex="006C"/>
	<advance width="290"/>
	<outline>
		<contour>
			<point x="204" y="-12" type="curve" smooth="yes"/>
			<point x="238" y="-12"/>
			<point x="264" y="-6"/>
			<point x="281" y="1" type="curve"/>
			<point x="263" y="115" type="line"/>
			<point x="255" y="113"/>
			<point x="251" y="113"/>
			<point x="245" y="113" type="curve" smooth="yes"/>
			<point x="233" y="113"/>
			<point x="217" y="123"/>
			<point x="217" y="155" type="curve" smooth="yes"/>
			<point x="217" y="699" type="line"/>
			<point x="63" y="699" type="line"/>
			<point x="63" y="161" type="line" smooth="yes"/>
			<point x="63" y="57"/>
			<point x="98" y="-12"/>
		</contour>
	</outline>
	<anchor name="aboveUC" x="145" y="721"/>
	<anchor name="belowLC" x="165" y="-22"/>
</glyph>
<glyph name="m" format="2">
	<unicode hex="006D"/>
	<advance width="861"/>
	<outline>
		<contour>
			<point x="63" y="0" type="line"/>
			<point x="217" y="0" type="line"/>
			<point x="217" y="333" type="line"/>
			<point x="247" y="363"/>
			<point x="274" y="378"/>
			<point x="297" y="378" type="curve" smooth="yes"/>
			<point x="337" y="378"/>
			<point x="355" y="357"/>
			<point x="355" y="288" type="curve" smooth="yes"/>
			<point x="355" y="0" type="line"/>
			<point x="510" y="0" type="line"/>
			<point x="510" y="333" type="line"/>
			<point x="540" y="363"/>
			<point x="566" y="378"/>
			<point x="590" y="378" type="curve" smooth="yes"/>
			<point x="629" y="378"/>
			<point x="648" y="357"/>
			<point x="648" y="288" type="curve" smooth="yes"/>
			<point x="648" y="0" type="line"/>
			<point x="802" y="0" type="line"/>
			<point x="802" y="308" type="line" smooth="yes"/>
			<point x="802" y="432"/>
			<point x="754" y="509"/>
			<point x="646" y="509" type="curve" smooth="yes"/>
			<point x="580" y="509"/>
			<point x="534" y="471"/>
			<point x="491" y="427" type="curve"/>
			<point x="466" y="480"/>
			<point x="423" y="509"/>
			<point x="354" y="509" type="curve" smooth="yes"/>
			<point x="288" y="509"/>
			<point x="244" y="475"/>
			<point x="204" y="435" type="curve"/>
			<point x="200" y="435" type="line"/>
			<point x="189" y="497" type="line"/>
			<point x="63" y="497" type="line"/>
		</contour>
	</outline>
	<anchor name="aboveLC" x="445" y="520"/>
	<anchor name="belowLC" x="436" y="-22"/>
</glyph>
<glyph name="n" format="2">
	<unicode hex="006E"/>
	<advance width="575"/>
	<outline>
		<contour>
			<point x="63" y="0" type="line"/>
			<point x="217" y="0" type="line"/>
			<point x="217" y="333" type="line"/>
			<point x="248" y="361"/>
			<point x="269" y="378"/>
			<point x="304" y="378" type="curve" smooth="yes"/>
			<point x="344" y="378"/>
			<point x="362" y="357"/>
			<point x="362" y="288" type="curve" smooth="yes"/>
			<point x="362" y="0" type="line"/>
			<point x="517" y="0" type="line"/>
			<point x="517" y="308" type="line" smooth="yes"/>
			<point x="517" y="432"/>
			<point x="471" y="509"/>
			<point x="363" y="509" type="curve" smooth="yes"/>
			<point x="295" y="509"/>
			<point x="245" y="475"/>
			<point x="204" y="435" type="curve"/>
			<point x="200" y="435" type="line"/>
			<point x="189" y="497" type="line"/>
			<point x="63" y="497" type="line"/>
		</contour>
	</outline>
	<anchor name="aboveLC" x="315" y="520"/>
	<anchor name="belowLC" x="288" y="-22"/>
</glyph>
<glyph name="o" format="1">
	<unicode hex="006F"/>
	<advance width="555"/>
	<outline>
		<contour>
			<point x="278" y="-12" type="curve" smooth="yes"/>
			<point x="403" y="-12"/>
			<point x="519" y="83"/>
			<point x="519" y="248" type="curve" smooth="yes"/>
			<point x="519" y="413"/>
			<point x="403" y="508"/>
			<point x="278" y="508" type="curve" smooth="yes"/>
			<point x="152" y="508"/>
			<point x="36" y="413"/>
			<point x="36" y="248" type="curve" smooth="yes"/>
			<point x="36" y="83"/>
			<point x="152" y="-12"/>
		</contour>
		<contour>
			<point x="278" y="107" type="curve" smooth="yes"/>
			<point x="217" y="107"/>
			<point x="187" y="162"/>
			<point x="187" y="248" type="curve" smooth="yes"/>
			<point x="187" y="334"/>
			<point x="217" y="389"/>
			<point x="278" y="389" type="curve" smooth="yes"/>
			<point x="338" y="389"/>
			<point x="369" y="334"/>
			<point x="369" y="248" type="curve" smooth="yes"/>
			<point x="369" y="162"/>
			<point x="338" y="107"/>
		</contour>
		<contour>
			<point name="aboveLC" x="278" y="518" type="move"/>
		</contour>
		<contour>
			<point name="belowLC" x="278" y="-22" type="move"/>
		</contour>
		<contour>
			<point name="hornLC" x="371" y="496" type="move"/>
		</contour>
		<contour>
			<point name="ogonekLC" x="278" y="0" type="move"/>
		</contour>
	</outline>
</glyph>
<glyph name="p" format="2">
	<unicode hex="0070"/>
	<advance width="575"/>
	<outline>
		<contour>
			<point x="63" y="-182" type="line"/>
			<point x="217" y="-182" type="line"/>
			<point x="217" y="-38" type="line"/>
			<point x="212" y="39" type="line"/>
			<point x="247" y="6"/>
			<point x="286" y="-12"/>
			<point x="329" y="-12" type="curve" smooth="yes"/>
			<point x="436" y="-12"/>
			<point x="537" y="86"/>
			<point x="537" y="257" type="curve" smooth="yes"/>
			<point x="537" y="410"/>
			<point x="463" y="509"/>
			<point x="343" y="509" type="curve" smooth="yes"/>
			<point x="292" y="509"/>
			<point x="242" y="484"/>
			<point x="204" y="449" type="curve"/>
			<point x="200" y="449" type="line"/>
			<point x="189" y="497" type="line"/>
			<point x="63" y="497" type="line"/>
		</contour>
		<contour>
			<point x="292" y="115" type="curve" smooth="yes"/>
			<point x="268" y="115"/>
			<point x="242" y="122"/>
			<point x="217" y="144" type="curve"/>
			<point x="217" y="341" type="line"/>
			<point x="244" y="370"/>
			<point x="268" y="383"/>
			<point x="297" y="383" type="curve" smooth="yes"/>
			<point x="352" y="383"/>
			<point x="378" y="342"/>
			<point x="378" y="255" type="curve" smooth="yes"/>
			<point x="378" y="154"/>
			<point x="340" y="115"/>
		</contour>
	</outline>
	<anchor name="aboveLC" x="315" y="520"/>
	<anchor name="belowLC" x="138" y="-183"/>
</glyph>
<glyph name="q" format="2">
	<unicode hex="0071"/>
	<advance width="575"/>
	<outline>
		<contour>
			<point x="358" y="-182" type="line"/>
			<point x="513" y="-182" type="line"/>
			<point x="513" y="497" type="line"/>
			<point x="392" y="497" type="line"/>
			<point x="379" y="448" type="line"/>
			<point x="375" y="448" type="line"/>
			<point x="336" y="491"/>
			<point x="297" y="509"/>
			<point x="243" y="509" type="curve" smooth="yes"/>
			<point x="140" y="509"/>
			<point x="38" y="411"/>
			<point x="38" y="249" type="curve" smooth="yes"/>
			<point x="38" y="87"/>
			<point x="118" y="-12"/>
			<point x="241" y="-12" type="curve" smooth="yes"/>
			<point x="285" y="-12"/>
			<point x="332" y="10"/>
			<point x="363" y="41" type="curve"/>
			<point x="358" y="-33" type="line"/>
		</contour>
		<contour>
			<point x="282" y="115" type="curve" smooth="yes"/>
			<point x="229" y="115"/>
			<point x="197" y="155"/>
			<point x="197" y="250" type="curve" smooth="yes"/>
			<point x="197" y="343"/>
			<point x="236" y="383"/>
			<point x="280" y="383" type="curve" smooth="yes"/>
			<point x="305" y="383"/>
			<point x="334" y="375"/>
			<point x="358" y="354" type="curve"/>
			<point x="358" y="156" type="line"/>
			<point x="335" y="125"/>
			<point x="312" y="115"/>
		</contour>
	</outline>
	<anchor name="aboveLC" x="294" y="520"/>
	<anchor name="belowLC" x="429" y="-183"/>
</glyph>
<glyph name="r" format="2">
	<unicode hex="0072"/>
	<advance width="405"/>
	<outline>
		<contour>
			<point x="63" y="0" type="line"/>
			<point x="217" y="0" type="line"/>
			<point x="217" y="284" type="line"/>
			<point x="243" y="350"/>
			<point x="288" y="374"/>
			<point x="325" y="374" type="curve" smooth="yes"/>
			<point x="347" y="374"/>
			<point x="358" y="372"/>
			<point x="376" y="368" type="curve"/>
			<point x="405" y="499" type="line"/>
			<point x="391" y="506"/>
			<point x="374" y="509"/>
			<point x="345" y="509" type="curve" smooth="yes"/>
			<point x="295" y="509"/>
			<point x="240" y="478"/>
			<point x="204" y="411" type="curve"/>
			<point x="200" y="411" type="line"/>
			<point x="189" y="497" type="line"/>
			<point x="63" y="497" type="line"/>
		</contour>
	</outline>
	<anchor name="aboveLC" x="253" y="520"/>
	<anchor name="belowLC" x="136" y="-22"/>
</glyph>
<glyph name="s" format="2">
	<unicode hex="0073"/>
	<advance width="446"/>
	<outline>
		<contour>
			<point x="212" y="-12" type="curve" smooth="yes"/>
			<point x="347" y="-12"/>
			<point x="419" y="59"/>
			<point x="419" y="150" type="curve" smooth="yes"/>
			<point x="419" y="232"/>
			<point x="359" y="277"/>
			<point x="283" y="301" type="curve" smooth="yes"/>
			<point x="220" y="321"/>
			<point x="192" y="333"/>
			<point x="192" y="359" type="curve" smooth="yes"/>
			<point x="192" y="381"/>
			<point x="209" y="395"/>
			<point x="245" y="395" type="curve" smooth="yes"/>
			<point x="279" y="395"/>
			<point x="316" y="385"/>
			<point x="352" y="359" type="curve"/>
			<point x="418" y="446" type="line"/>
			<point x="375" y="482"/>
			<point x="313" y="509"/>
			<point x="240" y="509" type="curve" smooth="yes"/>
			<point x="124" y="509"/>
			<point x="48" y="446"/>
			<point x="48" y="352" type="curve" smooth="yes"/>
			<point x="48" y="275"/>
			<point x="108" y="230"/>
			<point x="179" y="204" type="curve" smooth="yes"/>
			<point x="232" y="184"/>
			<point x="274" y="171"/>
			<point x="274" y="141" type="curve" smooth="yes"/>
			<point x="274" y="117"/>
			<point x="257" y="102"/>
			<point x="215" y="102" type="curve" smooth="yes"/>
			<point x="176" y="102"/>
			<point x="131" y="114"/>
			<point x="85" y="150" type="curve"/>
			<point x="20" y="63" type="line"/>
			<point x="70" y="14"/>
			<point x="146" y="-12"/>
		</contour>
	</outline>
	<anchor name="aboveLC" x="235" y="520"/>
	<anchor name="baseLC" x="219" y="0"/>
	<anchor name="belowLC" x="219" y="-22"/>
</glyph>
<glyph name="t" format="2">
	<unicode hex="0074"/>
	<advance width="383"/>
	<outline>
		<contour>
			<point x="256" y="-11" type="curve" smooth="yes"/>
			<point x="303" y="-11"/>
			<point x="341" y="-2"/>
			<point x="367" y="9" type="curve"/>
			<point x="343" y="112" type="line"/>
			<point x="329" y="106"/>
			<point x="312" y="104"/>
			<point x="296" y="104" type="curve" smooth="yes"/>
			<point x="257" y="104"/>
			<point x="232" y="127"/>
			<point x="232" y="183" type="curve" smooth="yes"/>
			<point x="232" y="381" type="line"/>
			<point x="351" y="381" type="line"/>
			<point x="351" y="496" type="line"/>
			<point x="232" y="496" type="line"/>
			<point x="232" y="648" type="line"/>
			<point x="110" y="648" type="line"/>
			<point x="93" y="496" type="line"/>
			<point x="17" y="490" type="line"/>
			<point x="17" y="381" type="line"/>
			<point x="85" y="381" type="line"/>
			<point x="85" y="181" type="line" smooth="yes"/>
			<point x="85" y="66"/>
			<point x="133" y="-11"/>
		</contour>
	</outline>
	<anchor name="aboveLC" x="171" y="657"/>
	<anchor name="aboverightLC" x="359" y="518"/>
	<anchor name="baseLC" x="233" y="0"/>
	<anchor name="belowLC" x="233" y="-22"/>
	<anchor name="center" x="173" y="248"/>
</glyph>
<glyph name="u" format="2">
	<unicode hex="0075"/>
	<advance width="572"/>
	<outline>
		<contour>
			<point x="213" y="-12" type="curve" smooth="yes"/>
			<point x="280" y="-12"/>
			<point x="327" y="19"/>
			<point x="368" y="68" type="curve"/>
			<point x="372" y="68" type="line"/>
			<point x="383" y="0" type="line"/>
			<point x="509" y="0" type="line"/>
			<point x="509" y="497" type="line"/>
			<point x="354" y="497" type="line"/>
			<point x="354" y="171" type="line"/>
			<point x="327" y="134"/>
			<point x="306" y="120"/>
			<point x="271" y="120" type="curve" smooth="yes"/>
			<point x="231" y="120"/>
			<point x="213" y="140"/>
			<point x="213" y="209" type="curve" smooth="yes"/>
			<point x="213" y="497" type="line"/>
			<point x="58" y="497" type="line"/>
			<point x="58" y="189" type="line" smooth="yes"/>
			<point x="58" y="65"/>
			<point x="104" y="-12"/>
		</contour>
	</outline>
	<anchor name="aboveLC" x="286" y="520"/>
	<anchor name="baseLC" x="251" y="0"/>
	<anchor name="belowLC" x="279" y="-22"/>
	<anchor name="hornLC" x="433" y="507"/>
	<anchor name="ogonekLC" x="415" y="0"/>
</glyph>
<glyph name="v" format="2">
	<unicode hex="0076"/>
	<advance width="529"/>
	<outline>
		<contour>
			<point x="178" y="0" type="line"/>
			<point x="357" y="0" type="line"/>
			<point x="517" y="497" type="line"/>
			<point x="369" y="497" type="line"/>
			<point x="308" y="268" type="line" smooth="yes"/>
			<point x="296" y="219"/>
			<point x="283" y="167"/>
			<point x="270" y="115" type="curve"/>
			<point x="266" y="115" type="line"/>
			<point x="254" y="167"/>
			<point x="241" y="219"/>
			<point x="229" y="268" type="curve" smooth="yes"/>
			<point x="167" y="497" type="line"/>
			<point x="12" y="497" type="line"/>
		</contour>
	</outline>
	<anchor name="aboveLC" x="267" y="520"/>
	<anchor name="belowLC" x="267" y="-22"/>
</glyph>
<glyph name="w" format="2">
	<unicode hex="0077"/>
	<advance width="782"/>
	<outline>
		<contour>
			<point x="147" y="0" type="line"/>
			<point x="326" y="0" type="line"/>
			<point x="365" y="191" type="line"/>
			<point x="374" y="237"/>
			<point x="380" y="281"/>
			<point x="388" y="338" type="curve"/>
			<point x="392" y="338" type="line"/>
			<point x="400" y="281"/>
			<point x="408" y="237"/>
			<point x="417" y="191" type="curve"/>
			<point x="457" y="0" type="line"/>
			<point x="641" y="0" type="line"/>
			<point x="758" y="497" type="line"/>
			<point x="615" y="497" type="line"/>
			<point x="571" y="273" type="line"/>
			<point x="562" y="225"/>
			<point x="558" y="177"/>
			<point x="549" y="123" type="curve"/>
			<point x="545" y="123" type="line"/>
			<point x="536" y="177"/>
			<point x="527" y="225"/>
			<point x="516" y="273" type="curve"/>
			<point x="463" y="497" type="line"/>
			<point x="326" y="497" type="line"/>
			<point x="275" y="273" type="line"/>
			<point x="264" y="226"/>
			<point x="256" y="177"/>
			<point x="247" y="123" type="curve"/>
			<point x="243" y="123" type="line"/>
			<point x="236" y="177"/>
			<point x="230" y="225"/>
			<point x="222" y="273" type="curve"/>
			<point x="177" y="497" type="line"/>
			<point x="24" y="497" type="line"/>
		</contour>
	</outline>
</glyph>
<glyph name="y" format="2">
	<unicode hex="0079"/>
	<advance width="528"/>
	<outline>
		<contour>
			<point x="124" y="-192" type="curve" smooth="yes"/>
			<point x="243" y="-192"/>
			<point x="296" y="-129"/>
			<point x="345" y="-1" type="curve"/>
			<point x="516" y="497" type="line"/>
			<point x="368" y="497" type="line"/>
			<point x="311" y="291" type="line" smooth="yes"/>
			<point x="298" y="244"/>
			<point x="288" y="197"/>
			<point x="277" y="150" type="curve"/>
			<point x="273" y="150" type="line"/>
			<point x="260" y="199"/>
			<point x="249" y="245"/>
			<point x="235" y="291" type="curve" smooth="yes"/>
			<point x="167" y="497" type="line"/>
			<point x="12" y="497" type="line"/>
			<point x="203" y="14" type="line"/>
			<point x="196" y="-10" type="line" smooth="yes"/>
			<point x="184" y="-46"/>
			<point x="160" y="-71"/>
			<point x="112" y="-71" type="curve" smooth="yes"/>
			<point x="102" y="-71"/>
			<point x="95" y="-70"/>
			<point x="79" y="-66" type="curve"/>
			<point x="52" y="-180" type="line"/>
			<point x="72" y="-188"/>
			<point x="92" y="-192"/>
		</contour>
	</outline>
	<anchor name="aboveLC" x="270" y="520"/>
	<anchor name="belowLC" x="231" y="-186"/>
</glyph>
<glyph name="z" format="2">
	<unicode hex="007A"/>
	<advance width="465"/>
	<outline>
		<contour>
			<point x="38" y="0" type="line"/>
			<point x="440" y="0" type="line"/>
			<point x="440" y="121" type="line"/>
			<point x="231" y="121" type="line"/>
			<point x="434" y="414" type="line"/>
			<point x="434" y="497" type="line"/>
			<point x="62" y="497" type="line"/>
			<point x="62" y="376" type="line"/>
			<point x="241" y="376" type="line"/>
			<point x="38" y="83" type="line"/>
		</contour>
	</outline>
	<anchor name="aboveLC" x="246" y="520"/>
	<anchor name="belowLC" x="245" y="-22"/>
</glyph>
<glyph name="braceleft" format="2">
	<unicode hex="007B"/>
	<advance width="349"/>
	<outline>
		<contour>
			<point x="236" y="-152" type="curve" smooth="yes"/>
			<point x="301" y="-152" type="line"/>
			<point x="301" y="-70" type="line"/>
			<point x="283" y="-70" type="line" smooth="yes"/>
			<point x="243" y="-70"/>
			<point x="231" y="-57"/>
			<point x="231" y="-3" type="curve" smooth="yes"/>
			<point x="231" y="50"/>
			<point x="236" y="98"/>
			<point x="236" y="158" type="curve" smooth="yes"/>
			<point x="236" y="235"/>
			<point x="211" y="264"/>
			<point x="160" y="276" type="curve"/>
			<point x="160" y="280" type="line"/>
			<point x="211" y="292"/>
			<point x="236" y="321"/>
			<point x="236" y="398" type="curve" smooth="yes"/>
			<point x="236" y="458"/>
			<point x="231" y="506"/>
			<point x="231" y="559" type="curve" smooth="yes"/>
			<point x="231" y="613"/>
			<point x="243" y="626"/>
			<point x="283" y="626" type="curve" smooth="yes"/>
			<point x="301" y="626" type="line"/>
			<point x="301" y="708" type="line"/>
			<point x="236" y="708" type="line" smooth="yes"/>
			<point x="146" y="708"/>
			<point x="107" y="673"/>
			<point x="107" y="564" type="curve" smooth="yes"/>
			<point x="107" y="494"/>
			<point x="117" y="460"/>
			<point x="117" y="396" type="curve" smooth="yes"/>
			<point x="117" y="362"/>
			<point x="95" y="325"/>
			<point x="31" y="323" type="curve"/>
			<point x="31" y="233" type="line"/>
			<point x="95" y="231"/>
			<point x="117" y="194"/>
			<point x="117" y="159" type="curve" smooth="yes"/>
			<point x="117" y="96"/>
			<point x="107" y="62"/>
			<point x="107" y="-8" type="curve" smooth="yes"/>
			<point x="107" y="-117"/>
			<point x="146" y="-152"/>
		</contour>
	</outline>
</glyph>
<glyph name="braceright" format="2">
	<unicode hex="007D"/>
	<advance width="349"/>
	<outline>
		<contour>
			<point x="48" y="-152" type="line"/>
			<point x="113" y="-152" type="line" smooth="yes"/>
			<point x="203" y="-152"/>
			<point x="242" y="-117"/>
			<point x="242" y="-8" type="curve" smooth="yes"/>
			<point x="242" y="62"/>
			<point x="232" y="96"/>
			<point x="232" y="159" type="curve" smooth="yes"/>
			<point x="232" y="194"/>
			<point x="254" y="231"/>
			<point x="318" y="233" type="curve"/>
			<point x="318" y="323" type="line"/>
			<point x="254" y="325"/>
			<point x="232" y="362"/>
			<point x="232" y="396" type="curve" smooth="yes"/>
			<point x="232" y="460"/>
			<point x="242" y="494"/>
			<point x="242" y="564" type="curve" smooth="yes"/>
			<point x="242" y="673"/>
			<point x="203" y="708"/>
			<point x="113" y="708" type="curve" smooth="yes"/>
			<point x="48" y="708" type="line"/>
			<point x="48" y="626" type="line"/>
			<point x="66" y="626" type="line" smooth="yes"/>
			<point x="106" y="626"/>
			<point x="118" y="613"/>
			<point x="118" y="559" type="curve" smooth="yes"/>
			<point x="118" y="506"/>
			<point x="113" y="458"/>
			<point x="113" y="398" type="curve" smooth="yes"/>
			<point x="113" y="321"/>
			<point x="138" y="292"/>
			<point x="190" y="280" type="curve"/>
			<point x="190" y="276" type="line"/>
			<point x="138" y="264"/>
			<point x="113" y="235"/>
			<point x="113" y="158" type="curve" smooth="yes"/>
			<point x="113" y="98"/>
			<point x="118" y="50"/>
			<point x="118" y="-3" type="curve" smooth="yes"/>
			<point x="118" y="-57"/>
			<point x="106" y="-70"/>
			<point x="66" y="-70" type="curve" smooth="yes"/>
			<point x="48" y="-70" type="line"/>
		</contour>
	</outline>
</glyph>
<glyph name="asciitilde" format="2">
	<unicode hex="007E"/>
	<advance width="532"/>
	<outline>
		<contour>
			<point x="351" y="238" type="curve" smooth="yes"/>
			<point x="401" y="238"/>
			<point x="453" y="266"/>
			<point x="504" y="343" type="curve"/>
			<point x="424" y="404" type="line"/>
			<point x="403" y="369"/>
			<point x="380" y="347"/>
			<point x="353" y="347" type="curve" smooth="yes"/>
			<point x="298" y="347"/>
			<point x="264" y="422"/>
			<point x="181" y="422" type="curve" smooth="yes"/>
			<point x="131" y="422"/>
			<point x="79" y="394"/>
			<point x="28" y="317" type="curve"/>
			<point x="108" y="256" type="line"/>
			<point x="128" y="291"/>
			<point x="153" y="313"/>
			<point x="179" y="313" type="curve" smooth="yes"/>
			<point x="234" y="313"/>
			<point x="268" y="238"/>
		</contour>
	</outline>
</glyph>
<glyph name="exclamdown" format="2">
	<unicode hex="00A1"/>
	<advance width="347"/>
	<outline>
		<contour>
			<point x="96" y="-173" type="line"/>
			<point x="251" y="-173" type="line"/>
			<point x="246" y="-35" type="line"/>
			<point x="224" y="262" type="line"/>
			<point x="123" y="262" type="line"/>
			<point x="101" y="-35" type="line"/>
		</contour>
		<contour>
			<point x="173" y="317" type="curve" smooth="yes"/>
			<point x="226" y="317"/>
			<point x="266" y="359"/>
			<point x="266" y="413" type="curve" smooth="yes"/>
			<point x="266" y="467"/>
			<point x="226" y="509"/>
			<point x="173" y="509" type="curve" smooth="yes"/>
			<point x="120" y="509"/>
			<point x="81" y="467"/>
			<point x="81" y="413" type="curve" smooth="yes"/>
			<point x="81" y="359"/>
			<point x="120" y="317"/>
		</contour>
	</outline>
</glyph>
<glyph name="cent" format="2">
	<unicode hex="00A2"/>
	<advance width="532"/>
	<outline>
		<contour>
			<point x="325" y="49" type="curve" smooth="yes"/>
			<point x="378" y="49"/>
			<point x="443" y="68"/>
			<point x="491" y="111" type="curve"/>
			<point x="429" y="208" type="line"/>
			<point x="406" y="191"/>
			<point x="378" y="174"/>
			<point x="343" y="174" type="curve" smooth="yes"/>
			<point x="257" y="174"/>
			<point x="210" y="225"/>
			<point x="210" y="307" type="curve" smooth="yes"/>
			<point x="210" y="388"/>
			<point x="255" y="440"/>
			<point x="348" y="440" type="curve" smooth="yes"/>
			<point x="370" y="440"/>
			<point x="391" y="432"/>
			<point x="414" y="412" type="curve"/>
			<point x="485" y="508" type="line"/>
			<point x="451" y="542"/>
			<point x="400" y="565"/>
			<point x="339" y="565" type="curve" smooth="yes"/>
			<point x="183" y="565"/>
			<point x="60" y="471"/>
			<point x="60" y="307" type="curve" smooth="yes"/>
			<point x="60" y="143"/>
			<point x="166" y="49"/>
		</contour>
		<contour>
			<point x="277" y="-42" type="line"/>
			<point x="361" y="-42" type="line"/>
			<point x="361" y="656" type="line"/>
			<point x="277" y="656" type="line"/>
		</contour>
	</outline>
</glyph>
<glyph name="sterling" format="1">
	<unicode hex="00A3"/>
	<advance width="528"/>
	<outline>
		<contour>
			<point x="48" y="0" type="line"/>
			<point x="497" y="0" type="line"/>
			<point x="497" y="124" type="line"/>
			<point x="238" y="124" type="line"/>
			<point x="238" y="128" type="line"/>
			<point x="270" y="164"/>
			<point x="283" y="195"/>
			<point x="283" y="243" type="curve" smooth="yes"/>
			<point x="283" y="312"/>
			<point x="251" y="372"/>
			<point x="251" y="434" type="curve" smooth="yes"/>
			<point x="251" y="498"/>
			<point x="285" y="528"/>
			<point x="338" y="528" type="curve" smooth="yes"/>
			<point x="370" y="528"/>
			<point x="394" y="514"/>
			<point x="417" y="486" type="curve"/>
			<point x="497" y="566" type="line"/>
			<point x="452" y="618"/>
			<point x="398" y="647"/>
			<point x="324" y="647" type="curve" smooth="yes"/>
			<point x="200" y="647"/>
			<point x="110" y="568"/>
			<point x="110" y="442" type="curve" smooth="yes"/>
			<point x="110" y="380"/>
			<point x="154" y="310"/>
			<point x="154" y="244" type="curve" smooth="yes"/>
			<point x="154" y="173"/>
			<point x="108" y="118"/>
			<point x="48" y="91" type="curve"/>
		</contour>
		<contour>
			<point x="52" y="271" type="line"/>
			<point x="410" y="271" type="line"/>
			<point x="410" y="362" type="line"/>
			<point x="120" y="362" type="line"/>
			<point x="52" y="357" type="line"/>
		</contour>
	</outline>
</glyph>
<glyph name="currency" format="2">
	<unicode hex="00A4"/>
	<advance width="532"/>
	<outline>
		<contour>
			<point x="96" y="81" type="line"/>
			<point x="166" y="152" type="line"/>
			<point x="197" y="137"/>
			<point x="231" y="129"/>
			<point x="266" y="129" type="curve" smooth="yes"/>
			<point x="299" y="129"/>
			<point x="334" y="137"/>
			<point x="365" y="152" type="curve"/>
			<point x="436" y="81" type="line"/>
			<point x="513" y="158" type="line"/>
			<point x="451" y="219" type="line"/>
			<point x="473" y="250"/>
			<point x="486" y="286"/>
			<point x="486" y="330" type="curve" smooth="yes"/>
			<point x="486" y="373"/>
			<point x="474" y="409"/>
			<point x="452" y="439" type="curve"/>
			<point x="513" y="500" type="line"/>
			<point x="436" y="577" type="line"/>
			<point x="366" y="507" type="line"/>
			<point x="335" y="522"/>
			<point x="300" y="531"/>
			<point x="266" y="531" type="curve" smooth="yes"/>
			<point x="231" y="531"/>
			<point x="197" y="522"/>
			<point x="166" y="507" type="curve"/>
			<point x="96" y="577" type="line"/>
			<point x="19" y="500" type="line"/>
			<point x="79" y="439" type="line"/>
			<point x="58" y="409"/>
			<point x="46" y="373"/>
			<point x="46" y="330" type="curve" smooth="yes"/>
			<point x="46" y="286"/>
			<point x="58" y="250"/>
			<point x="80" y="219" type="curve"/>
			<point x="19" y="158" type="line"/>
		</contour>
		<contour>
			<point x="266" y="236" type="curve" smooth="yes"/>
			<point x="220" y="236"/>
			<point x="183" y="272"/>
			<point x="183" y="330" type="curve" smooth="yes"/>
			<point x="183" y="387"/>
			<point x="220" y="423"/>
			<point x="266" y="423" type="curve" smooth="yes"/>
			<point x="312" y="423"/>
			<point x="348" y="387"/>
			<point x="348" y="330" type="curve" smooth="yes"/>
			<point x="348" y="272"/>
			<point x="312" y="236"/>
		</contour>
	</outline>
</glyph>
<glyph name="yen" format="2">
	<unicode hex="00A5"/>
	<advance width="531"/>
	<outline>
		<contour>
			<point x="188" y="0" type="line"/>
			<point x="343" y="0" type="line"/>
			<point x="343" y="141" type="line"/>
			<point x="495" y="141" type="line"/>
			<point x="495" y="220" type="line"/>
			<point x="343" y="220" type="line"/>
			<point x="343" y="269" type="line"/>
			<point x="495" y="269" type="line"/>
			<point x="495" y="348" type="line"/>
			<point x="377" y="348" type="line"/>
			<point x="520" y="635" type="line"/>
			<point x="366" y="635" type="line"/>
			<point x="318" y="506" type="line" smooth="yes"/>
			<point x="302" y="463"/>
			<point x="286" y="419"/>
			<point x="270" y="375" type="curve"/>
			<point x="266" y="375" type="line"/>
			<point x="248" y="418"/>
			<point x="233" y="462"/>
			<point x="217" y="506" type="curve" smooth="yes"/>
			<point x="169" y="635" type="line"/>
			<point x="11" y="635" type="line"/>
			<point x="154" y="348" type="line"/>
			<point x="36" y="348" type="line"/>
			<point x="36" y="269" type="line"/>
			<point x="188" y="269" type="line"/>
			<point x="188" y="220" type="line"/>
			<point x="36" y="220" type="line"/>
			<point x="36" y="141" type="line"/>
			<point x="188" y="141" type="line"/>
		</contour>
	</outline>
</glyph>
<glyph name="brokenbar" format="2">
	<unicode hex="00A6"/>
	<advance width="271"/>
	<outline>
		<contour>
			<point x="85" y="314" type="line"/>
			<point x="186" y="314" type="line"/>
			<point x="186" y="750" type="line"/>
			<point x="85" y="750" type="line"/>
		</contour>
		<contour>
			<point x="85" y="-250" type="line"/>
			<point x="186" y="-250" type="line"/>
			<point x="186" y="203" type="line"/>
			<point x="85" y="203" type="line"/>
		</contour>
	</outline>
</glyph>
<glyph name="section" format="2">
	<unicode hex="00A7"/>
	<advance width="532"/>
	<outline>
		<contour>
			<point x="241" y="-87" type="curve" smooth="yes"/>
			<point x="370" y="-87"/>
			<point x="437" y="-17"/>
			<point x="437" y="74" type="curve" smooth="yes"/>
			<point x="437" y="247"/>
			<point x="166" y="233"/>
			<point x="166" y="335" type="curve" smooth="yes"/>
			<point x="166" y="367"/>
			<point x="188" y="391"/>
			<point x="230" y="405" type="curve"/>
			<point x="152" y="469" type="line"/>
			<point x="82" y="445"/>
			<point x="36" y="384"/>
			<point x="36" y="324" type="curve" smooth="yes"/>
			<point x="36" y="135"/>
			<point x="298" y="140"/>
			<point x="298" y="66" type="curve" smooth="yes"/>
			<point x="298" y="43"/>
			<point x="280" y="28"/>
			<point x="241" y="28" type="curve" smooth="yes"/>
			<point x="203" y="28"/>
			<point x="165" y="44"/>
			<point x="133" y="78" type="curve"/>
			<point x="44" y="0" type="line"/>
			<point x="89" y="-59"/>
			<point x="168" y="-87"/>
		</contour>
		<contour>
			<point x="389" y="137" type="line"/>
			<point x="458" y="170"/>
			<point x="496" y="218"/>
			<point x="496" y="284" type="curve" smooth="yes"/>
			<point x="496" y="465"/>
			<point x="226" y="474"/>
			<point x="226" y="540" type="curve" smooth="yes"/>
			<point x="226" y="564"/>
			<point x="243" y="576"/>
			<point x="277" y="576" type="curve" smooth="yes"/>
			<point x="310" y="576"/>
			<point x="349" y="555"/>
			<point x="380" y="529" type="curve"/>
			<point x="451" y="624" type="line"/>
			<point x="410" y="657"/>
			<point x="346" y="691"/>
			<point x="268" y="691" type="curve" smooth="yes"/>
			<point x="154" y="691"/>
			<point x="87" y="627"/>
			<point x="87" y="535" type="curve" smooth="yes"/>
			<point x="87" y="360"/>
			<point x="365" y="377"/>
			<point x="365" y="271" type="curve" smooth="yes"/>
			<point x="365" y="237"/>
			<point x="345" y="215"/>
			<point x="301" y="200" type="curve"/>
		</contour>
	</outline>
</glyph>
<glyph name="dieresis" format="1">
	<unicode hex="00A8"/>
	<advance width="555"/>
	<outline>
		<component base="dieresiscmb" xOffset="278"/>
		<contour>
			<point name="_aboveLC" x="278" y="518" type="move"/>
		</contour>
	</outline>
</glyph>
<glyph name="copyright" format="2">
	<unicode hex="00A9"/>
	<advance width="751"/>
	<outline>
		<contour>
			<point x="375" y="-8" type="curve" smooth="yes"/>
			<point x="553" y="-8"/>
			<point x="706" y="118"/>
			<point x="706" y="326" type="curve" smooth="yes"/>
			<point x="706" y="532"/>
			<point x="553" y="656"/>
			<point x="375" y="656" type="curve" smooth="yes"/>
			<point x="198" y="656"/>
			<point x="45" y="533"/>
			<point x="45" y="326" type="curve" smooth="yes"/>
			<point x="45" y="118"/>
			<point x="198" y="-8"/>
		</contour>
		<contour>
			<point x="375" y="54" type="curve" smooth="yes"/>
			<point x="228" y="54"/>
			<point x="115" y="163"/>
			<point x="115" y="326" type="curve" smooth="yes"/>
			<point x="115" y="488"/>
			<point x="228" y="593"/>
			<point x="375" y="593" type="curve" smooth="yes"/>
			<point x="522" y="593"/>
			<point x="635" y="488"/>
			<point x="635" y="326" type="curve" smooth="yes"/>
			<point x="635" y="163"/>
			<point x="522" y="54"/>
		</contour>
		<contour>
			<point x="388" y="128" type="curve" smooth="yes"/>
			<point x="439" y="128"/>
			<point x="481" y="148"/>
			<point x="519" y="179" type="curve"/>
			<point x="469" y="250" type="line"/>
			<point x="444" y="230"/>
			<point x="425" y="217"/>
			<point x="392" y="217" type="curve" smooth="yes"/>
			<point x="338" y="217"/>
			<point x="304" y="258"/>
			<point x="304" y="323" type="curve" smooth="yes"/>
			<point x="304" y="380"/>
			<point x="336" y="427"/>
			<point x="397" y="427" type="curve" smooth="yes"/>
			<point x="424" y="427"/>
			<point x="443" y="414"/>
			<point x="463" y="393" type="curve"/>
			<point x="521" y="457" type="line"/>
			<point x="490" y="489"/>
			<point x="450" y="517"/>
			<point x="387" y="517" type="curve" smooth="yes"/>
			<point x="286" y="517"/>
			<point x="193" y="441"/>
			<point x="193" y="323" type="curve" smooth="yes"/>
			<point x="193" y="203"/>
			<point x="275" y="128"/>
		</contour>
	</outline>
</glyph>
<glyph name="logicalnot" format="2">
	<unicode hex="00AC"/>
	<advance width="532"/>
	<outline>
		<contour>
			<point x="385" y="93" type="line"/>
			<point x="498" y="93" type="line"/>
			<point x="498" y="384" type="line"/>
			<point x="34" y="384" type="line"/>
			<point x="34" y="276" type="line"/>
			<point x="385" y="276" type="line"/>
		</contour>
	</outline>
</glyph>
<glyph name="registered" format="2">
	<unicode hex="00AE"/>
	<advance width="467"/>
	<outline>
		<contour>
			<point x="233" y="310" type="curve" smooth="yes"/>
			<point x="343" y="310"/>
			<point x="432" y="395"/>
			<point x="432" y="513" type="curve" smooth="yes"/>
			<point x="432" y="630"/>
			<point x="343" y="716"/>
			<point x="233" y="716" type="curve" smooth="yes"/>
			<point x="123" y="716"/>
			<point x="34" y="630"/>
			<point x="34" y="513" type="curve" smooth="yes"/>
			<point x="34" y="395"/>
			<point x="123" y="310"/>
		</contour>
		<contour>
			<point x="233" y="361" type="curve" smooth="yes"/>
			<point x="149" y="361"/>
			<point x="90" y="420"/>
			<point x="90" y="513" type="curve" smooth="yes"/>
			<point x="90" y="605"/>
			<point x="149" y="665"/>
			<point x="233" y="665" type="curve" smooth="yes"/>
			<point x="317" y="665"/>
			<point x="376" y="605"/>
			<point x="376" y="513" type="curve" smooth="yes"/>
			<point x="376" y="420"/>
			<point x="317" y="361"/>
		</contour>
		<contour>
			<point x="151" y="416" type="line"/>
			<point x="211" y="416" type="line"/>
			<point x="211" y="475" type="line"/>
			<point x="238" y="475" type="line"/>
			<point x="267" y="416" type="line"/>
			<point x="330" y="416" type="line"/>
			<point x="288" y="492" type="line"/>
			<point x="312" y="503"/>
			<point x="323" y="524"/>
			<point x="323" y="546" type="curve" smooth="yes"/>
			<point x="323" y="591"/>
			<point x="289" y="612"/>
			<point x="242" y="612" type="curve" smooth="yes"/>
			<point x="151" y="612" type="line"/>
		</contour>
		<contour>
			<point x="211" y="516" type="line"/>
			<point x="211" y="567" type="line"/>
			<point x="231" y="567" type="line" smooth="yes"/>
			<point x="249" y="567"/>
			<point x="260" y="557"/>
			<point x="260" y="542" type="curve" smooth="yes"/>
			<point x="260" y="528"/>
			<point x="250" y="516"/>
			<point x="230" y="516" type="curve" smooth="yes"/>
		</contour>
	</outline>
</glyph>
<glyph name="macron" format="1">
	<unicode hex="00AF"/>
	<advance width="555"/>
	<outline>
		<component base="macroncmb" xOffset="278"/>
		<contour>
			<point name="_aboveLC" x="278" y="518" type="move"/>
		</contour>
	</outline>
</glyph>
<glyph name="degree" format="2">
	<unicode hex="00B0"/>
	<advance width="369"/>
	<outline>
		<contour>
			<point x="185" y="394" type="curve" smooth="yes"/>
			<point x="268" y="394"/>
			<point x="332" y="456"/>
			<point x="332" y="540" type="curve" smooth="yes"/>
			<point x="332" y="624"/>
			<point x="268" y="686"/>
			<point x="185" y="686" type="curve" smooth="yes"/>
			<point x="103" y="686"/>
			<point x="38" y="624"/>
			<point x="38" y="540" type="curve" smooth="yes"/>
			<point x="38" y="456"/>
			<point x="103" y="394"/>
		</contour>
		<contour>
			<point x="185" y="468" type="curve" smooth="yes"/>
			<point x="146" y="468"/>
			<point x="119" y="497"/>
			<point x="119" y="540" type="curve" smooth="yes"/>
			<point x="119" y="583"/>
			<point x="146" y="612"/>
			<point x="185" y="612" type="curve" smooth="yes"/>
			<point x="225" y="612"/>
			<point x="252" y="583"/>
			<point x="252" y="540" type="curve" smooth="yes"/>
			<point x="252" y="497"/>
			<point x="225" y="468"/>
		</contour>
	</outline>
</glyph>
<glyph name="plusminus" format="2">
	<unicode hex="00B1"/>
	<advance width="532"/>
	<outline>
		<contour>
			<point x="209" y="162" type="line"/>
			<point x="322" y="162" type="line"/>
			<point x="322" y="293" type="line"/>
			<point x="498" y="293" type="line"/>
			<point x="498" y="402" type="line"/>
			<point x="322" y="402" type="line"/>
			<point x="322" y="567" type="line"/>
			<point x="209" y="567" type="line"/>
			<point x="209" y="402" type="line"/>
			<point x="34" y="402" type="line"/>
			<point x="34" y="293" type="line"/>
			<point x="209" y="293" type="line"/>
		</contour>
		<contour>
			<point x="34" y="0" type="line"/>
			<point x="498" y="0" type="line"/>
			<point x="498" y="109" type="line"/>
			<point x="34" y="109" type="line"/>
		</contour>
	</outline>
</glyph>
<glyph name="mu" format="2">
	<unicode hex="00B5"/>
	<unicode hex="03BC"/>
	<advance width="598"/>
	<outline>
		<contour>
			<point x="63" y="-176" type="line"/>
			<point x="219" y="-176" type="line"/>
			<point x="212" y="-109"/>
			<point x="210" y="-57"/>
			<point x="208" y="14" type="curve"/>
			<point x="224" y="-4"/>
			<point x="245" y="-7"/>
			<point x="267" y="-7" type="curve" smooth="yes"/>
			<point x="309" y="-7"/>
			<point x="345" y="20"/>
			<point x="368" y="69" type="curve"/>
			<point x="372" y="69" type="line"/>
			<point x="389" y="16"/>
			<point x="435" y="-12"/>
			<point x="505" y="-12" type="curve"/>
			<point x="549" y="-12"/>
			<point x="574" y="-4"/>
			<point x="596" y="5" type="curve"/>
			<point x="577" y="119" type="line"/>
			<point x="567" y="115"/>
			<point x="554" y="113"/>
			<point x="546" y="113" type="curve" smooth="yes"/>
			<point x="518" y="113"/>
			<point x="500" y="123"/>
			<point x="500" y="156" type="curve" smooth="yes"/>
			<point x="500" y="235"/>
			<point x="508" y="383"/>
			<point x="511" y="497" type="curve"/>
			<point x="354" y="497" type="line"/>
			<point x="354" y="182" type="line"/>
			<point x="331" y="137"/>
			<point x="308" y="120"/>
			<point x="275" y="120" type="curve" smooth="yes"/>
			<point x="235" y="120"/>
			<point x="217" y="141"/>
			<point x="217" y="209" type="curve" smooth="yes"/>
			<point x="217" y="497" type="line"/>
			<point x="63" y="497" type="line"/>
		</contour>
	</outline>
</glyph>
<glyph name="paragraph" format="2">
	<unicode hex="00B6"/>
	<advance width="646"/>
	<outline>
		<contour>
			<point x="395" y="-80" type="line"/>
			<point x="550" y="-80" type="line"/>
			<point x="550" y="651" type="line"/>
			<point x="395" y="651" type="line"/>
		</contour>
		<contour>
			<point x="297" y="194" type="curve" smooth="yes"/>
			<point x="339" y="194" type="line"/>
			<point x="339" y="651" type="line"/>
			<point x="295" y="651" type="line" smooth="yes"/>
			<point x="155" y="651"/>
			<point x="38" y="597"/>
			<point x="38" y="428" type="curve" smooth="yes"/>
			<point x="38" y="273"/>
			<point x="156" y="194"/>
		</contour>
	</outline>
</glyph>
<glyph name="questiondown" format="2">
	<unicode hex="00BF"/>
	<advance width="468"/>
	<outline>
		<contour>
			<point x="234" y="-185" type="curve" smooth="yes"/>
			<point x="312" y="-185"/>
			<point x="378" y="-147"/>
			<point x="427" y="-93" type="curve"/>
			<point x="342" y="-15" type="line"/>
			<point x="315" y="-41"/>
			<point x="289" y="-60"/>
			<point x="253" y="-60" type="curve" smooth="yes"/>
			<point x="217" y="-60"/>
			<point x="190" y="-40"/>
			<point x="190" y="-1" type="curve" smooth="yes"/>
			<point x="190" y="71"/>
			<point x="335" y="127"/>
			<point x="314" y="262" type="curve"/>
			<point x="179" y="262" type="line"/>
			<point x="190" y="146"/>
			<point x="41" y="110"/>
			<point x="41" y="-12" type="curve" smooth="yes"/>
			<point x="41" y="-132"/>
			<point x="125" y="-185"/>
		</contour>
		<contour>
			<point x="247" y="317" type="curve" smooth="yes"/>
			<point x="300" y="317"/>
			<point x="339" y="359"/>
			<point x="339" y="413" type="curve" smooth="yes"/>
			<point x="339" y="467"/>
			<point x="300" y="509"/>
			<point x="247" y="509" type="curve" smooth="yes"/>
			<point x="194" y="509"/>
			<point x="155" y="467"/>
			<point x="155" y="413" type="curve" smooth="yes"/>
			<point x="155" y="359"/>
			<point x="194" y="317"/>
		</contour>
	</outline>
</glyph>
<glyph name="AE" format="2">
	<unicode hex="00C6"/>
	<advance width="848"/>
	<outline>
		<contour>
			<point x="-16" y="0" type="line"/>
			<point x="146" y="0" type="line"/>
			<point x="305" y="353" type="line"/>
			<point x="329" y="409"/>
			<point x="354" y="471"/>
			<point x="380" y="535" type="curve"/>
			<point x="384" y="535" type="line"/>
			<point x="384" y="0" type="line"/>
			<point x="795" y="0" type="line"/>
			<point x="795" y="130" type="line"/>
			<point x="539" y="130" type="line"/>
			<point x="539" y="269" type="line"/>
			<point x="747" y="269" type="line"/>
			<point x="747" y="399" type="line"/>
			<point x="539" y="399" type="line"/>
			<point x="539" y="521" type="line"/>
			<point x="785" y="521" type="line"/>
			<point x="785" y="651" type="line"/>
			<point x="289" y="651" type="line"/>
		</contour>
		<contour>
			<point x="135" y="143" type="line"/>
			<point x="465" y="143" type="line"/>
			<point x="465" y="264" type="line"/>
			<point x="135" y="264" type="line"/>
		</contour>
	</outline>
	<anchor name="aboveUC" x="536" y="673"/>
</glyph>
<glyph name="Eth" format="2">
	<unicode hex="00D0"/>
	<advance width="660"/>
	<outline>
		<contour>
			<point x="27" y="287" type="line"/>
			<point x="375" y="287" type="line"/>
			<point x="375" y="387" type="line"/>
			<point x="104" y="387" type="line"/>
			<point x="27" y="382" type="line"/>
		</contour>
		<component base="D" xOffset="25"/>
	</outline>
</glyph>
<glyph name="multiply" format="2">
	<unicode hex="00D7"/>
	<advance width="528"/>
	<outline>
		<contour>
			<point x="121" y="112" type="line"/>
			<point x="264" y="256" type="line"/>
			<point x="407" y="112" type="line"/>
			<point x="480" y="186" type="line"/>
			<point x="338" y="329" type="line"/>
			<point x="480" y="473" type="line"/>
			<point x="407" y="547" type="line"/>
			<point x="264" y="403" type="line"/>
			<point x="121" y="547" type="line"/>
			<point x="48" y="473" type="line"/>
			<point x="190" y="329" type="line"/>
			<point x="48" y="186" type="line"/>
		</contour>
	</outline>
</glyph>
<glyph name="Oslash" format="2">
	<unicode hex="00D8"/>
	<advance width="686"/>
	<outline>
		<contour>
			<point x="120" y="-44" type="line"/>
			<point x="666" y="631" type="line"/>
			<point x="584" y="695" type="line"/>
			<point x="38" y="20" type="line"/>
		</contour>
		<component base="O" xOffset="1"/>
	</outline>
</glyph>
<glyph name="Thorn" format="2">
	<unicode hex="00DE"/>
	<advance width="621"/>
	<outline>
		<contour>
			<point x="75" y="0" type="line"/>
			<point x="231" y="0" type="line"/>
			<point x="231" y="119" type="line"/>
			<point x="318" y="119" type="line" smooth="yes"/>
			<point x="455" y="119"/>
			<point x="574" y="187"/>
			<point x="574" y="342" type="curve" smooth="yes"/>
			<point x="574" y="503"/>
			<point x="459" y="554"/>
			<point x="318" y="554" type="curve" smooth="yes"/>
			<point x="231" y="554" type="line"/>
			<point x="231" y="651" type="line"/>
			<point x="75" y="651" type="line"/>
		</contour>
		<contour>
			<point x="231" y="242" type="line"/>
			<point x="231" y="431" type="line"/>
			<point x="309" y="431" type="line" smooth="yes"/>
			<point x="383" y="431"/>
			<point x="422" y="407"/>
			<point x="422" y="342" type="curve" smooth="yes"/>
			<point x="422" y="278"/>
			<point x="386" y="242"/>
			<point x="309" y="242" type="curve" smooth="yes"/>
		</contour>
	</outline>
</glyph>
<glyph name="germandbls" format="2">
	<unicode hex="00DF"/>
	<advance width="639"/>
	<outline>
		<contour>
			<point x="425" y="-12" type="curve" smooth="yes"/>
			<point x="549" y="-12"/>
			<point x="613" y="62"/>
			<point x="613" y="154" type="curve" smooth="yes"/>
			<point x="613" y="306"/>
			<point x="439" y="305"/>
			<point x="439" y="367" type="curve" smooth="yes"/>
			<point x="439" y="416"/>
			<point x="515" y="445"/>
			<point x="515" y="540" type="curve" smooth="yes"/>
			<point x="515" y="627"/>
			<point x="445" y="709"/>
			<point x="306" y="709" type="curve" smooth="yes"/>
			<point x="140" y="709"/>
			<point x="63" y="612"/>
			<point x="63" y="483" type="curve" smooth="yes"/>
			<point x="63" y="0" type="line"/>
			<point x="216" y="0" type="line"/>
			<point x="216" y="466" type="line" smooth="yes"/>
			<point x="216" y="541"/>
			<point x="246" y="588"/>
			<point x="305" y="588" type="curve" smooth="yes"/>
			<point x="345" y="588"/>
			<point x="367" y="560"/>
			<point x="367" y="523" type="curve" smooth="yes"/>
			<point x="367" y="450"/>
			<point x="298" y="423"/>
			<point x="298" y="348" type="curve" smooth="yes"/>
			<point x="298" y="218"/>
			<point x="472" y="217"/>
			<point x="472" y="147" type="curve" smooth="yes"/>
			<point x="472" y="121"/>
			<point x="451" y="102"/>
			<point x="420" y="102" type="curve" smooth="yes"/>
			<point x="390" y="102"/>
			<point x="359" y="112"/>
			<point x="327" y="137" type="curve"/>
			<point x="274" y="33" type="line"/>
			<point x="322" y="4"/>
			<point x="366" y="-12"/>
		</contour>
	</outline>
</glyph>
<glyph name="ae" format="2">
	<unicode hex="00E6"/>
	<advance width="781"/>
	<outline>
		<contour>
			<point x="189" y="-12" type="curve" smooth="yes"/>
			<point x="255" y="-12"/>
			<point x="308" y="8"/>
			<point x="379" y="64" type="curve"/>
			<point x="421" y="18"/>
			<point x="477" y="-12"/>
			<point x="549" y="-12" type="curve" smooth="yes"/>
			<point x="608" y="-12"/>
			<point x="675" y="8"/>
			<point x="727" y="44" type="curve"/>
			<point x="677" y="137" type="line"/>
			<point x="641" y="117"/>
			<point x="607" y="106"/>
			<point x="571" y="106" type="curve" smooth="yes"/>
			<point x="513" y="106"/>
			<point x="468" y="138"/>
			<point x="456" y="203" type="curve"/>
			<point x="739" y="203" type="line"/>
			<point x="741" y="215"/>
			<point x="745" y="239"/>
			<point x="745" y="267" type="curve" smooth="yes"/>
			<point x="745" y="401"/>
			<point x="679" y="509"/>
			<point x="547" y="509" type="curve" smooth="yes"/>
			<point x="488" y="509"/>
			<point x="443" y="484"/>
			<point x="401" y="437" type="curve"/>
			<point x="372" y="482"/>
			<point x="323" y="509"/>
			<point x="262" y="509" type="curve" smooth="yes"/>
			<point x="191" y="509"/>
			<point x="123" y="484"/>
			<point x="58" y="444" type="curve"/>
			<point x="112" y="344" type="line"/>
			<point x="162" y="372"/>
			<point x="202" y="386"/>
			<point x="241" y="386" type="curve" smooth="yes"/>
			<point x="293" y="386"/>
			<point x="312" y="362"/>
			<point x="316" y="321" type="curve"/>
			<point x="123" y="301"/>
			<point x="41" y="244"/>
			<point x="41" y="139" type="curve" smooth="yes"/>
			<point x="41" y="56"/>
			<point x="98" y="-12"/>
		</contour>
		<contour>
			<point x="242" y="108" type="curve" smooth="yes"/>
			<point x="208" y="108"/>
			<point x="189" y="122"/>
			<point x="189" y="152" type="curve" smooth="yes"/>
			<point x="189" y="187"/>
			<point x="223" y="213"/>
			<point x="314" y="226" type="curve"/>
			<point x="316" y="206" type="line" smooth="yes"/>
			<point x="318" y="186"/>
			<point x="322" y="165"/>
			<point x="329" y="146" type="curve"/>
			<point x="304" y="122"/>
			<point x="274" y="108"/>
		</contour>
		<contour>
			<point x="456" y="304" type="line"/>
			<point x="466" y="360"/>
			<point x="497" y="392"/>
			<point x="541" y="392" type="curve" smooth="yes"/>
			<point x="586" y="392"/>
			<point x="613" y="358"/>
			<point x="613" y="304" type="curve"/>
		</contour>
	</outline>
	<anchor name="aboveLC" x="406" y="519"/>
	<anchor name="belowLC" x="403" y="-22"/>
</glyph>
<glyph name="eth" format="2">
	<unicode hex="00F0"/>
	<advance width="562"/>
	<outline>
		<contour>
			<point x="273" y="-12" type="curve" smooth="yes"/>
			<point x="422" y="-12"/>
			<point x="513" y="106"/>
			<point x="513" y="268" type="curve" smooth="yes"/>
			<point x="513" y="524"/>
			<point x="345" y="656"/>
			<point x="176" y="741" type="curve"/>
			<point x="110" y="647" type="line"/>
			<point x="285" y="558"/>
			<point x="369" y="460"/>
			<point x="369" y="259" type="curve" smooth="yes"/>
			<point x="369" y="157"/>
			<point x="331" y="113"/>
			<point x="278" y="113" type="curve" smooth="yes"/>
			<point x="227" y="113"/>
			<point x="182" y="153"/>
			<point x="182" y="229" type="curve" smooth="yes"/>
			<point x="182" y="307"/>
			<point x="222" y="342"/>
			<point x="276" y="342" type="curve" smooth="yes"/>
			<point x="311" y="342"/>
			<point x="345" y="330"/>
			<point x="374" y="294" type="curve"/>
			<point x="372" y="374" type="line"/>
			<point x="350" y="434"/>
			<point x="295" y="456"/>
			<point x="244" y="456" type="curve" smooth="yes"/>
			<point x="140" y="456"/>
			<point x="41" y="373"/>
			<point x="41" y="229" type="curve" smooth="yes"/>
			<point x="41" y="81"/>
			<point x="148" y="-12"/>
		</contour>
		<contour>
			<point x="122" y="472" type="line"/>
			<point x="497" y="660" type="line"/>
			<point x="457" y="729" type="line"/>
			<point x="81" y="539" type="line"/>
		</contour>
	</outline>
	<anchor name="aboveUC" x="305" y="721"/>
	<anchor name="belowLC" x="270" y="-22"/>
</glyph>
<glyph name="divide" format="2">
	<unicode hex="00F7"/>
	<advance width="532"/>
	<outline>
		<contour>
			<point x="34" y="276" type="line"/>
			<point x="498" y="276" type="line"/>
			<point x="498" y="384" type="line"/>
			<point x="34" y="384" type="line"/>
		</contour>
		<contour>
			<point x="266" y="70" type="curve" smooth="yes"/>
			<point x="314" y="70"/>
			<point x="351" y="103"/>
			<point x="351" y="150" type="curve" smooth="yes"/>
			<point x="351" y="196"/>
			<point x="314" y="230"/>
			<point x="266" y="230" type="curve" smooth="yes"/>
			<point x="218" y="230"/>
			<point x="181" y="196"/>
			<point x="181" y="150" type="curve" smooth="yes"/>
			<point x="181" y="103"/>
			<point x="218" y="70"/>
		</contour>
		<contour>
			<point x="266" y="430" type="curve" smooth="yes"/>
			<point x="314" y="430"/>
			<point x="351" y="463"/>
			<point x="351" y="510" type="curve" smooth="yes"/>
			<point x="351" y="556"/>
			<point x="314" y="590"/>
			<point x="266" y="590" type="curve" smooth="yes"/>
			<point x="218" y="590"/>
			<point x="181" y="556"/>
			<point x="181" y="510" type="curve" smooth="yes"/>
			<point x="181" y="463"/>
			<point x="218" y="430"/>
		</contour>
	</outline>
</glyph>
<glyph name="oslash" format="2">
	<unicode hex="00F8"/>
	<advance width="557"/>
	<outline>
		<contour>
			<point x="279" y="-12" type="curve" smooth="yes"/>
			<point x="405" y="-12"/>
			<point x="522" y="83"/>
			<point x="522" y="248" type="curve" smooth="yes"/>
			<point x="522" y="414"/>
			<point x="405" y="509"/>
			<point x="278" y="509" type="curve" smooth="yes"/>
			<point x="152" y="509"/>
			<point x="35" y="414"/>
			<point x="35" y="248" type="curve" smooth="yes"/>
			<point x="35" y="83"/>
			<point x="152" y="-12"/>
		</contour>
		<contour>
			<point x="279" y="107" type="curve" smooth="yes"/>
			<point x="218" y="107"/>
			<point x="184" y="155"/>
			<point x="184" y="257" type="curve" smooth="yes"/>
			<point x="184" y="337"/>
			<point x="220" y="390"/>
			<point x="278" y="390" type="curve" smooth="yes"/>
			<point x="338" y="390"/>
			<point x="373" y="342"/>
			<point x="373" y="239" type="curve" smooth="yes"/>
			<point x="373" y="160"/>
			<point x="336" y="107"/>
		</contour>
		<contour>
			<point x="105" y="-29" type="line"/>
			<point x="514" y="478" type="line"/>
			<point x="452" y="527" type="line"/>
			<point x="43" y="21" type="line"/>
		</contour>
	</outline>
	<anchor name="aboveLC" x="278" y="519"/>
	<anchor name="belowLC" x="279" y="-22"/>
</glyph>
<glyph name="thorn" format="1">
	<unicode hex="00FE"/>
	<advance width="573"/>
	<outline>
		<contour>
			<point x="65" y="-184" type="line"/>
			<point x="212" y="-184" type="line"/>
			<point x="212" y="-39" type="line"/>
			<point x="208" y="35" type="line"/>
			<point x="242" y="5"/>
			<point x="277" y="-12"/>
			<point x="325" y="-12" type="curve" smooth="yes"/>
			<point x="432" y="-12"/>
			<point x="534" y="86"/>
			<point x="534" y="256" type="curve" smooth="yes"/>
			<point x="534" y="409"/>
			<point x="457" y="508"/>
			<point x="332" y="508" type="curve" smooth="yes"/>
			<point x="287" y="508"/>
			<point x="243" y="489"/>
			<point x="208" y="459" type="curve"/>
			<point x="212" y="529" type="line"/>
			<point x="212" y="701" type="line"/>
			<point x="65" y="701" type="line"/>
		</contour>
		<contour>
			<point x="291" y="108" type="curve" smooth="yes"/>
			<point x="266" y="108"/>
			<point x="238" y="116"/>
			<point x="212" y="140" type="curve"/>
			<point x="212" y="343" type="line"/>
			<point x="241" y="374"/>
			<point x="267" y="388"/>
			<point x="297" y="388" type="curve" smooth="yes"/>
			<point x="356" y="388"/>
			<point x="383" y="343"/>
			<point x="383" y="254" type="curve" smooth="yes"/>
			<point x="383" y="152"/>
			<point x="342" y="108"/>
		</contour>
		<contour>
			<point name="aboveLC" x="140" y="730" type="move"/>
		</contour>
		<contour>
			<point name="belowLC" x="293" y="-22" type="move"/>
		</contour>
	</outline>
</glyph>
<glyph name="Aogonek" format="2">
	<unicode hex="0104"/>
	<advance width="576"/>
	<outline>
		<contour>
			<point x="502" y="-226" type="curve" smooth="yes"/>
			<point x="541" y="-226"/>
			<point x="588" y="-211"/>
			<point x="616" y="-190" type="curve"/>
			<point x="581" y="-103" type="line"/>
			<point x="570" y="-110"/>
			<point x="554" y="-117"/>
			<point x="538" y="-117" type="curve" smooth="yes"/>
			<point x="511" y="-117"/>
			<point x="493" y="-106"/>
			<point x="493" y="-80" type="curve" smooth="yes"/>
			<point x="493" y="-44"/>
			<point x="529" y="-4"/>
			<point x="584" y="0" type="curve"/>
			<point x="381" y="651" type="line"/>
			<point x="195" y="651" type="line"/>
			<point x="-8" y="0" type="line"/>
			<point x="151" y="0" type="line"/>
			<point x="233" y="326" type="line" smooth="yes"/>
			<point x="250" y="390"/>
			<point x="267" y="467"/>
			<point x="283" y="535" type="curve"/>
			<point x="287" y="535" type="line"/>
			<point x="304" y="467"/>
			<point x="321" y="390"/>
			<point x="338" y="326" type="curve" smooth="yes"/>
			<point x="420" y="0" type="line"/>
			<point x="453" y="0" type="line"/>
			<point x="421" y="-17"/>
			<point x="372" y="-64"/>
			<point x="372" y="-126" type="curve" smooth="yes"/>
			<point x="372" y="-191"/>
			<point x="429" y="-226"/>
		</contour>
		<contour>
			<point x="130" y="150" type="line"/>
			<point x="445" y="150" type="line"/>
			<point x="445" y="270" type="line"/>
			<point x="130" y="270" type="line"/>
		</contour>
	</outline>
	<anchor name="aboveUC" x="286" y="673"/>
</glyph>
<glyph name="aogonek" format="2">
	<unicode hex="0105"/>
	<advance width="527"/>
	<outline>
		<contour>
			<point x="401" y="-219" type="curve" smooth="yes"/>
			<point x="438" y="-219"/>
			<point x="481" y="-205"/>
			<point x="509" y="-184" type="curve"/>
			<point x="478" y="-108" type="line"/>
			<point x="465" y="-115"/>
			<point x="450" y="-121"/>
			<point x="431" y="-121" type="curve" smooth="yes"/>
			<point x="411" y="-121"/>
			<point x="390" y="-110"/>
			<point x="390" y="-84" type="curve" smooth="yes"/>
			<point x="390" y="-54"/>
			<point x="411" y="-16"/>
			<point x="468" y="0" type="curve"/>
			<point x="468" y="284" type="line" smooth="yes"/>
			<point x="468" y="436"/>
			<point x="398" y="508"/>
			<point x="271" y="508" type="curve" smooth="yes"/>
			<point x="193" y="508"/>
			<point x="122" y="482"/>
			<point x="59" y="443" type="curve"/>
			<point x="112" y="348" type="line"/>
			<point x="160" y="375"/>
			<point x="201" y="391"/>
			<point x="243" y="391" type="curve" smooth="yes"/>
			<point x="297" y="391"/>
			<point x="318" y="363"/>
			<point x="321" y="319" type="curve"/>
			<point x="125" y="299"/>
			<point x="42" y="242"/>
			<point x="42" y="137" type="curve" smooth="yes"/>
			<point x="42" y="54"/>
			<point x="99" y="-12"/>
			<point x="190" y="-12" type="curve" smooth="yes"/>
			<point x="246" y="-12"/>
			<point x="292" y="14"/>
			<point x="334" y="51" type="curve"/>
			<point x="338" y="51" type="line"/>
			<point x="350" y="-2" type="line"/>
			<point x="322" y="-19"/>
			<point x="282" y="-61"/>
			<point x="282" y="-118" type="curve" smooth="yes"/>
			<point x="282" y="-186"/>
			<point x="335" y="-219"/>
		</contour>
		<contour>
			<point x="240" y="102" type="curve" smooth="yes"/>
			<point x="205" y="102"/>
			<point x="183" y="117"/>
			<point x="183" y="149" type="curve" smooth="yes"/>
			<point x="183" y="187"/>
			<point x="217" y="217"/>
			<point x="321" y="231" type="curve"/>
			<point x="321" y="144" type="line"/>
			<point x="295" y="118"/>
			<point x="273" y="102"/>
		</contour>
	</outline>
	<anchor name="aboveLC" x="276" y="518"/>
</glyph>
<glyph name="dcroat" format="2">
	<unicode hex="0111"/>
	<advance width="573"/>
	<outline>
		<contour>
			<point x="242" y="-12" type="curve" smooth="yes"/>
			<point x="292" y="-12"/>
			<point x="338" y="11"/>
			<point x="372" y="44" type="curve"/>
			<point x="376" y="44" type="line"/>
			<point x="385" y="0" type="line"/>
			<point x="508" y="0" type="line"/>
			<point x="508" y="701" type="line"/>
			<point x="361" y="701" type="line"/>
			<point x="361" y="485" type="line"/>
			<point x="367" y="410" type="line"/>
			<point x="333" y="441"/>
			<point x="300" y="461"/>
			<point x="245" y="461" type="curve" smooth="yes"/>
			<point x="140" y="461"/>
			<point x="39" y="368"/>
			<point x="39" y="225" type="curve" smooth="yes"/>
			<point x="39" y="82"/>
			<point x="119" y="-12"/>
		</contour>
		<contour>
			<point x="280" y="108" type="curve" smooth="yes"/>
			<point x="223" y="108"/>
			<point x="190" y="149"/>
			<point x="190" y="227" type="curve" smooth="yes"/>
			<point x="190" y="301"/>
			<point x="232" y="341"/>
			<point x="279" y="341" type="curve" smooth="yes"/>
			<point x="306" y="341"/>
			<point x="334" y="332"/>
			<point x="361" y="308" type="curve"/>
			<point x="361" y="153" type="line"/>
			<point x="337" y="120"/>
			<point x="312" y="108"/>
		</contour>
		<contour>
			<point x="192" y="530" type="line"/>
			<point x="500" y="530" type="line"/>
			<point x="576" y="535" type="line"/>
			<point x="576" y="627" type="line"/>
			<point x="192" y="627" type="line"/>
		</contour>
	</outline>
</glyph>
<glyph name="Eogonek" format="2">
	<unicode hex="0118"/>
	<advance width="550"/>
	<outline>
		<contour>
			<point x="407" y="-226" type="curve" smooth="yes"/>
			<point x="446" y="-226"/>
			<point x="493" y="-211"/>
			<point x="521" y="-190" type="curve"/>
			<point x="486" y="-103" type="line"/>
			<point x="475" y="-110"/>
			<point x="459" y="-117"/>
			<point x="443" y="-117" type="curve" smooth="yes"/>
			<point x="416" y="-117"/>
			<point x="398" y="-106"/>
			<point x="398" y="-80" type="curve" smooth="yes"/>
			<point x="398" y="-44"/>
			<point x="440" y="0"/>
			<point x="485" y="0" type="curve" smooth="yes"/>
			<point x="497" y="0" type="line"/>
			<point x="497" y="130" type="line"/>
			<point x="231" y="130" type="line"/>
			<point x="231" y="269" type="line"/>
			<point x="450" y="269" type="line"/>
			<point x="450" y="399" type="line"/>
			<point x="231" y="399" type="line"/>
			<point x="231" y="521" type="line"/>
			<point x="487" y="521" type="line"/>
			<point x="487" y="651" type="line"/>
			<point x="75" y="651" type="line"/>
			<point x="75" y="0" type="line"/>
			<point x="357" y="0" type="line"/>
			<point x="320" y="-21"/>
			<point x="277" y="-67"/>
			<point x="277" y="-126" type="curve" smooth="yes"/>
			<point x="277" y="-190"/>
			<point x="335" y="-226"/>
		</contour>
	</outline>
	<anchor name="aboveUC" x="290" y="673"/>
</glyph>
<glyph name="eogonek" format="2">
	<unicode hex="0119"/>
	<advance width="518"/>
	<outline>
		<contour>
			<point x="366" y="-219" type="curve" smooth="yes"/>
			<point x="402" y="-219"/>
			<point x="446" y="-205"/>
			<point x="474" y="-184" type="curve"/>
			<point x="443" y="-108" type="line"/>
			<point x="430" y="-115"/>
			<point x="415" y="-121"/>
			<point x="396" y="-121" type="curve" smooth="yes"/>
			<point x="376" y="-121"/>
			<point x="354" y="-110"/>
			<point x="354" y="-84" type="curve" smooth="yes"/>
			<point x="354" y="-46"/>
			<point x="377" y="-13"/>
			<point x="463" y="44" type="curve"/>
			<point x="416" y="132" type="line"/>
			<point x="380" y="111"/>
			<point x="344" y="100"/>
			<point x="307" y="100" type="curve" smooth="yes"/>
			<point x="240" y="100"/>
			<point x="175" y="134"/>
			<point x="172" y="248" type="curve" smooth="yes"/>
			<point x="168" y="358"/>
			<point x="224" y="396"/>
			<point x="273" y="396" type="curve" smooth="yes"/>
			<point x="332" y="396"/>
			<point x="356" y="357"/>
			<point x="356" y="302" type="curve"/>
			<point x="149" y="302" type="line"/>
			<point x="151" y="205" type="line"/>
			<point x="475" y="205" type="line"/>
			<point x="478" y="217"/>
			<point x="481" y="244"/>
			<point x="481" y="270" type="curve" smooth="yes"/>
			<point x="481" y="405"/>
			<point x="411" y="508"/>
			<point x="270" y="508" type="curve" smooth="yes"/>
			<point x="151" y="508"/>
			<point x="36" y="409"/>
			<point x="36" y="248" type="curve" smooth="yes"/>
			<point x="36" y="84"/>
			<point x="145" y="-12"/>
			<point x="287" y="-12" type="curve" smooth="yes"/>
			<point x="301" y="-12"/>
			<point x="319" y="-8"/>
			<point x="328" y="-4" type="curve"/>
			<point x="326" y="1" type="line"/>
			<point x="274" y="-34"/>
			<point x="247" y="-70"/>
			<point x="247" y="-118" type="curve" smooth="yes"/>
			<point x="247" y="-186"/>
			<point x="300" y="-219"/>
		</contour>
	</outline>
	<anchor name="aboveLC" x="268" y="518"/>
</glyph>
<glyph name="Hbar" format="2">
	<unicode hex="0126"/>
	<advance width="715"/>
	<outline>
		<contour>
			<point x="24" y="472" type="line"/>
			<point x="691" y="472" type="line"/>
			<point x="691" y="576" type="line"/>
			<point x="101" y="576" type="line"/>
			<point x="24" y="570" type="line"/>
		</contour>
		<component base="H" xOffset="20"/>
	</outline>
</glyph>
<glyph name="hbar" format="2">
	<unicode hex="0127"/>
	<advance width="571"/>
	<outline>
		<contour>
			<point x="65" y="0" type="line"/>
			<point x="212" y="0" type="line"/>
			<point x="212" y="288" type="line"/>
			<point x="244" y="319"/>
			<point x="267" y="336"/>
			<point x="304" y="336" type="curve" smooth="yes"/>
			<point x="346" y="336"/>
			<point x="365" y="314"/>
			<point x="365" y="242" type="curve" smooth="yes"/>
			<point x="365" y="0" type="line"/>
			<point x="512" y="0" type="line"/>
			<point x="512" y="261" type="line" smooth="yes"/>
			<point x="512" y="385"/>
			<point x="466" y="461"/>
			<point x="358" y="461" type="curve" smooth="yes"/>
			<point x="291" y="461"/>
			<point x="242" y="427"/>
			<point x="205" y="393" type="curve"/>
			<point x="212" y="483" type="line"/>
			<point x="212" y="701" type="line"/>
			<point x="65" y="701" type="line"/>
		</contour>
		<contour>
			<point x="-3" y="530" type="line"/>
			<point x="381" y="530" type="line"/>
			<point x="381" y="627" type="line"/>
			<point x="73" y="627" type="line"/>
			<point x="-3" y="621" type="line"/>
		</contour>
	</outline>
</glyph>
<glyph name="Iogonek" format="2">
	<unicode hex="012E"/>
	<advance width="306"/>
	<outline>
		<contour>
			<point x="162" y="-226" type="curve" smooth="yes"/>
			<point x="201" y="-226"/>
			<point x="248" y="-211"/>
			<point x="277" y="-190" type="curve"/>
			<point x="242" y="-103" type="line"/>
			<point x="231" y="-110"/>
			<point x="215" y="-117"/>
			<point x="198" y="-117" type="curve" smooth="yes"/>
			<point x="171" y="-117"/>
			<point x="154" y="-106"/>
			<point x="154" y="-80" type="curve" smooth="yes"/>
			<point x="154" y="-50"/>
			<point x="176" y="-20"/>
			<point x="231" y="0" type="curve"/>
			<point x="231" y="651" type="line"/>
			<point x="75" y="651" type="line"/>
			<point x="75" y="0" type="line"/>
			<point x="111" y="0" type="line"/>
			<point x="75" y="-22"/>
			<point x="32" y="-67"/>
			<point x="32" y="-126" type="curve" smooth="yes"/>
			<point x="32" y="-190"/>
			<point x="90" y="-226"/>
		</contour>
	</outline>
	<anchor name="aboveUC" x="155" y="673"/>
</glyph>
<glyph name="dotlessi" format="2">
	<unicode hex="0131"/>
	<advance width="280"/>
	<outline>
		<contour>
			<point x="63" y="0" type="line"/>
			<point x="217" y="0" type="line"/>
			<point x="217" y="497" type="line"/>
			<point x="63" y="497" type="line"/>
		</contour>
	</outline>
	<anchor name="aboveLC" x="140" y="520"/>
	<anchor name="belowLC" x="140" y="-22"/>
	<anchor name="ogonekLC" x="135" y="0"/>
</glyph>
<glyph name="IJ" format="2">
	<unicode hex="0132"/>
	<advance width="612"/>
	<outline>
		<contour>
			<point x="75" y="0" type="line"/>
			<point x="231" y="0" type="line"/>
			<point x="231" y="651" type="line"/>
			<point x="75" y="651" type="line"/>
		</contour>
		<contour>
			<point x="354" y="-184" type="curve" smooth="yes"/>
			<point x="494" y="-184"/>
			<point x="536" y="-89"/>
			<point x="536" y="20" type="curve" smooth="yes"/>
			<point x="536" y="651" type="line"/>
			<point x="381" y="651" type="line"/>
			<point x="381" y="16" type="line" smooth="yes"/>
			<point x="381" y="-39"/>
			<point x="368" y="-62"/>
			<point x="329" y="-62" type="curve" smooth="yes"/>
			<point x="316" y="-62"/>
			<point x="305" y="-59"/>
			<point x="291" y="-55" type="curve"/>
			<point x="264" y="-170" type="line"/>
			<point x="285" y="-178"/>
			<point x="311" y="-184"/>
		</contour>
	</outline>
</glyph>
<glyph name="kgreenlandic" format="2">
	<unicode hex="0138"/>
	<advance width="554"/>
	<outline>
		<contour>
			<point x="63" y="0" type="line"/>
			<point x="217" y="0" type="line"/>
			<point x="217" y="116" type="line"/>
			<point x="273" y="183" type="line"/>
			<point x="381" y="0" type="line"/>
			<point x="549" y="0" type="line"/>
			<point x="365" y="292" type="line"/>
			<point x="537" y="497" type="line"/>
			<point x="369" y="497" type="line"/>
			<point x="221" y="304" type="line"/>
			<point x="217" y="304" type="line"/>
			<point x="217" y="497" type="line"/>
			<point x="63" y="497" type="line"/>
		</contour>
	</outline>
</glyph>
<glyph name="Lslash" format="2">
	<unicode hex="0141"/>
	<advance width="549"/>
	<outline>
		<contour>
			<point x="28" y="183" type="line"/>
			<point x="121" y="225" type="line"/>
			<point x="241" y="278" type="line"/>
			<point x="467" y="381" type="line"/>
			<point x="423" y="483" type="line"/>
			<point x="241" y="400" type="line"/>
			<point x="121" y="347" type="line"/>
			<point x="-15" y="285" type="line"/>
		</contour>
		<component base="L" xOffset="28"/>
	</outline>
</glyph>
<glyph name="lslash" format="2">
	<unicode hex="0142"/>
	<advance width="346"/>
	<outline>
		<contour>
			<point x="30" y="236" type="line"/>
			<point x="99" y="277" type="line"/>
			<point x="229" y="337" type="line"/>
			<point x="369" y="410" type="line"/>
			<point x="318" y="506" type="line"/>
			<point x="229" y="455" type="line"/>
			<point x="99" y="395" type="line"/>
			<point x="-21" y="332" type="line"/>
		</contour>
		<component base="l" xOffset="28"/>
	</outline>
	<anchor name="aboveUC" x="172" y="721"/>
	<anchor name="belowLC" x="192" y="-22"/>
</glyph>
<glyph name="Eng" format="2">
	<unicode hex="014A"/>
	<advance width="670"/>
	<outline>
		<contour>
			<point x="413" y="-12" type="curve" smooth="yes"/>
			<point x="558" y="-12"/>
			<point x="624" y="101"/>
			<point x="624" y="331" type="curve" smooth="yes"/>
			<point x="624" y="573"/>
			<point x="528" y="663"/>
			<point x="401" y="663" type="curve" smooth="yes"/>
			<point x="335" y="663"/>
			<point x="275" y="636"/>
			<point x="225" y="582" type="curve"/>
			<point x="225" y="651" type="line"/>
			<point x="75" y="651" type="line"/>
			<point x="75" y="0" type="line"/>
			<point x="231" y="0" type="line"/>
			<point x="231" y="449" type="line"/>
			<point x="262" y="503"/>
			<point x="315" y="529"/>
			<point x="354" y="529" type="curve" smooth="yes"/>
			<point x="424" y="529"/>
			<point x="465" y="475"/>
			<point x="465" y="331" type="curve" smooth="yes"/>
			<point x="465" y="167"/>
			<point x="433" y="133"/>
			<point x="395" y="133" type="curve" smooth="yes"/>
			<point x="378" y="133"/>
			<point x="365" y="135"/>
			<point x="355" y="139" type="curve"/>
			<point x="321" y="7" type="line"/>
			<point x="341" y="-4"/>
			<point x="383" y="-12"/>
		</contour>
	</outline>
	<anchor name="aboveUC" x="365" y="673"/>
	<anchor name="belowLC" x="328" y="-22"/>
</glyph>
<glyph name="eng" format="2">
	<unicode hex="014B"/>
	<advance width="575"/>
	<outline>
		<contour>
			<point x="335" y="-194" type="curve" smooth="yes"/>
			<point x="475" y="-194"/>
			<point x="517" y="-99"/>
			<point x="517" y="11" type="curve" smooth="yes"/>
			<point x="517" y="308" type="line" smooth="yes"/>
			<point x="517" y="432"/>
			<point x="471" y="509"/>
			<point x="363" y="509" type="curve" smooth="yes"/>
			<point x="295" y="509"/>
			<point x="245" y="475"/>
			<point x="204" y="435" type="curve"/>
			<point x="200" y="435" type="line"/>
			<point x="189" y="497" type="line"/>
			<point x="63" y="497" type="line"/>
			<point x="63" y="0" type="line"/>
			<point x="217" y="0" type="line"/>
			<point x="217" y="333" type="line"/>
			<point x="248" y="361"/>
			<point x="269" y="378"/>
			<point x="304" y="378" type="curve" smooth="yes"/>
			<point x="344" y="378"/>
			<point x="362" y="357"/>
			<point x="362" y="288" type="curve" smooth="yes"/>
			<point x="362" y="6" type="line" smooth="yes"/>
			<point x="362" y="-49"/>
			<point x="349" y="-72"/>
			<point x="310" y="-72" type="curve" smooth="yes"/>
			<point x="298" y="-72"/>
			<point x="286" y="-70"/>
			<point x="272" y="-66" type="curve"/>
			<point x="245" y="-180" type="line"/>
			<point x="266" y="-188"/>
			<point x="292" y="-194"/>
		</contour>
	</outline>
	<anchor name="aboveLC" x="315" y="520"/>
	<anchor name="belowLC" x="288" y="-200"/>
</glyph>
<glyph name="OE" format="2">
	<unicode hex="0152"/>
	<advance width="874"/>
	<outline>
		<contour>
			<point x="373" y="0" type="curve" smooth="yes"/>
			<point x="821" y="0" type="line"/>
			<point x="821" y="130" type="line"/>
			<point x="567" y="130" type="line"/>
			<point x="567" y="269" type="line"/>
			<point x="773" y="269" type="line"/>
			<point x="773" y="399" type="line"/>
			<point x="567" y="399" type="line"/>
			<point x="567" y="521" type="line"/>
			<point x="811" y="521" type="line"/>
			<point x="811" y="651" type="line"/>
			<point x="382" y="651" type="line" smooth="yes"/>
			<point x="189" y="651"/>
			<point x="45" y="554"/>
			<point x="45" y="328" type="curve" smooth="yes"/>
			<point x="45" y="103"/>
			<point x="189" y="0"/>
		</contour>
		<contour>
			<point x="391" y="125" type="line" smooth="yes"/>
			<point x="282" y="125"/>
			<point x="204" y="172"/>
			<point x="204" y="328" type="curve" smooth="yes"/>
			<point x="204" y="485"/>
			<point x="282" y="526"/>
			<point x="391" y="526" type="curve" smooth="yes"/>
			<point x="412" y="526" type="line"/>
			<point x="412" y="125" type="line"/>
		</contour>
	</outline>
	<anchor name="aboveUC" x="529" y="673"/>
</glyph>
<glyph name="oe" format="2">
	<unicode hex="0153"/>
	<advance width="822"/>
	<outline>
		<contour>
			<point x="267" y="-12" type="curve" smooth="yes"/>
			<point x="341" y="-12"/>
			<point x="391" y="18"/>
			<point x="432" y="75" type="curve"/>
			<point x="473" y="18"/>
			<point x="535" y="-12"/>
			<point x="606" y="-12" type="curve" smooth="yes"/>
			<point x="654" y="-12"/>
			<point x="720" y="8"/>
			<point x="768" y="44" type="curve"/>
			<point x="721" y="132" type="line"/>
			<point x="685" y="111"/>
			<point x="649" y="100"/>
			<point x="612" y="100" type="curve" smooth="yes"/>
			<point x="552" y="100"/>
			<point x="505" y="134"/>
			<point x="493" y="205" type="curve"/>
			<point x="780" y="205" type="line"/>
			<point x="783" y="217"/>
			<point x="786" y="240"/>
			<point x="786" y="267" type="curve" smooth="yes"/>
			<point x="786" y="402"/>
			<point x="716" y="508"/>
			<point x="585" y="508" type="curve"/>
			<point x="526" y="508"/>
			<point x="470" y="476"/>
			<point x="431" y="421" type="curve"/>
			<point x="395" y="475"/>
			<point x="342" y="508"/>
			<point x="270" y="508" type="curve" smooth="yes"/>
			<point x="144" y="508"/>
			<point x="36" y="413"/>
			<point x="36" y="248" type="curve" smooth="yes"/>
			<point x="36" y="83"/>
			<point x="140" y="-12"/>
		</contour>
		<contour>
			<point x="270" y="107" type="curve" smooth="yes"/>
			<point x="216" y="107"/>
			<point x="185" y="162"/>
			<point x="185" y="248" type="curve" smooth="yes"/>
			<point x="185" y="334"/>
			<point x="216" y="389"/>
			<point x="270" y="389" type="curve" smooth="yes"/>
			<point x="324" y="389"/>
			<point x="357" y="334"/>
			<point x="357" y="248" type="curve" smooth="yes"/>
			<point x="357" y="162"/>
			<point x="324" y="107"/>
		</contour>
		<contour>
			<point x="493" y="302" type="line"/>
			<point x="500" y="365"/>
			<point x="537" y="396"/>
			<point x="583" y="396" type="curve" smooth="yes"/>
			<point x="637" y="396"/>
			<point x="660" y="358"/>
			<point x="660" y="302" type="curve"/>
		</contour>
	</outline>
	<anchor name="aboveLC" x="434" y="518"/>
	<anchor name="belowLC" x="434" y="-22"/>
</glyph>
<glyph name="Tbar" format="1">
	<unicode hex="0166"/>
	<advance width="556"/>
	<outline>
		<contour>
			<point x="86" y="267" type="line"/>
			<point x="470" y="267" type="line"/>
			<point x="470" y="364" type="line"/>
			<point x="180" y="364" type="line"/>
			<point x="86" y="359" type="line"/>
		</contour>
		<component base="T"/>
		<contour>
			<point name="aboveUC" x="276" y="674" type="move"/>
		</contour>
		<contour>
			<point name="belowLC" x="276" y="-22" type="move"/>
		</contour>
	</outline>
</glyph>
<glyph name="tbar" format="2">
	<unicode hex="0167"/>
	<advance width="388"/>
	<outline>
		<contour>
			<point x="16" y="196" type="line"/>
			<point x="355" y="196" type="line"/>
			<point x="355" y="301" type="line"/>
			<point x="92" y="301" type="line"/>
			<point x="16" y="295" type="line"/>
		</contour>
		<component base="t"/>
	</outline>
</glyph>
<glyph name="Uogonek" format="2">
	<unicode hex="0172"/>
	<advance width="667"/>
	<outline>
		<contour>
			<point x="347" y="-225" type="curve" smooth="yes"/>
			<point x="383" y="-225"/>
			<point x="428" y="-210"/>
			<point x="455" y="-189" type="curve"/>
			<point x="420" y="-111" type="line"/>
			<point x="411" y="-117"/>
			<point x="397" y="-125"/>
			<point x="383" y="-125" type="curve" smooth="yes"/>
			<point x="364" y="-125"/>
			<point x="343" y="-114"/>
			<point x="343" y="-88" type="curve" smooth="yes"/>
			<point x="343" y="-61"/>
			<point x="362" y="-23"/>
			<point x="410" y="-8" type="curve" smooth="yes"/>
			<point x="538" y="31"/>
			<point x="595" y="119"/>
			<point x="595" y="306" type="curve" smooth="yes"/>
			<point x="595" y="651" type="line"/>
			<point x="446" y="651" type="line"/>
			<point x="446" y="289" type="line" smooth="yes"/>
			<point x="446" y="165"/>
			<point x="407" y="122"/>
			<point x="335" y="122" type="curve" smooth="yes"/>
			<point x="264" y="122"/>
			<point x="227" y="165"/>
			<point x="227" y="289" type="curve" smooth="yes"/>
			<point x="227" y="651" type="line"/>
			<point x="72" y="651" type="line"/>
			<point x="72" y="306" type="line" smooth="yes"/>
			<point x="72" y="86"/>
			<point x="162" y="-12"/>
			<point x="335" y="-12" type="curve"/>
			<point x="305" y="2" type="line"/>
			<point x="269" y="-22"/>
			<point x="230" y="-76"/>
			<point x="230" y="-129" type="curve" smooth="yes"/>
			<point x="230" y="-190"/>
			<point x="282" y="-225"/>
		</contour>
	</outline>
	<anchor name="aboveUC" x="333" y="673"/>
</glyph>
<glyph name="uogonek" format="1">
	<unicode hex="0173"/>
	<advance width="568"/>
	<outline>
		<contour>
			<point x="423" y="-210" type="curve" smooth="yes"/>
			<point x="454" y="-210"/>
			<point x="499" y="-197"/>
			<point x="524" y="-177" type="curve"/>
			<point x="494" y="-111" type="line"/>
			<point x="485" y="-117"/>
			<point x="471" y="-123"/>
			<point x="458" y="-123" type="curve" smooth="yes"/>
			<point x="437" y="-123"/>
			<point x="416" y="-111"/>
			<point x="416" y="-85" type="curve" smooth="yes"/>
			<point x="416" y="-55"/>
			<point x="438" y="-20"/>
			<point x="504" y="0" type="curve"/>
			<point x="504" y="496" type="line"/>
			<point x="357" y="496" type="line"/>
			<point x="357" y="168" type="line"/>
			<point x="328" y="129"/>
			<point x="306" y="113"/>
			<point x="269" y="113" type="curve" smooth="yes"/>
			<point x="226" y="113"/>
			<point x="207" y="136"/>
			<point x="207" y="207" type="curve" smooth="yes"/>
			<point x="207" y="496" type="line"/>
			<point x="60" y="496" type="line"/>
			<point x="60" y="188" type="line" smooth="yes"/>
			<point x="60" y="64"/>
			<point x="106" y="-12"/>
			<point x="214" y="-12" type="curve" smooth="yes"/>
			<point x="282" y="-12"/>
			<point x="328" y="19"/>
			<point x="370" y="69" type="curve"/>
			<point x="373" y="69" type="line"/>
			<point x="386" y="-2" type="line"/>
			<point x="359" y="-20"/>
			<point x="317" y="-60"/>
			<point x="317" y="-119" type="curve" smooth="yes"/>
			<point x="317" y="-179"/>
			<point x="364" y="-210"/>
		</contour>
		<contour>
			<point name="aboveLC" x="275" y="502" type="move"/>
		</contour>
	</outline>
</glyph>
<glyph name="longs" format="2">
	<unicode hex="017F"/>
	<advance width="319"/>
	<outline>
		<contour>
			<point x="89" y="0" type="line"/>
			<point x="244" y="0" type="line"/>
			<point x="244" y="522" type="line" smooth="yes"/>
			<point x="244" y="572"/>
			<point x="265" y="590"/>
			<point x="299" y="590" type="curve" smooth="yes"/>
			<point x="316" y="590"/>
			<point x="334" y="586"/>
			<point x="350" y="580" type="curve"/>
			<point x="378" y="693" type="line"/>
			<point x="356" y="702"/>
			<point x="320" y="711"/>
			<point x="277" y="711" type="curve" smooth="yes"/>
			<point x="138" y="711"/>
			<point x="89" y="622"/>
			<point x="89" y="517" type="curve" smooth="yes"/>
		</contour>
		<contour>
			<point x="23" y="376" type="line"/>
			<point x="228" y="376" type="line"/>
			<point x="228" y="497" type="line"/>
			<point x="98" y="497" type="line"/>
			<point x="23" y="492" type="line"/>
		</contour>
	</outline>
	<anchor name="aboveUC" x="244" y="721"/>
	<anchor name="belowLC" x="167" y="-22"/>
</glyph>
<glyph name="bstroke" format="2">
	<unicode hex="0180"/>
	<advance width="576"/>
	<outline>
		<contour>
			<point x="329" y="-12" type="curve" smooth="yes"/>
			<point x="437" y="-12"/>
			<point x="538" y="81"/>
			<point x="538" y="234" type="curve" smooth="yes"/>
			<point x="538" y="370"/>
			<point x="463" y="461"/>
			<point x="342" y="461" type="curve" smooth="yes"/>
			<point x="296" y="461"/>
			<point x="250" y="440"/>
			<point x="211" y="406" type="curve"/>
			<point x="215" y="483" type="line"/>
			<point x="215" y="700" type="line"/>
			<point x="68" y="700" type="line"/>
			<point x="68" y="0" type="line"/>
			<point x="183" y="0" type="line"/>
			<point x="195" y="53" type="line"/>
			<point x="199" y="53" type="line"/>
			<point x="238" y="10"/>
			<point x="284" y="-12"/>
		</contour>
		<contour>
			<point x="294" y="108" type="curve" smooth="yes"/>
			<point x="269" y="108"/>
			<point x="241" y="116"/>
			<point x="215" y="140" type="curve"/>
			<point x="215" y="297" type="line"/>
			<point x="244" y="327"/>
			<point x="270" y="341"/>
			<point x="301" y="341" type="curve" smooth="yes"/>
			<point x="359" y="341"/>
			<point x="386" y="301"/>
			<point x="386" y="232" type="curve" smooth="yes"/>
			<point x="386" y="150"/>
			<point x="345" y="108"/>
		</contour>
		<contour>
			<point x="-3" y="528" type="line"/>
			<point x="384" y="528" type="line"/>
			<point x="384" y="629" type="line"/>
			<point x="76" y="629" type="line"/>
			<point x="-3" y="624" type="line"/>
		</contour>
	</outline>
</glyph>
<glyph name="Bhook" format="2">
	<unicode hex="0181"/>
	<advance width="793"/>
	<outline>
		<contour>
			<point x="281" y="0" type="line"/>
			<point x="510" y="0" type="line" smooth="yes"/>
			<point x="651" y="0"/>
			<point x="760" y="61"/>
			<point x="760" y="199" type="curve" smooth="yes"/>
			<point x="760" y="282"/>
			<point x="715" y="328"/>
			<point x="642" y="345" type="curve"/>
			<point x="642" y="349" type="line"/>
			<point x="697" y="369"/>
			<point x="728" y="426"/>
			<point x="728" y="491" type="curve" smooth="yes"/>
			<point x="728" y="613"/>
			<point x="642" y="664"/>
			<point x="426" y="664" type="curve" smooth="yes"/>
			<point x="145" y="664"/>
			<point x="36" y="557"/>
			<point x="36" y="408" type="curve" smooth="yes"/>
			<point x="36" y="312"/>
			<point x="85" y="256"/>
			<point x="163" y="221" type="curve"/>
			<point x="223" y="319" type="line"/>
			<point x="185" y="340"/>
			<point x="163" y="367"/>
			<point x="163" y="413" type="curve" smooth="yes"/>
			<point x="163" y="483"/>
			<point x="216" y="541"/>
			<point x="351" y="541" type="curve" smooth="yes"/>
			<point x="480" y="541" type="line" smooth="yes"/>
			<point x="552" y="541"/>
			<point x="587" y="520"/>
			<point x="587" y="469" type="curve" smooth="yes"/>
			<point x="587" y="421"/>
			<point x="556" y="391"/>
			<point x="484" y="391" type="curve" smooth="yes"/>
			<point x="429" y="391" type="line"/>
			<point x="429" y="586" type="line"/>
			<point x="281" y="586" type="line"/>
		</contour>
		<contour>
			<point x="429" y="114" type="line"/>
			<point x="429" y="282" type="line"/>
			<point x="498" y="282" type="line" smooth="yes"/>
			<point x="579" y="282"/>
			<point x="619" y="259"/>
			<point x="619" y="202" type="curve" smooth="yes"/>
			<point x="619" y="142"/>
			<point x="578" y="114"/>
			<point x="498" y="114" type="curve" smooth="yes"/>
		</contour>
	</outline>
	<anchor name="aboveUC" x="486" y="674"/>
	<anchor name="belowLC" x="498" y="-22"/>
</glyph>
<glyph name="Oopen" format="2">
	<unicode hex="0186"/>
	<advance width="582"/>
	<outline>
		<contour>
			<point x="239" y="-12" type="curve" smooth="yes"/>
			<point x="402" y="-12"/>
			<point x="536" y="91"/>
			<point x="536" y="322" type="curve" smooth="yes"/>
			<point x="536" y="553"/>
			<point x="402" y="664"/>
			<point x="243" y="664" type="curve" smooth="yes"/>
			<point x="155" y="664"/>
			<point x="88" y="630"/>
			<point x="39" y="579" type="curve"/>
			<point x="108" y="490" type="line"/>
			<point x="145" y="522"/>
			<point x="185" y="537"/>
			<point x="235" y="537" type="curve" smooth="yes"/>
			<point x="322" y="537"/>
			<point x="385" y="473"/>
			<point x="385" y="328" type="curve" smooth="yes"/>
			<point x="385" y="177"/>
			<point x="327" y="115"/>
			<point x="237" y="115" type="curve" smooth="yes"/>
			<point x="180" y="115"/>
			<point x="135" y="135"/>
			<point x="100" y="171" type="curve"/>
			<point x="22" y="84" type="line"/>
			<point x="80" y="19"/>
			<point x="154" y="-12"/>
		</contour>
	</outline>
	<anchor name="aboveUC" x="268" y="674"/>
	<anchor name="baseLC" x="258" y="0"/>
	<anchor name="belowLC" x="258" y="-22"/>
	<anchor name="ogonekUC" x="260" y="0"/>
</glyph>
<glyph name="Dhook" format="1">
	<unicode hex="018A"/>
	<advance width="827"/>
	<outline>
		<contour>
			<point x="281" y="0" type="line"/>
			<point x="456" y="0" type="line" smooth="yes"/>
			<point x="649" y="0"/>
			<point x="779" y="105"/>
			<point x="779" y="335" type="curve" smooth="yes"/>
			<point x="779" y="560"/>
			<point x="651" y="664"/>
			<point x="416" y="664" type="curve" smooth="yes"/>
			<point x="142" y="664"/>
			<point x="36" y="558"/>
			<point x="36" y="408" type="curve" smooth="yes"/>
			<point x="36" y="313"/>
			<point x="83" y="258"/>
			<point x="163" y="221" type="curve"/>
			<point x="223" y="319" type="line"/>
			<point x="185" y="342"/>
			<point x="163" y="367"/>
			<point x="163" y="413" type="curve" smooth="yes"/>
			<point x="163" y="484"/>
			<point x="215" y="537"/>
			<point x="350" y="537" type="curve" smooth="yes"/>
			<point x="416" y="537" type="line" smooth="yes"/>
			<point x="556" y="537"/>
			<point x="628" y="485"/>
			<point x="628" y="335" type="curve" smooth="yes"/>
			<point x="628" y="173"/>
			<point x="553" y="119"/>
			<point x="460" y="119" type="curve" smooth="yes"/>
			<point x="429" y="119" type="line"/>
			<point x="429" y="586" type="line"/>
			<point x="281" y="586" type="line"/>
		</contour>
		<contour>
			<point name="aboveUC" x="482" y="673" type="move"/>
		</contour>
		<contour>
			<point name="belowLC" x="502" y="-22" type="move"/>
		</contour>
	</outline>
</glyph>
<glyph name="Eturned" format="2">
	<unicode hex="018E"/>
	<advance width="548"/>
	<outline>
		<contour>
			<point x="53" y="0" type="line"/>
			<point x="471" y="0" type="line"/>
			<point x="471" y="652" type="line"/>
			<point x="63" y="652" type="line"/>
			<point x="63" y="528" type="line"/>
			<point x="324" y="528" type="line"/>
			<point x="324" y="397" type="line"/>
			<point x="101" y="397" type="line"/>
			<point x="101" y="274" type="line"/>
			<point x="324" y="274" type="line"/>
			<point x="324" y="124" type="line"/>
			<point x="53" y="124" type="line"/>
		</contour>
	</outline>
	<anchor name="aboveUC" x="273" y="674"/>
	<anchor name="belowLC" x="263" y="-22"/>
	<anchor name="ogonekUC" x="263" y="0"/>
</glyph>
<glyph name="Schwa" format="2">
	<unicode hex="018F"/>
	<advance width="677"/>
	<outline>
		<contour>
			<point x="336" y="-12" type="curve" smooth="yes"/>
			<point x="512" y="-12"/>
			<point x="632" y="105"/>
			<point x="632" y="327" type="curve" smooth="yes"/>
			<point x="632" y="548"/>
			<point x="512" y="663"/>
			<point x="340" y="663" type="curve" smooth="yes"/>
			<point x="244" y="663"/>
			<point x="167" y="629"/>
			<point x="111" y="582" type="curve"/>
			<point x="184" y="481" type="line"/>
			<point x="220" y="512"/>
			<point x="269" y="537"/>
			<point x="328" y="537" type="curve" smooth="yes"/>
			<point x="428" y="537"/>
			<point x="479" y="472"/>
			<point x="479" y="327" type="curve" smooth="yes"/>
			<point x="479" y="176"/>
			<point x="422" y="115"/>
			<point x="338" y="115" type="curve" smooth="yes"/>
			<point x="262" y="115"/>
			<point x="209" y="158"/>
			<point x="207" y="264" type="curve"/>
			<point x="518" y="264" type="line"/>
			<point x="518" y="376" type="line"/>
			<point x="55" y="376" type="line"/>
			<point x="52" y="358"/>
			<point x="50" y="338"/>
			<point x="50" y="321" type="curve" smooth="yes"/>
			<point x="50" y="103"/>
			<point x="160" y="-12"/>
		</contour>
	</outline>
	<anchor name="aboveUC" x="349" y="673"/>
	<anchor name="belowLC" x="357" y="-22"/>
</glyph>
<glyph name="Eopen" format="2">
	<unicode hex="0190"/>
	<advance width="539"/>
	<outline>
		<contour>
			<point x="298" y="-12" type="curve" smooth="yes"/>
			<point x="401" y="-12"/>
			<point x="463" y="17"/>
			<point x="526" y="77" type="curve"/>
			<point x="455" y="167" type="line"/>
			<point x="412" y="132"/>
			<point x="368" y="115"/>
			<point x="311" y="115" type="curve" smooth="yes"/>
			<point x="233" y="115"/>
			<point x="179" y="147"/>
			<point x="179" y="203" type="curve" smooth="yes"/>
			<point x="179" y="258"/>
			<point x="217" y="282"/>
			<point x="297" y="282" type="curve" smooth="yes"/>
			<point x="384" y="282" type="line"/>
			<point x="384" y="391" type="line"/>
			<point x="316" y="391" type="line" smooth="yes"/>
			<point x="241" y="391"/>
			<point x="212" y="418"/>
			<point x="212" y="465" type="curve" smooth="yes"/>
			<point x="212" y="515"/>
			<point x="249" y="537"/>
			<point x="304" y="537" type="curve" smooth="yes"/>
			<point x="357" y="537"/>
			<point x="398" y="522"/>
			<point x="439" y="492" type="curve"/>
			<point x="505" y="584" type="line"/>
			<point x="448" y="634"/>
			<point x="375" y="664"/>
			<point x="300" y="664" type="curve" smooth="yes"/>
			<point x="166" y="664"/>
			<point x="68" y="602"/>
			<point x="68" y="492" type="curve" smooth="yes"/>
			<point x="68" y="428"/>
			<point x="100" y="376"/>
			<point x="158" y="348" type="curve"/>
			<point x="158" y="344" type="line"/>
			<point x="88" y="325"/>
			<point x="35" y="270"/>
			<point x="35" y="192" type="curve" smooth="yes"/>
			<point x="35" y="61"/>
			<point x="141" y="-12"/>
		</contour>
	</outline>
	<anchor name="aboveUC" x="288" y="674"/>
	<anchor name="baseLC" x="288" y="0"/>
	<anchor name="belowLC" x="288" y="-22"/>
</glyph>
<glyph name="florin" format="2">
	<unicode hex="0192"/>
	<advance width="347"/>
	<outline>
		<contour>
			<point x="62" y="-194" type="curve" smooth="yes"/>
			<point x="202" y="-194"/>
			<point x="244" y="-99"/>
			<point x="244" y="11" type="curve" smooth="yes"/>
			<point x="244" y="522" type="line" smooth="yes"/>
			<point x="244" y="571"/>
			<point x="265" y="590"/>
			<point x="299" y="590" type="curve" smooth="yes"/>
			<point x="316" y="590"/>
			<point x="332" y="588"/>
			<point x="349" y="583" type="curve"/>
			<point x="378" y="693" type="line"/>
			<point x="356" y="702"/>
			<point x="320" y="711"/>
			<point x="277" y="711" type="curve" smooth="yes"/>
			<point x="138" y="711"/>
			<point x="89" y="622"/>
			<point x="89" y="517" type="curve" smooth="yes"/>
			<point x="89" y="6" type="line" smooth="yes"/>
			<point x="89" y="-49"/>
			<point x="76" y="-72"/>
			<point x="38" y="-72" type="curve" smooth="yes"/>
			<point x="25" y="-72"/>
			<point x="13" y="-70"/>
			<point x="0" y="-66" type="curve"/>
			<point x="-28" y="-180" type="line"/>
			<point x="-7" y="-188"/>
			<point x="19" y="-194"/>
		</contour>
		<contour>
			<point x="23" y="376" type="line"/>
			<point x="332" y="376" type="line"/>
			<point x="332" y="497" type="line"/>
			<point x="98" y="497" type="line"/>
			<point x="23" y="492" type="line"/>
		</contour>
	</outline>
	<anchor name="aboveUC" x="244" y="721"/>
	<anchor name="belowLC" x="112" y="-200"/>
</glyph>
<glyph name="Ghook" format="2">
	<unicode hex="0193"/>
	<advance width="640"/>
	<outline>
		<contour>
			<point x="367" y="-12" type="curve" smooth="yes"/>
			<point x="459" y="-12"/>
			<point x="539" y="23"/>
			<point x="584" y="67" type="curve"/>
			<point x="584" y="371" type="line"/>
			<point x="342" y="371" type="line"/>
			<point x="342" y="244" type="line"/>
			<point x="446" y="244" type="line"/>
			<point x="446" y="139" type="line"/>
			<point x="432" y="128"/>
			<point x="407" y="122"/>
			<point x="384" y="122" type="curve" smooth="yes"/>
			<point x="263" y="122"/>
			<point x="204" y="197"/>
			<point x="204" y="327" type="curve" smooth="yes"/>
			<point x="204" y="453"/>
			<point x="274" y="529"/>
			<point x="370" y="529" type="curve" smooth="yes"/>
			<point x="425" y="529"/>
			<point x="459" y="513"/>
			<point x="491" y="490" type="curve"/>
			<point x="573" y="589" type="line"/>
			<point x="528" y="629"/>
			<point x="460" y="663"/>
			<point x="365" y="663" type="curve" smooth="yes"/>
			<point x="191" y="663"/>
			<point x="45" y="538"/>
			<point x="45" y="321" type="curve" smooth="yes"/>
			<point x="45" y="101"/>
			<point x="187" y="-12"/>
		</contour>
		<contour>
			<point x="439" y="585" type="curve"/>
			<point x="573" y="589" type="line"/>
			<point x="557" y="608"/>
			<point x="542" y="626"/>
			<point x="542" y="651" type="curve" smooth="yes"/>
			<point x="542" y="683"/>
			<point x="564" y="699"/>
			<point x="593" y="699" type="curve" smooth="yes"/>
			<point x="604" y="699"/>
			<point x="610" y="696"/>
			<point x="620" y="692" type="curve"/>
			<point x="648" y="805" type="line"/>
			<point x="629" y="812"/>
			<point x="602" y="820"/>
			<point x="560" y="820" type="curve" smooth="yes"/>
			<point x="466" y="820"/>
			<point x="412" y="753"/>
			<point x="412" y="675" type="curve" smooth="yes"/>
			<point x="412" y="646"/>
			<point x="426" y="615"/>
		</contour>
	</outline>
	<anchor name="aboveUC" x="265" y="673"/>
	<anchor name="belowLC" x="366" y="-22"/>
</glyph>
<glyph name="Istroke" format="2">
	<unicode hex="0197"/>
	<advance width="345"/>
	<outline>
		<contour>
			<point x="24" y="285" type="line"/>
			<point x="321" y="285" type="line"/>
			<point x="321" y="387" type="line"/>
			<point x="101" y="387" type="line"/>
			<point x="24" y="381" type="line"/>
		</contour>
		<component base="I" xOffset="20"/>
	</outline>
	<anchor name="aboveUC" x="175" y="673"/>
	<anchor name="belowLC" x="175" y="-22"/>
</glyph>
<glyph name="lbar" format="2">
	<unicode hex="019A"/>
	<advance width="349"/>
	<outline>
		<contour>
			<point x="11" y="330" type="line"/>
			<point x="330" y="330" type="line"/>
			<point x="330" y="431" type="line"/>
			<point x="100" y="431" type="line"/>
			<point x="11" y="426" type="line"/>
		</contour>
		<component base="l" xOffset="35"/>
	</outline>
	<anchor name="aboveUC" x="178" y="724"/>
	<anchor name="belowLC" x="198" y="-22"/>
</glyph>
<glyph name="lambdastroke" format="2">
	<unicode hex="019B"/>
	<advance width="528"/>
	<outline>
		<contour>
			<point x="83" y="403" type="line"/>
			<point x="460" y="592" type="line"/>
			<point x="417" y="668" type="line"/>
			<point x="42" y="479" type="line"/>
		</contour>
		<component base="lambda.latin"/>
	</outline>
	<anchor name="aboveUC" x="215" y="721"/>
	<anchor name="belowLC" x="263" y="-22"/>
</glyph>
<glyph name="Ohorn" format="2">
	<unicode hex="01A0"/>
	<advance width="687"/>
	<outline>
		<contour>
			<point x="552" y="581" type="line"/>
			<point x="632" y="602"/>
			<point x="670" y="642"/>
			<point x="670" y="714" type="curve" smooth="yes"/>
			<point x="670" y="756"/>
			<point x="655" y="794"/>
			<point x="640" y="816" type="curve"/>
			<point x="525" y="770" type="line"/>
			<point x="533" y="754"/>
			<point x="541" y="730"/>
			<point x="541" y="704" type="curve" smooth="yes"/>
			<point x="541" y="659"/>
			<point x="520" y="643"/>
			<point x="481" y="631" type="curve"/>
		</contour>
		<component base="O"/>
	</outline>
	<anchor name="aboveUC" x="344" y="673"/>
	<anchor name="belowLC" x="343" y="-22"/>
</glyph>
<glyph name="ohorn" format="2">
	<unicode hex="01A1"/>
	<advance width="557"/>
	<outline>
		<contour>
			<point x="447" y="439" type="line"/>
			<point x="517" y="460"/>
			<point x="569" y="509"/>
			<point x="569" y="589" type="curve" smooth="yes"/>
			<point x="569" y="627"/>
			<point x="554" y="665"/>
			<point x="539" y="685" type="curve"/>
			<point x="425" y="636" type="line"/>
			<point x="433" y="622"/>
			<point x="441" y="602"/>
			<point x="441" y="579" type="curve" smooth="yes"/>
			<point x="441" y="523"/>
			<point x="413" y="499"/>
			<point x="375" y="489" type="curve"/>
		</contour>
		<component base="o"/>
	</outline>
	<anchor name="aboveLC" x="282" y="520"/>
	<anchor name="belowLC" x="282" y="-22"/>
</glyph>
<glyph name="Uhorn" format="1">
	<unicode hex="01AF"/>
	<advance width="683"/>
	<outline>
		<contour>
			<point x="591" y="598" type="line"/>
			<point x="674" y="613"/>
			<point x="725" y="654"/>
			<point x="725" y="736" type="curve" smooth="yes"/>
			<point x="725" y="776"/>
			<point x="710" y="812"/>
			<point x="695" y="834" type="curve"/>
			<point x="586" y="790" type="line"/>
			<point x="594" y="775"/>
			<point x="602" y="751"/>
			<point x="602" y="725" type="curve" smooth="yes"/>
			<point x="602" y="664"/>
			<point x="559" y="654"/>
			<point x="519" y="652" type="curve"/>
		</contour>
		<component base="U"/>
		<contour>
			<point name="aboveUC" x="332" y="674" type="move"/>
		</contour>
		<contour>
			<point name="belowLC" x="332" y="-22" type="move"/>
		</contour>
	</outline>
</glyph>
<glyph name="uhorn" format="2">
	<unicode hex="01B0"/>
	<advance width="572"/>
	<outline>
		<contour>
			<point x="505" y="449" type="line"/>
			<point x="566" y="469"/>
			<point x="613" y="518"/>
			<point x="613" y="599" type="curve" smooth="yes"/>
			<point x="613" y="637"/>
			<point x="598" y="675"/>
			<point x="582" y="695" type="curve"/>
			<point x="468" y="646" type="line"/>
			<point x="476" y="632"/>
			<point x="484" y="611"/>
			<point x="484" y="589" type="curve" smooth="yes"/>
			<point x="484" y="510"/>
			<point x="440" y="499"/>
			<point x="404" y="497" type="curve"/>
		</contour>
		<component base="u"/>
	</outline>
	<anchor name="aboveLC" x="283" y="520"/>
	<anchor name="belowLC" x="300" y="-22"/>
</glyph>
<glyph name="clickalveolar" format="1">
	<unicode hex="01C2"/>
	<advance width="380"/>
	<outline>
		<contour>
			<point x="6" y="309" type="line"/>
			<point x="374" y="309" type="line"/>
			<point x="374" y="406" type="line"/>
			<point x="82" y="406" type="line"/>
			<point x="6" y="400" type="line"/>
		</contour>
		<contour>
			<point x="6" y="131" type="line"/>
			<point x="374" y="131" type="line"/>
			<point x="374" y="228" type="line"/>
			<point x="82" y="228" type="line"/>
			<point x="6" y="222" type="line"/>
		</contour>
		<contour>
			<point x="120" y="-184" type="line"/>
			<point x="267" y="-184" type="line"/>
			<point x="267" y="701" type="line"/>
			<point x="120" y="701" type="line"/>
		</contour>
	</outline>
</glyph>
<glyph name="clickretroflex" format="2">
	<unicode hex="01C3"/>
	<advance width="248"/>
	<outline>
		<contour>
			<point x="73" y="235" type="line"/>
			<point x="175" y="235" type="line"/>
			<point x="198" y="532" type="line"/>
			<point x="203" y="699" type="line"/>
			<point x="45" y="699" type="line"/>
			<point x="50" y="532" type="line"/>
		</contour>
		<contour>
			<point x="124" y="-12" type="curve" smooth="yes"/>
			<point x="177" y="-12"/>
			<point x="216" y="30"/>
			<point x="216" y="84" type="curve" smooth="yes"/>
			<point x="216" y="138"/>
			<point x="177" y="180"/>
			<point x="124" y="180" type="curve" smooth="yes"/>
			<point x="71" y="180"/>
			<point x="32" y="138"/>
			<point x="32" y="84" type="curve" smooth="yes"/>
			<point x="32" y="30"/>
			<point x="71" y="-12"/>
		</contour>
	</outline>
	<anchor name="aboveUC" x="124" y="721"/>
	<anchor name="belowLC" x="124" y="-22"/>
</glyph>
<glyph name="Gstroke" format="2">
	<unicode hex="01E4"/>
	<advance width="677"/>
	<outline>
		<contour>
			<point x="365" y="-12" type="curve" smooth="yes"/>
			<point x="456" y="-12"/>
			<point x="535" y="23"/>
			<point x="581" y="67" type="curve"/>
			<point x="581" y="367" type="line"/>
			<point x="450" y="367" type="line"/>
			<point x="450" y="135" type="line"/>
			<point x="434" y="122"/>
			<point x="407" y="115"/>
			<point x="380" y="115" type="curve" smooth="yes"/>
			<point x="258" y="115"/>
			<point x="197" y="193"/>
			<point x="197" y="327" type="curve" smooth="yes"/>
			<point x="197" y="458"/>
			<point x="268" y="536"/>
			<point x="369" y="536" type="curve" smooth="yes"/>
			<point x="425" y="536"/>
			<point x="459" y="519"/>
			<point x="492" y="490" type="curve"/>
			<point x="569" y="579" type="line"/>
			<point x="526" y="625"/>
			<point x="458" y="664"/>
			<point x="364" y="664" type="curve" smooth="yes"/>
			<point x="190" y="664"/>
			<point x="46" y="538"/>
			<point x="46" y="322" type="curve" smooth="yes"/>
			<point x="46" y="102"/>
			<point x="186" y="-12"/>
		</contour>
		<contour>
			<point x="341" y="200" type="line"/>
			<point x="655" y="200" type="line"/>
			<point x="655" y="301" type="line"/>
			<point x="455" y="301" type="line"/>
			<point x="341" y="295" type="line"/>
		</contour>
	</outline>
	<anchor name="aboveUC" x="365" y="674"/>
	<anchor name="belowLC" x="365" y="-22"/>
	<guideline x="341" y="253" angle="90" identifier="LLk1mopjqD"/>
</glyph>
<glyph name="gstroke" format="2">
	<unicode hex="01E5"/>
	<advance width="601"/>
	<outline>
		<contour>
			<point x="275" y="215" type="line"/>
			<point x="578" y="215" type="line"/>
			<point x="578" y="316" type="line"/>
			<point x="361" y="316" type="line"/>
			<point x="275" y="310" type="line"/>
		</contour>
		<component base="gscript"/>
	</outline>
	<anchor name="aboveLC" x="286" y="518"/>
	<anchor name="belowLC" x="295" y="-189"/>
</glyph>
<glyph name="Oogonek" format="2">
	<unicode hex="01EA"/>
	<advance width="687"/>
	<outline>
		<contour>
			<point x="361" y="-226" type="curve" smooth="yes"/>
			<point x="399" y="-226"/>
			<point x="447" y="-211"/>
			<point x="475" y="-190" type="curve"/>
			<point x="440" y="-103" type="line"/>
			<point x="429" y="-110"/>
			<point x="413" y="-117"/>
			<point x="396" y="-117" type="curve" smooth="yes"/>
			<point x="370" y="-117"/>
			<point x="352" y="-106"/>
			<point x="352" y="-80" type="curve" smooth="yes"/>
			<point x="352" y="-53"/>
			<point x="376" y="-18"/>
			<point x="428" y="-2" type="curve" smooth="yes"/>
			<point x="557" y="37"/>
			<point x="641" y="145"/>
			<point x="641" y="328" type="curve" smooth="yes"/>
			<point x="641" y="541"/>
			<point x="520" y="663"/>
			<point x="343" y="663" type="curve" smooth="yes"/>
			<point x="166" y="663"/>
			<point x="45" y="542"/>
			<point x="45" y="328" type="curve" smooth="yes"/>
			<point x="45" y="115"/>
			<point x="166" y="-12"/>
			<point x="343" y="-12" type="curve"/>
			<point x="309" y="2" type="line"/>
			<point x="267" y="-25"/>
			<point x="230" y="-76"/>
			<point x="230" y="-126" type="curve" smooth="yes"/>
			<point x="230" y="-190"/>
			<point x="288" y="-226"/>
		</contour>
		<contour>
			<point x="343" y="122" type="curve" smooth="yes"/>
			<point x="258" y="122"/>
			<point x="204" y="202"/>
			<point x="204" y="328" type="curve" smooth="yes"/>
			<point x="204" y="455"/>
			<point x="258" y="529"/>
			<point x="343" y="529" type="curve" smooth="yes"/>
			<point x="429" y="529"/>
			<point x="482" y="455"/>
			<point x="482" y="328" type="curve" smooth="yes"/>
			<point x="482" y="202"/>
			<point x="429" y="122"/>
		</contour>
	</outline>
	<anchor name="aboveUC" x="343" y="673"/>
</glyph>
<glyph name="oogonek" format="1">
	<unicode hex="01EB"/>
	<advance width="555"/>
	<outline>
		<contour>
			<point x="286" y="-210" type="curve" smooth="yes"/>
			<point x="318" y="-210"/>
			<point x="362" y="-197"/>
			<point x="387" y="-177" type="curve"/>
			<point x="357" y="-111" type="line"/>
			<point x="347" y="-117"/>
			<point x="334" y="-123"/>
			<point x="321" y="-123" type="curve" smooth="yes"/>
			<point x="300" y="-123"/>
			<point x="279" y="-112"/>
			<point x="279" y="-85" type="curve" smooth="yes"/>
			<point x="279" y="-56"/>
			<point x="296" y="-25"/>
			<point x="347" y="-5" type="curve" smooth="yes"/>
			<point x="447" y="34"/>
			<point x="519" y="114"/>
			<point x="519" y="248" type="curve" smooth="yes"/>
			<point x="519" y="413"/>
			<point x="403" y="508"/>
			<point x="278" y="508" type="curve" smooth="yes"/>
			<point x="152" y="508"/>
			<point x="36" y="413"/>
			<point x="36" y="248" type="curve" smooth="yes"/>
			<point x="36" y="83"/>
			<point x="152" y="-12"/>
			<point x="278" y="-12" type="curve"/>
			<point x="253" y="2" type="line"/>
			<point x="214" y="-23"/>
			<point x="180" y="-71"/>
			<point x="180" y="-119" type="curve" smooth="yes"/>
			<point x="180" y="-179"/>
			<point x="227" y="-210"/>
		</contour>
		<contour>
			<point x="278" y="107" type="curve" smooth="yes"/>
			<point x="217" y="107"/>
			<point x="187" y="162"/>
			<point x="187" y="248" type="curve" smooth="yes"/>
			<point x="187" y="334"/>
			<point x="217" y="389"/>
			<point x="278" y="389" type="curve" smooth="yes"/>
			<point x="338" y="389"/>
			<point x="369" y="334"/>
			<point x="369" y="248" type="curve" smooth="yes"/>
			<point x="369" y="162"/>
			<point x="338" y="107"/>
		</contour>
		<contour>
			<point name="aboveLC" x="278" y="518" type="move"/>
		</contour>
	</outline>
</glyph>
<glyph name="dotlessj" format="2">
	<unicode hex="0237"/>
	<advance width="282"/>
	<outline>
		<contour>
			<point x="37" y="-194" type="curve" smooth="yes"/>
			<point x="177" y="-194"/>
			<point x="219" y="-99"/>
			<point x="219" y="11" type="curve" smooth="yes"/>
			<point x="219" y="497" type="line"/>
			<point x="64" y="497" type="line"/>
			<point x="64" y="6" type="line" smooth="yes"/>
			<point x="64" y="-49"/>
			<point x="51" y="-72"/>
			<point x="12" y="-72" type="curve" smooth="yes"/>
			<point x="0" y="-72"/>
			<point x="-12" y="-70"/>
			<point x="-26" y="-66" type="curve"/>
			<point x="-53" y="-180" type="line"/>
			<point x="-32" y="-188"/>
			<point x="-6" y="-194"/>
		</contour>
	</outline>
	<anchor name="aboveLC" x="142" y="520"/>
	<anchor name="belowLC" x="85" y="-200"/>
</glyph>
<glyph name="Astroke" format="2">
	<unicode hex="023A"/>
	<advance width="573"/>
	<outline>
		<contour>
			<point x="226" y="-42" type="line"/>
			<point x="394" y="682" type="line"/>
			<point x="348" y="693" type="line"/>
			<point x="180" y="-31" type="line"/>
		</contour>
		<component base="A"/>
	</outline>
	<anchor name="aboveUC" x="285" y="674"/>
	<anchor name="belowLC" x="285" y="-22"/>
</glyph>
<glyph name="Cstroke" format="2">
	<unicode hex="023B"/>
	<advance width="582"/>
	<outline>
		<contour>
			<point x="273" y="-42" type="line"/>
			<point x="442" y="682" type="line"/>
			<point x="396" y="693" type="line"/>
			<point x="227" y="-31" type="line"/>
		</contour>
		<component base="C"/>
	</outline>
	<anchor name="aboveUC" x="345" y="674"/>
	<anchor name="belowLC" x="348" y="-22"/>
</glyph>
<glyph name="cstroke" format="2">
	<unicode hex="023C"/>
	<advance width="468"/>
	<outline>
		<contour>
			<point x="226" y="-62" type="line"/>
			<point x="387" y="557" type="line"/>
			<point x="340" y="567" type="line"/>
			<point x="179" y="-51" type="line"/>
		</contour>
		<component base="c"/>
	</outline>
	<anchor name="aboveLC" x="278" y="518"/>
	<anchor name="belowLC" x="262" y="-22"/>
</glyph>
<glyph name="Lbar" format="2">
	<unicode hex="023D"/>
	<advance width="545"/>
	<outline>
		<contour>
			<point x="27" y="312" type="line"/>
			<point x="431" y="312" type="line"/>
			<point x="431" y="413" type="line"/>
			<point x="107" y="413" type="line"/>
			<point x="27" y="407" type="line"/>
		</contour>
		<component base="L" xOffset="28"/>
	</outline>
	<anchor name="aboveUC" x="181" y="674"/>
	<anchor name="belowLC" x="316" y="-22"/>
</glyph>
<glyph name="Tstroke" format="2">
	<unicode hex="023E"/>
	<advance width="556"/>
	<outline>
		<contour>
			<point x="83" y="-42" type="line"/>
			<point x="585" y="672" type="line"/>
			<point x="550" y="694" type="line"/>
			<point x="47" y="-21" type="line"/>
		</contour>
		<component base="T"/>
	</outline>
	<anchor name="aboveUC" x="276" y="674"/>
	<anchor name="belowLC" x="276" y="-22"/>
</glyph>
<glyph name="Glottalstop" format="2">
	<unicode hex="0241"/>
	<advance width="537"/>
	<outline>
		<contour>
			<point x="165" y="0" type="line"/>
			<point x="320" y="0" type="line"/>
			<point x="320" y="200" type="line"/>
			<point x="418" y="250"/>
			<point x="497" y="334"/>
			<point x="497" y="452" type="curve" smooth="yes"/>
			<point x="497" y="592"/>
			<point x="376" y="663"/>
			<point x="240" y="663" type="curve" smooth="yes"/>
			<point x="144" y="663"/>
			<point x="60" y="621"/>
			<point x="0" y="563" type="curve"/>
			<point x="78" y="464" type="line"/>
			<point x="122" y="502"/>
			<point x="180" y="529"/>
			<point x="226" y="529" type="curve" smooth="yes"/>
			<point x="292" y="529"/>
			<point x="338" y="498"/>
			<point x="338" y="438" type="curve" smooth="yes"/>
			<point x="338" y="372"/>
			<point x="291" y="318"/>
			<point x="165" y="267" type="curve"/>
		</contour>
	</outline>
	<anchor name="aboveUC" x="264" y="673"/>
	<anchor name="belowLC" x="235" y="-22"/>
</glyph>
<glyph name="glottalstop" format="1">
	<unicode hex="0242"/>
	<unicode hex="0294"/>
	<advance width="448"/>
	<outline>
		<contour>
			<point x="129" y="0" type="line"/>
			<point x="276" y="0" type="line"/>
			<point x="276" y="273" type="line"/>
			<point x="365" y="337"/>
			<point x="431" y="403"/>
			<point x="431" y="508" type="curve" smooth="yes"/>
			<point x="431" y="644"/>
			<point x="328" y="713"/>
			<point x="207" y="713" type="curve" smooth="yes"/>
			<point x="109" y="713"/>
			<point x="41" y="673"/>
			<point x="-6" y="623" type="curve"/>
			<point x="66" y="530" type="line"/>
			<point x="99" y="565"/>
			<point x="140" y="594"/>
			<point x="191" y="594" type="curve" smooth="yes"/>
			<point x="248" y="594"/>
			<point x="284" y="561"/>
			<point x="284" y="501" type="curve" smooth="yes"/>
			<point x="284" y="438"/>
			<point x="241" y="394"/>
			<point x="129" y="325" type="curve"/>
		</contour>
		<contour>
			<point name="aboveUC" x="215" y="722" type="move"/>
		</contour>
		<contour>
			<point name="belowLC" x="195" y="-22" type="move"/>
		</contour>
	</outline>
</glyph>
<glyph name="Bstroke" format="2">
	<unicode hex="0243"/>
	<advance width="625"/>
	<outline>
		<contour>
			<point x="97" y="0" type="line"/>
			<point x="339" y="0" type="line" smooth="yes"/>
			<point x="480" y="0"/>
			<point x="592" y="61"/>
			<point x="592" y="200" type="curve" smooth="yes"/>
			<point x="592" y="292"/>
			<point x="544" y="344"/>
			<point x="451" y="361" type="curve"/>
			<point x="451" y="365" type="line"/>
			<point x="527" y="385"/>
			<point x="561" y="439"/>
			<point x="561" y="495" type="curve" smooth="yes"/>
			<point x="561" y="613"/>
			<point x="456" y="652"/>
			<point x="320" y="652" type="curve" smooth="yes"/>
			<point x="97" y="652" type="line"/>
		</contour>
		<contour>
			<point x="244" y="400" type="line"/>
			<point x="244" y="544" type="line"/>
			<point x="314" y="544" type="line" smooth="yes"/>
			<point x="382" y="544"/>
			<point x="419" y="526"/>
			<point x="419" y="478" type="curve" smooth="yes"/>
			<point x="419" y="428"/>
			<point x="384" y="400"/>
			<point x="313" y="400" type="curve" smooth="yes"/>
		</contour>
		<contour>
			<point x="244" y="108" type="line"/>
			<point x="244" y="307" type="line"/>
			<point x="327" y="307" type="line" smooth="yes"/>
			<point x="408" y="307"/>
			<point x="451" y="280"/>
			<point x="451" y="212" type="curve" smooth="yes"/>
			<point x="451" y="143"/>
			<point x="406" y="108"/>
			<point x="327" y="108" type="curve" smooth="yes"/>
		</contour>
		<contour>
			<point x="22" y="160" type="line"/>
			<point x="370" y="160" type="line"/>
			<point x="370" y="260" type="line"/>
			<point x="99" y="260" type="line"/>
			<point x="22" y="254" type="line"/>
		</contour>
	</outline>
</glyph>
<glyph name="Ubar" format="2">
	<unicode hex="0244"/>
	<advance width="719"/>
	<outline>
		<contour>
			<point x="27" y="312" type="line"/>
			<point x="693" y="312" type="line"/>
			<point x="693" y="413" type="line"/>
			<point x="104" y="413" type="line"/>
			<point x="27" y="407" type="line"/>
		</contour>
		<component base="U" xOffset="29"/>
	</outline>
	<anchor name="aboveUC" x="360" y="674"/>
	<anchor name="belowLC" x="360" y="-22"/>
</glyph>
<glyph name="aturned" format="2">
	<unicode hex="0250"/>
	<advance width="536"/>
	<outline>
		<contour>
			<point x="278" y="-12" type="curve" smooth="yes"/>
			<point x="346" y="-12"/>
			<point x="417" y="13"/>
			<point x="482" y="53" type="curve"/>
			<point x="427" y="153" type="line"/>
			<point x="379" y="126"/>
			<point x="338" y="111"/>
			<point x="301" y="111" type="curve" smooth="yes"/>
			<point x="243" y="111"/>
			<point x="215" y="134"/>
			<point x="211" y="175" type="curve"/>
			<point x="406" y="197"/>
			<point x="488" y="265"/>
			<point x="488" y="372" type="curve" smooth="yes"/>
			<point x="488" y="450"/>
			<point x="439" y="509"/>
			<point x="353" y="509" type="curve" smooth="yes"/>
			<point x="288" y="509"/>
			<point x="236" y="481"/>
			<point x="198" y="438" type="curve"/>
			<point x="194" y="438" type="line"/>
			<point x="182" y="497" type="line"/>
			<point x="56" y="497" type="line"/>
			<point x="56" y="220" type="line" smooth="yes"/>
			<point x="56" y="64"/>
			<point x="137" y="-12"/>
		</contour>
		<contour>
			<point x="211" y="271" type="curve"/>
			<point x="211" y="340" type="line"/>
			<point x="236" y="371"/>
			<point x="261" y="390"/>
			<point x="293" y="390" type="curve" smooth="yes"/>
			<point x="321" y="390"/>
			<point x="340" y="376"/>
			<point x="340" y="347" type="curve" smooth="yes"/>
			<point x="340" y="313"/>
			<point x="309" y="285"/>
		</contour>
	</outline>
	<anchor name="aboveLC" x="287" y="519"/>
	<anchor name="belowLC" x="279" y="-22"/>
	<anchor name="ogonekLC" x="279" y="0"/>
</glyph>
<glyph name="alphalatin" format="2">
	<unicode hex="0251"/>
	<advance width="576"/>
	<outline>
		<contour>
			<point x="241" y="-12" type="curve" smooth="yes"/>
			<point x="295" y="-12"/>
			<point x="344" y="19"/>
			<point x="377" y="53" type="curve"/>
			<point x="381" y="53" type="line"/>
			<point x="400" y="11"/>
			<point x="437" y="-12"/>
			<point x="499" y="-12" type="curve" smooth="yes"/>
			<point x="529" y="-12"/>
			<point x="550" y="-5"/>
			<point x="567" y="1" type="curve"/>
			<point x="549" y="115" type="line"/>
			<point x="542" y="113"/>
			<point x="540" y="113"/>
			<point x="536" y="113" type="curve" smooth="yes"/>
			<point x="522" y="113"/>
			<point x="513" y="123"/>
			<point x="513" y="155" type="curve" smooth="yes"/>
			<point x="513" y="497" type="line"/>
			<point x="391" y="497" type="line"/>
			<point x="379" y="448" type="line"/>
			<point x="375" y="448" type="line"/>
			<point x="336" y="491"/>
			<point x="296" y="509"/>
			<point x="247" y="509" type="curve" smooth="yes"/>
			<point x="140" y="509"/>
			<point x="38" y="411"/>
			<point x="38" y="249" type="curve" smooth="yes"/>
			<point x="38" y="87"/>
			<point x="118" y="-12"/>
		</contour>
		<contour>
			<point x="282" y="115" type="curve" smooth="yes"/>
			<point x="229" y="115"/>
			<point x="197" y="155"/>
			<point x="197" y="250" type="curve" smooth="yes"/>
			<point x="197" y="343"/>
			<point x="236" y="383"/>
			<point x="280" y="383" type="curve" smooth="yes"/>
			<point x="305" y="383"/>
			<point x="334" y="375"/>
			<point x="358" y="354" type="curve"/>
			<point x="358" y="156" type="line"/>
			<point x="335" y="125"/>
			<point x="312" y="115"/>
		</contour>
	</outline>
	<anchor name="aboveLC" x="288" y="520"/>
	<anchor name="belowLC" x="296" y="-22"/>
</glyph>
<glyph name="alphalatinturned" format="2">
	<unicode hex="0252"/>
	<advance width="583"/>
	<outline>
		<contour>
			<point x="335" y="-12" type="curve" smooth="yes"/>
			<point x="442" y="-12"/>
			<point x="543" y="86"/>
			<point x="543" y="256" type="curve" smooth="yes"/>
			<point x="543" y="409"/>
			<point x="470" y="508"/>
			<point x="350" y="508" type="curve" smooth="yes"/>
			<point x="295" y="508"/>
			<point x="242" y="479"/>
			<point x="204" y="442" type="curve"/>
			<point x="200" y="442" type="line"/>
			<point x="182" y="484"/>
			<point x="146" y="507"/>
			<point x="86" y="507" type="curve" smooth="yes"/>
			<point x="58" y="507"/>
			<point x="36" y="500"/>
			<point x="20" y="495" type="curve"/>
			<point x="38" y="387" type="line"/>
			<point x="44" y="389"/>
			<point x="47" y="389"/>
			<point x="51" y="389" type="curve" smooth="yes"/>
			<point x="64" y="389"/>
			<point x="74" y="379"/>
			<point x="74" y="347" type="curve" smooth="yes"/>
			<point x="74" y="0" type="line"/>
			<point x="190" y="0" type="line"/>
			<point x="202" y="49" type="line"/>
			<point x="205" y="49" type="line"/>
			<point x="245" y="7"/>
			<point x="292" y="-12"/>
		</contour>
		<contour>
			<point x="300" y="108" type="curve" smooth="yes"/>
			<point x="276" y="108"/>
			<point x="248" y="116"/>
			<point x="221" y="140" type="curve"/>
			<point x="221" y="343" type="line"/>
			<point x="250" y="374"/>
			<point x="276" y="388"/>
			<point x="307" y="388" type="curve" smooth="yes"/>
			<point x="365" y="388"/>
			<point x="393" y="343"/>
			<point x="393" y="254" type="curve" smooth="yes"/>
			<point x="393" y="152"/>
			<point x="352" y="108"/>
		</contour>
	</outline>
	<anchor name="aboveLC" x="316" y="518"/>
	<anchor name="belowLC" x="290" y="-22"/>
</glyph>
<glyph name="bhook" format="2">
	<unicode hex="0253"/>
	<advance width="575"/>
	<outline>
		<contour>
			<point x="329" y="-12" type="curve" smooth="yes"/>
			<point x="436" y="-12"/>
			<point x="537" y="82"/>
			<point x="537" y="249" type="curve" smooth="yes"/>
			<point x="537" y="396"/>
			<point x="462" y="492"/>
			<point x="342" y="492" type="curve" smooth="yes"/>
			<point x="296" y="492"/>
			<point x="251" y="472"/>
			<point x="214" y="438" type="curve"/>
			<point x="216" y="500" type="line"/>
			<point x="221" y="565"/>
			<point x="246" y="590"/>
			<point x="294" y="590" type="curve" smooth="yes"/>
			<point x="310" y="590"/>
			<point x="328" y="586"/>
			<point x="345" y="579" type="curve"/>
			<point x="373" y="693" type="line"/>
			<point x="351" y="702"/>
			<point x="314" y="711"/>
			<point x="271" y="711" type="curve" smooth="yes"/>
			<point x="118" y="711"/>
			<point x="63" y="612"/>
			<point x="63" y="496" type="curve"/>
			<point x="63" y="0" type="line"/>
			<point x="184" y="0" type="line"/>
			<point x="196" y="53" type="line"/>
			<point x="200" y="53" type="line"/>
			<point x="239" y="10"/>
			<point x="284" y="-12"/>
		</contour>
		<contour>
			<point x="292" y="115" type="curve" smooth="yes"/>
			<point x="268" y="115"/>
			<point x="242" y="122"/>
			<point x="217" y="144" type="curve"/>
			<point x="217" y="323" type="line"/>
			<point x="244" y="353"/>
			<point x="268" y="365"/>
			<point x="297" y="365" type="curve" smooth="yes"/>
			<point x="352" y="365"/>
			<point x="378" y="327"/>
			<point x="378" y="246" type="curve" smooth="yes"/>
			<point x="378" y="152"/>
			<point x="340" y="115"/>
		</contour>
	</outline>
	<anchor name="aboveUC" x="315" y="721"/>
	<anchor name="belowLC" x="291" y="-22"/>
</glyph>
<glyph name="oopen" format="2">
	<unicode hex="0254"/>
	<advance width="469"/>
	<outline>
		<contour>
			<point x="187" y="-12" type="curve" smooth="yes"/>
			<point x="324" y="-12"/>
			<point x="434" y="84"/>
			<point x="434" y="249" type="curve" smooth="yes"/>
			<point x="434" y="416"/>
			<point x="322" y="509"/>
			<point x="192" y="509" type="curve" smooth="yes"/>
			<point x="123" y="509"/>
			<point x="65" y="487"/>
			<point x="27" y="456" type="curve"/>
			<point x="100" y="357" type="line"/>
			<point x="124" y="377"/>
			<point x="142" y="385"/>
			<point x="174" y="385" type="curve" smooth="yes"/>
			<point x="233" y="385"/>
			<point x="276" y="332"/>
			<point x="276" y="249" type="curve" smooth="yes"/>
			<point x="276" y="166"/>
			<point x="230" y="113"/>
			<point x="169" y="113" type="curve" smooth="yes"/>
			<point x="138" y="113"/>
			<point x="108" y="128"/>
			<point x="83" y="148" type="curve"/>
			<point x="22" y="47" type="line"/>
			<point x="71" y="4"/>
			<point x="134" y="-12"/>
		</contour>
	</outline>
	<anchor name="aboveLC" x="218" y="520"/>
	<anchor name="baseLC" x="209" y="0"/>
	<anchor name="belowLC" x="209" y="-22"/>
</glyph>
<glyph name="ccurl" format="2">
	<unicode hex="0255"/>
	<advance width="478"/>
	<outline>
		<contour>
			<point x="138" y="-73" type="line"/>
			<point x="187" y="82"/>
			<point x="264" y="178"/>
			<point x="325" y="178" type="curve" smooth="yes"/>
			<point x="347" y="178"/>
			<point x="360" y="168"/>
			<point x="360" y="147" type="curve" smooth="yes"/>
			<point x="360" y="125"/>
			<point x="337" y="105"/>
			<point x="293" y="105" type="curve" smooth="yes"/>
			<point x="232" y="105"/>
			<point x="185" y="160"/>
			<point x="185" y="249" type="curve" smooth="yes"/>
			<point x="185" y="336"/>
			<point x="231" y="392"/>
			<point x="305" y="392" type="curve" smooth="yes"/>
			<point x="326" y="392"/>
			<point x="351" y="384"/>
			<point x="374" y="366" type="curve"/>
			<point x="442" y="456" type="line"/>
			<point x="405" y="488"/>
			<point x="357" y="509"/>
			<point x="296" y="509" type="curve" smooth="yes"/>
			<point x="157" y="509"/>
			<point x="35" y="414"/>
			<point x="35" y="249" type="curve" smooth="yes"/>
			<point x="35" y="83"/>
			<point x="143" y="-12"/>
			<point x="283" y="-12" type="curve" smooth="yes"/>
			<point x="403" y="-12"/>
			<point x="471" y="59"/>
			<point x="471" y="147" type="curve" smooth="yes"/>
			<point x="471" y="229"/>
			<point x="420" y="280"/>
			<point x="343" y="280" type="curve" smooth="yes"/>
			<point x="222" y="280"/>
			<point x="119" y="165"/>
			<point x="43" y="-37" type="curve"/>
		</contour>
	</outline>
	<anchor name="aboveLC" x="287" y="519"/>
	<anchor name="belowLC" x="290" y="-22"/>
</glyph>
<glyph name="dtail" format="1">
	<unicode hex="0256"/>
	<advance width="573"/>
	<outline>
		<contour>
			<point x="528" y="-196" type="curve" smooth="yes"/>
			<point x="565" y="-196"/>
			<point x="588" y="-190"/>
			<point x="606" y="-182" type="curve"/>
			<point x="580" y="-74" type="line"/>
			<point x="570" y="-78"/>
			<point x="561" y="-81"/>
			<point x="551" y="-81" type="curve" smooth="yes"/>
			<point x="520" y="-81"/>
			<point x="508" y="-59"/>
			<point x="508" y="-10" type="curve"/>
			<point x="508" y="713" type="line"/>
			<point x="361" y="713" type="line"/>
			<point x="361" y="532" type="line"/>
			<point x="367" y="456" type="line"/>
			<point x="333" y="488"/>
			<point x="300" y="508"/>
			<point x="245" y="508" type="curve" smooth="yes"/>
			<point x="140" y="508"/>
			<point x="39" y="410"/>
			<point x="39" y="248" type="curve" smooth="yes"/>
			<point x="39" y="86"/>
			<point x="119" y="-12"/>
			<point x="242" y="-12" type="curve" smooth="yes"/>
			<point x="288" y="-12"/>
			<point x="332" y="11"/>
			<point x="367" y="43" type="curve"/>
			<point x="366" y="-45" type="line"/>
			<point x="366" y="-125"/>
			<point x="417" y="-196"/>
		</contour>
		<contour>
			<point x="280" y="108" type="curve" smooth="yes"/>
			<point x="223" y="108"/>
			<point x="190" y="152"/>
			<point x="190" y="250" type="curve" smooth="yes"/>
			<point x="190" y="344"/>
			<point x="232" y="388"/>
			<point x="279" y="388" type="curve" smooth="yes"/>
			<point x="306" y="388"/>
			<point x="335" y="380"/>
			<point x="361" y="356" type="curve"/>
			<point x="361" y="153" type="line"/>
			<point x="337" y="120"/>
			<point x="312" y="108"/>
		</contour>
		<contour>
			<point name="aboveUC" x="420" y="722" type="move"/>
		</contour>
		<contour>
			<point name="belowLC" x="286" y="-202" type="move"/>
		</contour>
	</outline>
</glyph>
<glyph name="dhook" format="2">
	<unicode hex="0257"/>
	<advance width="575"/>
	<outline>
		<contour>
			<point x="241" y="-12" type="curve" smooth="yes"/>
			<point x="288" y="-12"/>
			<point x="337" y="13"/>
			<point x="372" y="48" type="curve"/>
			<point x="375" y="48" type="line"/>
			<point x="386" y="0" type="line"/>
			<point x="513" y="0" type="line"/>
			<point x="513" y="521" type="line" smooth="yes"/>
			<point x="513" y="570"/>
			<point x="527" y="590"/>
			<point x="564" y="590" type="curve" smooth="yes"/>
			<point x="572" y="590"/>
			<point x="577" y="590"/>
			<point x="583" y="587" type="curve"/>
			<point x="611" y="701" type="line"/>
			<point x="593" y="707"/>
			<point x="574" y="711"/>
			<point x="540" y="711" type="curve" smooth="yes"/>
			<point x="410" y="711"/>
			<point x="363" y="630"/>
			<point x="363" y="534" type="curve" smooth="yes"/>
			<point x="363" y="458" type="line"/>
			<point x="331" y="489"/>
			<point x="298" y="509"/>
			<point x="243" y="509" type="curve" smooth="yes"/>
			<point x="140" y="509"/>
			<point x="38" y="411"/>
			<point x="38" y="249" type="curve" smooth="yes"/>
			<point x="38" y="87"/>
			<point x="118" y="-12"/>
		</contour>
		<contour>
			<point x="282" y="115" type="curve" smooth="yes"/>
			<point x="229" y="115"/>
			<point x="197" y="155"/>
			<point x="197" y="250" type="curve" smooth="yes"/>
			<point x="197" y="343"/>
			<point x="236" y="383"/>
			<point x="280" y="383" type="curve" smooth="yes"/>
			<point x="305" y="383"/>
			<point x="334" y="375"/>
			<point x="358" y="354" type="curve"/>
			<point x="358" y="156" type="line"/>
			<point x="335" y="125"/>
			<point x="312" y="115"/>
		</contour>
	</outline>
	<anchor name="aboveUC" x="278" y="721"/>
	<anchor name="belowLC" x="288" y="-22"/>
</glyph>
<glyph name="ereversed" format="2">
	<unicode hex="0258"/>
	<advance width="520"/>
	<outline>
		<contour>
			<point x="236" y="-12" type="curve" smooth="yes"/>
			<point x="379" y="-12"/>
			<point x="485" y="84"/>
			<point x="485" y="249" type="curve" smooth="yes"/>
			<point x="485" y="410"/>
			<point x="380" y="509"/>
			<point x="260" y="509" type="curve" smooth="yes"/>
			<point x="116" y="509"/>
			<point x="36" y="405"/>
			<point x="36" y="270" type="curve" smooth="yes"/>
			<point x="36" y="242"/>
			<point x="39" y="216"/>
			<point x="43" y="202" type="curve"/>
			<point x="336" y="202" type="line"/>
			<point x="322" y="135"/>
			<point x="279" y="106"/>
			<point x="215" y="106" type="curve" smooth="yes"/>
			<point x="179" y="106"/>
			<point x="142" y="116"/>
			<point x="106" y="137" type="curve"/>
			<point x="55" y="44" type="line"/>
			<point x="107" y="8"/>
			<point x="178" y="-12"/>
		</contour>
		<contour>
			<point x="168" y="306" type="line"/>
			<point x="168" y="354"/>
			<point x="198" y="392"/>
			<point x="255" y="392" type="curve" smooth="yes"/>
			<point x="299" y="392"/>
			<point x="330" y="364"/>
			<point x="338" y="306" type="curve"/>
		</contour>
	</outline>
	<anchor name="aboveLC" x="261" y="519"/>
	<anchor name="belowLC" x="262" y="-22"/>
	<anchor name="ogonekLC" x="261" y="0"/>
</glyph>
<glyph name="schwa" format="2">
	<unicode hex="0259"/>
	<advance width="518"/>
	<outline>
		<contour>
			<point x="249" y="-12" type="curve" smooth="yes"/>
			<point x="369" y="-12"/>
			<point x="482" y="87"/>
			<point x="482" y="248" type="curve" smooth="yes"/>
			<point x="482" y="412"/>
			<point x="382" y="508"/>
			<point x="249" y="508" type="curve" smooth="yes"/>
			<point x="182" y="508"/>
			<point x="120" y="488"/>
			<point x="70" y="452" type="curve"/>
			<point x="117" y="364" type="line"/>
			<point x="152" y="385"/>
			<point x="186" y="396"/>
			<point x="229" y="396" type="curve" smooth="yes"/>
			<point x="287" y="396"/>
			<point x="343" y="362"/>
			<point x="346" y="248" type="curve" smooth="yes"/>
			<point x="349" y="138"/>
			<point x="296" y="100"/>
			<point x="246" y="100" type="curve" smooth="yes"/>
			<point x="187" y="100"/>
			<point x="162" y="141"/>
			<point x="162" y="196" type="curve"/>
			<point x="368" y="196" type="line"/>
			<point x="367" y="293" type="line"/>
			<point x="42" y="293" type="line"/>
			<point x="40" y="281"/>
			<point x="36" y="255"/>
			<point x="36" y="228" type="curve" smooth="yes"/>
			<point x="36" y="93"/>
			<point x="107" y="-12"/>
		</contour>
	</outline>
	<anchor name="aboveLC" x="256" y="518"/>
	<anchor name="belowLC" x="251" y="-22"/>
	<anchor name="ogonekLC" x="251" y="0"/>
</glyph>
<glyph name="schwahookrhotic" format="2">
	<unicode hex="025A"/>
	<advance width="727"/>
	<outline>
		<contour>
			<point x="260" y="-12" type="curve" smooth="yes"/>
			<point x="391" y="-12"/>
			<point x="482" y="101"/>
			<point x="482" y="240" type="curve" smooth="yes"/>
			<point x="482" y="398"/>
			<point x="397" y="508"/>
			<point x="244" y="508" type="curve" smooth="yes"/>
			<point x="189" y="508"/>
			<point x="123" y="494"/>
			<point x="68" y="457" type="curve"/>
			<point x="117" y="363" type="line"/>
			<point x="151" y="383"/>
			<point x="187" y="394"/>
			<point x="225" y="394" type="curve" smooth="yes"/>
			<point x="304" y="394"/>
			<point x="343" y="345"/>
			<point x="343" y="226" type="curve" smooth="yes"/>
			<point x="343" y="152"/>
			<point x="309" y="100"/>
			<point x="260" y="100" type="curve" smooth="yes"/>
			<point x="210" y="100"/>
			<point x="177" y="123"/>
			<point x="167" y="165" type="curve"/>
			<point x="542" y="321" type="line"/>
			<point x="542" y="314" type="line" smooth="yes"/>
			<point x="542" y="227"/>
			<point x="595" y="194"/>
			<point x="651" y="194" type="curve" smooth="yes"/>
			<point x="692" y="194"/>
			<point x="718" y="206"/>
			<point x="739" y="219" type="curve"/>
			<point x="708" y="289" type="line"/>
			<point x="698" y="283"/>
			<point x="686" y="279"/>
			<point x="668" y="279" type="curve" smooth="yes"/>
			<point x="636" y="279"/>
			<point x="616" y="304"/>
			<point x="616" y="376" type="curve" smooth="yes"/>
			<point x="616" y="395"/>
			<point x="617" y="414"/>
			<point x="619" y="439" type="curve"/>
			<point x="607" y="449" type="line"/>
			<point x="36" y="218" type="line"/>
			<point x="43" y="95"/>
			<point x="108" y="-12"/>
		</contour>
	</outline>
	<anchor name="aboveLC" x="253" y="518"/>
	<anchor name="belowLC" x="268" y="-22"/>
</glyph>
<glyph name="eopen" format="2">
	<unicode hex="025B"/>
	<advance width="445"/>
	<outline>
		<contour>
			<point x="249" y="-12" type="curve" smooth="yes"/>
			<point x="322" y="-12"/>
			<point x="379" y="2"/>
			<point x="428" y="43" type="curve"/>
			<point x="379" y="130" type="line"/>
			<point x="343" y="109"/>
			<point x="306" y="100"/>
			<point x="274" y="100" type="curve" smooth="yes"/>
			<point x="217" y="100"/>
			<point x="182" y="119"/>
			<point x="182" y="155" type="curve" smooth="yes"/>
			<point x="182" y="188"/>
			<point x="205" y="205"/>
			<point x="258" y="205" type="curve" smooth="yes"/>
			<point x="332" y="205" type="line"/>
			<point x="332" y="302" type="line"/>
			<point x="274" y="302" type="line" smooth="yes"/>
			<point x="229" y="302"/>
			<point x="205" y="317"/>
			<point x="205" y="348" type="curve" smooth="yes"/>
			<point x="205" y="377"/>
			<point x="230" y="396"/>
			<point x="271" y="396" type="curve" smooth="yes"/>
			<point x="307" y="396"/>
			<point x="335" y="390"/>
			<point x="368" y="372" type="curve"/>
			<point x="420" y="461" type="line"/>
			<point x="376" y="491"/>
			<point x="319" y="508"/>
			<point x="258" y="508" type="curve" smooth="yes"/>
			<point x="152" y="508"/>
			<point x="61" y="463"/>
			<point x="61" y="366" type="curve" smooth="yes"/>
			<point x="61" y="326"/>
			<point x="86" y="281"/>
			<point x="141" y="264" type="curve"/>
			<point x="141" y="260" type="line"/>
			<point x="81" y="245"/>
			<point x="38" y="205"/>
			<point x="38" y="133" type="curve" smooth="yes"/>
			<point x="38" y="39"/>
			<point x="142" y="-12"/>
		</contour>
	</outline>
	<anchor name="aboveLC" x="248" y="518"/>
	<anchor name="baseLC" x="248" y="0"/>
	<anchor name="belowLC" x="248" y="-22"/>
	<anchor name="ogonekLC" x="248" y="0"/>
</glyph>
<glyph name="eopenreversed" format="2">
	<unicode hex="025C"/>
	<advance width="448"/>
	<outline>
		<contour>
			<point x="200" y="-12" type="curve" smooth="yes"/>
			<point x="307" y="-12"/>
			<point x="411" y="39"/>
			<point x="411" y="134" type="curve" smooth="yes"/>
			<point x="411" y="205"/>
			<point x="368" y="245"/>
			<point x="308" y="260" type="curve"/>
			<point x="308" y="264" type="line"/>
			<point x="362" y="281"/>
			<point x="388" y="326"/>
			<point x="388" y="367" type="curve" smooth="yes"/>
			<point x="388" y="463"/>
			<point x="297" y="508"/>
			<point x="192" y="508" type="curve" smooth="yes"/>
			<point x="130" y="508"/>
			<point x="73" y="492"/>
			<point x="28" y="461" type="curve"/>
			<point x="80" y="372" type="line"/>
			<point x="114" y="390"/>
			<point x="142" y="396"/>
			<point x="179" y="396" type="curve" smooth="yes"/>
			<point x="219" y="396"/>
			<point x="244" y="377"/>
			<point x="244" y="349" type="curve" smooth="yes"/>
			<point x="244" y="319"/>
			<point x="219" y="304"/>
			<point x="175" y="304" type="curve" smooth="yes"/>
			<point x="116" y="304" type="line"/>
			<point x="116" y="203" type="line"/>
			<point x="190" y="203" type="line" smooth="yes"/>
			<point x="243" y="203"/>
			<point x="266" y="187"/>
			<point x="266" y="154" type="curve" smooth="yes"/>
			<point x="266" y="120"/>
			<point x="231" y="100"/>
			<point x="174" y="100" type="curve" smooth="yes"/>
			<point x="143" y="100"/>
			<point x="106" y="109"/>
			<point x="69" y="131" type="curve"/>
			<point x="20" y="43" type="line"/>
			<point x="69" y="3"/>
			<point x="127" y="-12"/>
		</contour>
	</outline>
	<anchor name="aboveLC" x="212" y="518"/>
	<anchor name="belowLC" x="213" y="-22"/>
</glyph>
